<svg viewBox="0 0 144 123" xmlns="http://www.w3.org/2000/svg">
<path d="M84.2628 39.5051L84.9001 38.8998C83.5481 37.0051 82.2348 35.1584 80.9975 33.4091L79.6108 34.7304L76.2441 38.2331C77.5015 40.0064 78.8201 41.8611 80.1775 43.7598L84.2628 39.5051Z" fill-opacity="0.4"/>
<path d="M133.269 13.3518C118.22 -2.96282 92.7025 -3.99082 76.3878 11.0572L76.1852 11.2625C76.1598 11.2892 73.6878 13.9932 70.2385 17.1798C66.3372 21.0132 61.3158 26.0318 59.0452 28.6545L59.0425 28.6518L53.4398 35.2158C51.1972 37.8425 50.0692 41.1572 50.2625 44.5518C50.4612 47.9998 51.9918 51.1132 54.5758 53.3198C59.8425 57.8145 67.8918 57.0745 72.5665 51.6812L80.1758 43.7598C78.8198 41.8598 77.5012 40.0065 76.2438 38.2332L67.6958 47.1292L67.5652 47.2732C65.2852 49.9438 61.3985 50.3785 58.9052 48.2492C57.7172 47.2345 57.0118 45.7865 56.9185 44.1718C56.8238 42.5012 57.3892 40.8585 58.5105 39.5438L63.8532 33.2825L63.8558 33.2852C63.8572 33.2852 63.8572 33.2838 63.8585 33.2838L63.8598 33.2812C65.3692 31.4838 69.2932 27.4545 74.8345 22.0065C78.0745 19.0172 80.4812 16.4372 81.0078 15.8652C94.6252 3.40517 115.844 4.29184 128.368 17.8718C134.452 24.4665 137.603 33.0345 137.241 41.9998C136.88 50.9638 133.049 59.2505 126.455 65.3332L110.283 80.2505C109.823 83.3105 108.2 86.1385 105.533 88.0025C103.976 89.0918 102.229 89.6852 100.444 89.9025C101.908 92.0118 102.844 93.3545 102.844 93.3545C103.255 93.9452 103.605 94.5638 103.908 95.2012L130.975 70.2332C138.879 62.9425 143.469 53.0118 143.903 42.2678C144.336 31.5238 140.56 21.2545 133.269 13.3518Z" fill-opacity="0.7"/>
<path d="M83.3667 65.1869L78.9573 58.8895L73.5 62.7055C73.564 62.7975 77.1213 67.8815 77.9733 69.1069L88.8573 84.6762C91.2933 88.1615 95.1493 90.0469 98.9987 90.0469C99.5227 90.0469 100.047 90.0029 100.567 89.9322C96.1653 83.5975 86.8773 70.2349 83.3667 65.1869Z" fill-opacity="0.4"/>
<path d="M108.103 71.152C107.946 70.9333 95.2634 53.4413 84.8981 38.8987L84.2621 39.5053L80.1768 43.7587C81.2541 45.2467 102.518 74.8053 102.674 75.0187C104.447 77.5547 104.017 80.9293 101.713 82.5387C99.4128 84.1467 96.0941 83.3947 94.3208 80.8573C94.3208 80.8573 96.1648 83.596 100.567 89.9307C102.309 89.6947 104.01 89.0667 105.533 88.0027C110.849 84.2867 112.017 76.7493 108.103 71.152Z"/>
<path d="M92.1893 112.075C92.4813 109.477 91.86 106.941 90.3787 104.822L68.1027 72.9285L62.6387 76.7485L83.6613 106.825C85.7573 109.822 88.9013 111.626 92.1893 112.075Z" fill-opacity="0.4"/>
<path d="M102.947 93.3557C102.947 93.3557 99.6521 88.617 99.1481 87.8917C99.3041 88.113 99.7348 88.7343 100.567 89.9317C100.045 90.0023 99.5228 90.0463 98.9974 90.0463C95.1481 90.0463 91.2934 88.161 88.8574 84.677C88.8574 84.677 97.4734 97.161 97.4761 97.1677C98.3588 98.4263 98.7254 99.921 98.5134 101.373C98.3081 102.753 97.6014 103.929 96.5174 104.688C94.2148 106.297 90.8988 105.542 89.1254 103.006L90.3774 104.822C91.8601 106.94 92.4801 109.477 92.1894 112.076C92.7241 112.149 93.2614 112.194 93.8028 112.194C96.0828 112.194 98.3601 111.533 100.337 110.152C102.943 108.329 104.637 105.556 105.108 102.341C105.569 99.1997 104.8 96.0063 102.947 93.3557Z"/>
<path d="M68.89 115.138C71.1327 111.476 71.2913 106.942 68.8847 103.499L53.5753 81.5924L48.1113 85.411L68.89 115.138Z" fill-opacity="0.4"/>
<path d="M83.6621 106.825L84.9141 108.641C85.5434 109.542 85.7448 110.684 85.4794 111.856C85.1888 113.144 84.3874 114.301 83.2248 115.114C82.0594 115.928 80.6954 116.282 79.3874 116.113C78.1954 115.96 77.1914 115.38 76.5634 114.478L68.8848 103.5C71.2914 106.941 71.1328 111.476 68.8901 115.138L71.0994 118.298C72.8168 120.756 75.4581 122.329 78.5341 122.725C79.0328 122.79 79.5328 122.822 80.0328 122.822C82.4981 122.822 84.9421 122.048 87.0434 120.578C89.5701 118.812 91.3234 116.237 91.9821 113.326C92.0781 112.908 92.1421 112.492 92.1901 112.076C88.9021 111.626 85.7568 109.821 83.6621 106.825Z"/>
<path d="M63.421 107.318C64.6436 109.068 63.765 111.884 61.501 113.466C60.3103 114.298 58.9396 114.681 57.645 114.55C57.001 114.485 55.809 114.216 55.0623 113.149C55.0623 113.149 30.0503 77.5635 25.2303 70.6689L19.7676 74.4889C21.8356 77.4489 27.6263 85.6969 33.561 94.1462C32.5996 94.4795 31.5583 94.5835 30.505 94.3862C28.821 94.0729 27.3263 93.1102 26.2943 91.6742L21.4183 84.8862L21.421 84.8835L21.3223 84.7475C6.63297 64.5969 5.60897 46.7302 7.33831 35.2995C8.45697 28.1982 11.757 21.7622 16.881 16.6875C30.045 3.65553 51.3503 3.76219 64.381 16.9195L67.4076 19.9769C68.3796 19.0115 69.3383 18.0622 70.237 17.1795C70.937 16.5342 71.5823 15.9169 72.189 15.3289L69.117 12.2289C53.5023 -3.54181 27.9636 -3.66714 12.189 11.9515C6.05031 18.0329 2.09564 25.7475 0.750309 34.2809C-1.16302 46.9249 -0.0963618 66.5555 15.7663 88.4435L20.8796 95.5622C22.917 98.4009 25.901 100.31 29.2823 100.941C30.081 101.089 30.8796 101.162 31.6703 101.162C33.7063 101.162 35.681 100.66 37.4716 99.7115C43.9343 108.909 49.6063 116.977 49.605 116.976C51.281 119.374 53.8956 120.869 56.9663 121.182C57.3596 121.222 57.753 121.242 58.1476 121.242C60.6516 121.242 63.161 120.44 65.321 118.93C66.8196 117.882 68.009 116.576 68.8903 115.138L63.421 107.318Z"/>
</svg>
