<svg width="513" height="513" viewBox="0 0 513 513" fill="none" xmlns="http://www.w3.org/2000/svg">
<rect x="0.542969" y="0.467041" width="512" height="512" rx="72" fill="#05244D"/>
<path fill-rule="evenodd" clip-rule="evenodd" d="M476.543 202.984C476.543 205.168 476.543 207.393 476.543 209.661C476.417 211.551 475.283 212.937 473.267 213.189C472.595 213.273 471.966 213.315 471.378 213.315H470.874H463.693C458.401 213.315 454.748 216.086 452.984 221.503C452.228 223.645 452.102 225.787 451.976 228.181C451.976 229.021 451.934 229.86 451.85 230.7C451.682 232.8 451.556 234.9 451.472 237C451.346 239.393 451.22 241.913 450.968 244.433L450.716 247.078C450.464 249.724 450.212 252.37 449.834 255.015C448.7 261.189 447.441 266.606 445.677 271.519C442.149 281.094 437.362 290.039 430.937 299.11C426.653 305.031 421.614 310.574 415.819 315.74C407.126 323.425 397.173 328.968 385.96 332.118C378.653 334.259 370.716 335.141 361.771 334.511C347.031 333.755 333.677 329.094 322.086 320.653C313.897 314.732 306.968 307.047 301.173 297.346C297.897 292.055 295.63 287.519 293.866 283.236C293.614 282.564 293.32 281.934 292.984 281.346C292.858 280.968 292.732 280.968 292.732 280.968C292.732 280.968 292.648 280.968 292.48 280.968C292.48 281.724 292.732 282.48 293.11 283.488L295.756 290.417C295.924 290.921 296.092 291.425 296.26 291.929C296.512 293.441 295.882 295.078 294.622 295.834C293.362 296.464 291.85 296.464 290.59 295.708C289.33 294.952 288.574 293.693 288.071 292.811C285.929 289.157 284.291 285.126 283.031 280.338C281.015 272.653 279.63 264.968 278.874 257.409C278.79 256.485 278.706 255.603 278.622 254.763C278.37 253.126 278.118 251.488 278.118 249.724C278.118 249.472 278.118 249.178 278.118 248.842C278.118 248.506 278.118 248.17 278.118 247.834C278.118 246.07 279 244.685 280.637 243.929C280.973 243.761 281.351 243.593 281.771 243.425L281.519 241.661C281.183 239.225 280.847 236.832 280.512 234.48C280.26 232.842 280.26 231.456 280.26 230.196C280.26 228.937 280.008 228.055 279 227.173C277.74 226.039 276.606 224.653 275.472 223.267L275.22 223.015C273.96 221.504 272.449 220.874 270.307 220.874C266.863 220.79 263.42 220.706 259.976 220.622L256.574 220.496L252.543 220.622C249.351 220.706 246.118 220.79 242.842 220.874C240.574 220.874 238.811 221.756 237.299 223.519C236.165 224.905 235.031 226.291 233.771 227.551C233.141 228.307 232.889 228.811 233.015 229.44C233.141 232.464 232.637 235.362 232.26 238.133C232.092 239.141 231.924 240.149 231.756 241.157C231.672 241.493 231.63 241.829 231.63 242.165C231.546 242.501 231.504 242.795 231.504 243.047C231.42 243.131 231.378 243.257 231.378 243.425C231.462 243.425 231.546 243.425 231.63 243.425C233.519 244.181 235.661 245.818 235.157 249.598L234.905 251.236C234.527 254.385 234.149 257.535 233.897 260.685C233.393 265.094 232.637 269.629 231.252 275.677C229.74 282.228 228.102 287.645 225.078 292.685C224.574 293.692 224.071 294.448 223.441 295.078C222.517 295.918 221.467 296.296 220.291 296.212C219.157 296.212 218.149 295.708 217.519 294.826C216.889 294.07 216.637 293.063 216.889 292.055C216.889 291.551 217.141 291.173 217.267 290.921L218.149 288.527C218.779 286.763 219.409 285 220.165 283.236C220.417 282.48 220.543 281.724 220.543 280.968C220.375 280.968 220.291 280.968 220.291 280.968C220.039 281.346 219.913 281.85 219.661 282.354C217.393 287.897 214.496 293.441 210.842 299.11C205.299 307.803 199.252 314.606 192.197 319.897C184.889 325.441 176.574 329.472 167.504 331.992C160.826 333.881 153.771 334.763 146.338 334.763C143.903 334.763 141.383 334.679 138.779 334.511C132.606 334.007 126.181 332.37 119.378 329.598C112.7 326.826 106.149 322.921 99.976 318.133C93.4248 312.842 87.3776 306.291 81.5823 298.102C76.165 290.543 72.0075 282.984 68.8579 275.173C66.3383 268.622 64.4485 261.693 63.4406 254.763C62.5587 249.598 62.1808 244.433 61.8028 239.393L61.6768 236.37C61.4249 233.22 61.2989 230.07 61.1729 226.921C60.9209 222.763 59.913 219.614 57.8973 217.094C56.0075 214.826 53.8658 213.693 51.3461 213.441C49.3303 213.315 47.4406 213.315 45.4249 213.315H42.0233C41.3514 213.315 40.6794 213.273 40.0075 213.189C37.9918 213.063 36.7319 211.551 36.606 209.661C36.522 207.225 36.522 204.79 36.606 202.354C36.7319 200.338 38.2437 198.952 40.2595 198.952L41.7713 198.826C44.165 198.826 46.6847 198.826 49.2044 198.952C52.102 199.204 54.8737 199.078 57.7713 199.204C58.3592 199.204 58.7372 199.12 58.9052 198.952C60.6689 197.693 62.6847 197.441 64.4485 197.189C66.9682 197.063 69.2359 196.181 72.0075 195.173L72.7634 194.795C75.787 193.619 78.8107 192.401 81.8343 191.141C87.6296 188.622 93.8028 186.858 99.7241 185.094L103.504 183.96C109.173 182.196 114.716 180.937 120.134 180.181L122.653 179.803C130.086 178.795 137.771 177.661 145.708 178.417C149.11 178.669 152.386 178.921 155.661 179.425C161.582 180.307 166.496 181.189 171.031 182.196C175.693 183.33 179.598 184.59 183.126 185.976C191.441 189.377 198.244 192.905 204.165 196.937C206.685 198.574 209.33 200.59 211.976 202.858C215.924 206.049 219.787 209.283 223.567 212.559L228.48 216.716C228.648 216.884 228.816 217.01 228.984 217.094C228.984 216.968 229.11 216.842 229.362 216.716C230.118 216.338 230.748 215.96 231.378 215.456C235.031 212.685 239.315 211.299 244.354 211.047C249.141 210.795 254.055 210.795 258.716 210.795C260.648 210.879 262.538 210.879 264.385 210.795C266.779 210.921 269.173 210.921 271.567 211.173C275.22 211.803 278.244 212.937 280.889 214.7C282.023 215.582 283.157 216.338 284.165 216.968C284.249 217.052 284.333 217.094 284.417 217.094C284.417 217.094 284.459 217.052 284.543 216.968L287.567 214.196C289.162 212.853 290.716 211.509 292.228 210.165C297.519 205.629 302.811 201.22 308.354 197.189C312.134 194.669 316.291 192.275 321.582 189.629C329.393 185.85 336.826 183.204 344.26 181.693C349.173 180.559 355.22 179.425 361.393 179.047C362.149 179.047 362.905 178.921 363.661 178.795C364.669 178.543 365.677 178.417 366.685 178.417C370.842 178.291 374.496 178.165 378.023 178.291C380.921 178.417 383.819 178.795 386.842 179.299C390.874 179.929 395.157 180.559 399.567 181.441C402.59 182.07 405.992 182.952 409.897 183.96C414.433 185.304 418.926 186.69 423.378 188.118C427.283 189.378 431.189 191.015 434.842 192.653L438.244 193.913C440.008 194.669 441.813 195.383 443.661 196.055C444.921 196.559 446.559 197.063 448.323 197.189C450.086 197.315 451.976 197.693 453.866 198.7C454.37 199.078 455 199.204 456.008 199.204C457.015 199.204 458.023 199.204 459.031 199.204C460.921 199.078 462.685 199.078 464.574 198.952C466.842 198.7 469.11 198.826 471.378 198.826H472.637C476.039 198.952 476.543 201.22 476.543 202.984ZM441.267 236.622C441.141 234.102 441.015 231.078 440.763 228.181C440.512 224.527 439.504 221 437.74 217.346C435.094 211.803 430.811 206.763 424.889 202.228C419.22 197.818 412.543 194.417 404.102 191.393C397.425 188.874 390.118 187.236 382.433 186.354C379.577 186.018 376.595 185.85 373.488 185.85C370.296 185.85 366.937 186.018 363.409 186.354C358.496 186.858 353.456 187.488 348.165 188.496C344.26 189.252 339.724 190.259 335.441 191.897C325.614 195.803 317.425 200.464 310.622 206.133C305.33 210.417 301.173 215.834 298.149 222.511C295.882 227.425 294.37 232.716 293.488 238.763C292.606 243.929 292.48 249.346 293.11 255.519C293.488 259.929 294.622 264.716 296.512 270.637C298.779 277.944 302.055 285 305.96 291.551C311.504 300.496 317.803 307.803 325.236 313.472C330.275 317.504 335.945 320.653 342.118 322.921C347.661 324.937 353.708 326.322 360.511 326.952C368.826 327.708 376.637 327.078 383.945 324.937C394.653 321.913 404.48 316.244 413.173 308.055C417.582 303.897 421.488 299.362 424.889 294.574C431.441 285.504 435.976 275.803 438.496 265.724C440.511 258.039 441.393 249.85 441.519 239.267L441.267 236.622ZM71.8816 239.897V240.023C71.8816 241.031 71.8816 242.081 71.8816 243.173C71.8816 245.315 71.7556 247.582 72.0075 249.85C72.7635 260.055 74.9052 269 78.4327 277.441C81.2044 283.992 84.9839 290.417 89.8973 296.968C92.291 300.244 95.0626 303.393 98.0863 306.417C100.984 309.189 104.008 311.834 107.409 314.354C119.378 322.921 131.724 327.078 145.33 327.204C147.724 327.204 150.244 327.078 153.645 326.826C158.433 326.322 163.22 325.315 168.134 323.803C181.11 319.771 191.819 312.086 201.015 300.244C205.173 294.952 208.7 289.157 211.598 282.984C216.008 273.913 218.653 265.094 219.787 255.897C221.299 244.181 219.535 232.464 214.37 221.252C211.598 215.078 207.063 209.661 201.267 205C196.732 201.472 191.441 198.196 184.511 194.795C179.472 192.401 173.929 190.511 168.134 189.252C163.094 188.118 158.055 187.362 152.889 186.732C148.354 186.228 144.029 185.976 139.913 185.976C133.866 185.976 128.071 186.48 122.653 187.614C112.448 189.63 103.378 192.905 94.9367 197.693C88.1335 201.598 82.9681 206.007 79.0626 211.047C75.4091 215.96 73.2674 221.126 72.3855 226.795C71.7556 231.204 71.8816 235.74 71.8816 239.897Z" fill="#FFC658"/>
</svg>
