<svg xmlns="http://www.w3.org/2000/svg" version="1.1" xmlns:xlink="http://www.w3.org/1999/xlink" xmlns:svgjs="http://svgjs.dev/svgjs" width="513" height="513"><svg width="513" height="513" viewBox="0 0 513 513" fill="none" xmlns="http://www.w3.org/2000/svg">
<rect x="0.542969" y="0.467041" width="512" height="512" rx="72" fill="#05244D"></rect>
<path fill-rule="evenodd" clip-rule="evenodd" d="M151.733 196.663C147.544 196.2 143.607 195.975 139.913 195.975C134.406 195.975 129.314 196.435 124.702 197.4L124.647 197.412L124.591 197.423C115.349 199.248 107.312 202.172 99.8932 206.376C94.0887 209.712 90.0041 213.276 87.0282 217.092C84.3769 220.681 82.9045 224.289 82.2762 228.27C81.8558 231.255 81.8657 234.304 81.8775 237.965C81.8795 238.59 81.8816 239.233 81.8816 239.896V243.171C81.8816 244.083 81.871 244.821 81.8619 245.454C81.8424 246.822 81.8299 247.696 81.9464 248.744L81.9667 248.927L81.9802 249.11C82.6607 258.296 84.5665 266.176 87.651 273.563C90.0593 279.25 93.3993 284.969 97.8973 290.967L97.9346 291.016L97.9712 291.067C99.9838 293.821 102.375 296.555 105.079 299.266C107.713 301.781 110.37 304.096 113.296 306.268C123.683 313.687 134.02 317.089 145.377 317.203C147.368 317.201 149.561 317.098 152.748 316.864C156.782 316.429 160.883 315.569 165.18 314.247C175.988 310.887 185.038 304.512 193.117 294.109L193.135 294.086L193.152 294.064C196.815 289.402 199.952 284.26 202.546 278.733L202.575 278.672L202.604 278.61C206.565 270.463 208.872 262.703 209.862 254.672L209.866 254.644L209.869 254.616C211.137 244.79 209.678 234.965 205.287 225.434L205.267 225.39L205.247 225.346C203.266 220.934 199.881 216.729 195.063 212.841C191.191 209.838 186.539 206.932 180.164 203.799C175.853 201.757 171.059 200.12 166.009 199.022L165.974 199.014L165.938 199.006C161.37 197.978 156.712 197.272 151.733 196.663ZM66.6716 212.143C67.6649 210.157 68.8183 208.221 70.1362 206.331C68.7044 206.708 67.132 207.017 65.4786 207.141C65.1873 207.183 64.9749 207.214 64.7574 207.251C64.5991 207.278 64.4822 207.301 64.3964 207.32C63.9294 207.632 63.4695 207.886 63.0348 208.092C63.9379 208.871 64.7868 209.74 65.5795 210.691L65.6435 210.768L65.706 210.846C66.0469 211.272 66.3685 211.704 66.6716 212.143ZM53.5625 256.323C52.6309 250.822 52.2238 245.387 51.8638 240.58C51.8528 240.433 51.8418 240.286 51.8308 240.14L51.8184 239.974L51.6933 236.971C51.4363 233.697 51.3064 230.456 51.1854 227.431C51.0168 224.831 50.4845 223.864 50.148 223.416C50.1388 223.406 50.1299 223.396 50.1214 223.386C48.6748 223.316 47.2323 223.313 45.4249 223.313H42.0233C41.0218 223.313 40.0231 223.256 39.0291 223.141C31.5022 222.493 27.0325 216.391 26.6281 210.325L26.6174 210.165L26.6119 210.004C26.52 207.339 26.52 204.673 26.6119 202.008L26.6167 201.868L26.6254 201.729C27.0769 194.505 32.7902 189.221 39.7228 188.961L41.3552 188.825H41.8679C44.2024 188.825 46.9325 188.825 49.7038 188.963L49.8875 188.973L50.0707 188.989C51.1249 189.08 52.2299 189.11 53.5988 189.125C53.8371 189.127 54.0895 189.13 54.3534 189.132C54.8605 189.136 55.41 189.141 55.9822 189.15C58.8348 187.846 61.4962 187.493 62.7131 187.331C62.8351 187.315 62.9426 187.301 63.0343 187.288L63.4897 187.223L63.9491 187.2C64.5987 187.167 65.2499 186.982 68.0528 185.968L68.706 185.642L69.139 185.473C72.0651 184.335 74.9922 183.157 77.9202 181.937C83.8229 179.378 90.0249 177.539 95.3939 175.947C95.8901 175.8 96.3792 175.655 96.8603 175.512C96.8633 175.511 96.8663 175.51 96.8693 175.509L100.582 174.395C106.692 172.497 112.733 171.118 118.7 170.283L121.24 169.902L121.31 169.892C121.723 169.836 122.142 169.779 122.566 169.721C129.459 168.778 137.82 167.635 146.547 168.45C149.875 168.697 153.482 168.972 157.157 169.536C163.231 170.441 168.38 171.362 173.2 172.433L173.298 172.455L173.395 172.478C178.478 173.715 182.817 175.109 186.782 176.667L186.847 176.693L186.912 176.719C195.661 180.298 203.091 184.117 209.706 188.61C212.6 190.498 215.529 192.738 218.373 195.169C222.245 198.301 226.04 201.475 229.757 204.69C234.137 202.42 238.889 201.308 243.841 201.059C248.888 200.793 254.016 200.793 258.599 200.793H258.933L259.151 200.803C260.8 200.875 262.393 200.874 263.931 200.804L264.421 200.781L264.911 200.807C265.37 200.831 265.96 200.853 266.632 200.877C268.376 200.939 270.666 201.021 272.613 201.226L272.941 201.261L273.266 201.317C276.862 201.937 280.243 202.98 283.405 204.6C284.142 203.962 284.869 203.326 285.584 202.689L285.652 202.63L285.72 202.571C291.058 197.995 296.595 193.374 302.472 189.1L302.637 188.98L302.807 188.867C306.994 186.075 311.522 183.478 317.11 180.684L317.168 180.655L317.227 180.627C325.589 176.58 333.777 173.632 342.137 171.918C347.315 170.728 353.903 169.485 360.782 169.064L361.088 169.045H361.275C361.279 169.045 361.283 169.044 361.287 169.044C361.344 169.037 361.426 169.025 361.551 169.006C361.594 168.999 361.639 168.992 361.686 168.984C363.263 168.623 364.875 168.429 366.51 168.416C366.738 168.409 366.966 168.402 367.194 168.395C370.962 168.28 374.713 168.165 378.38 168.296L378.419 168.297L378.458 168.299C381.902 168.449 385.223 168.891 388.435 169.425C388.976 169.509 389.528 169.595 390.092 169.682C393.596 170.224 397.519 170.832 401.528 171.633L401.567 171.641L401.606 171.649C404.789 172.312 408.299 173.218 411.971 174.166L412.568 174.32L412.738 174.371C417.344 175.736 421.909 177.143 426.432 178.594L426.44 178.597L426.448 178.599C430.747 179.986 434.925 181.736 438.625 183.389L441.952 184.621L442.183 184.72C443.771 185.401 445.402 186.046 447.079 186.655L447.228 186.71L447.375 186.769C447.692 186.895 448.012 187.004 448.319 187.084C448.629 187.164 448.869 187.201 449.035 187.213C451.377 187.38 454.217 187.865 457.2 189.203H458.715C459.692 189.144 460.615 189.112 461.401 189.085L461.458 189.083C462.319 189.053 463.028 189.028 463.727 188.985C466.061 188.748 468.58 188.787 470.261 188.812C470.695 188.819 471.073 188.825 471.378 188.825H472.823L473.008 188.832C477.137 188.985 481.39 190.666 484.111 194.631C486.395 197.96 486.543 201.464 486.543 202.982V209.993L486.521 210.325C486.336 213.094 485.353 216.157 483.056 218.717C480.709 221.332 477.613 222.722 474.508 223.11C473.484 223.238 472.437 223.313 471.378 223.313H463.693C463.361 223.313 463.159 223.345 463.058 223.367C462.95 223.511 462.73 223.868 462.493 224.598L462.455 224.715L462.414 224.83C462.216 225.391 462.105 226.091 461.975 228.469C461.966 229.51 461.912 230.549 461.811 231.587C461.657 233.524 461.542 235.461 461.464 237.398L461.462 237.461L461.437 237.935C461.32 240.171 461.183 242.773 460.921 245.402C460.92 245.41 460.919 245.418 460.919 245.426L460.662 248.126C460.416 250.707 460.145 253.549 459.734 256.428L459.706 256.625L459.67 256.82C458.495 263.219 457.118 269.242 455.089 274.897L455.075 274.936L455.06 274.975C451.201 285.451 445.981 295.17 439.097 304.889L439.068 304.929L439.039 304.97C434.307 311.511 428.774 317.587 422.472 323.203L422.457 323.217L422.442 323.23C412.68 331.861 401.417 338.153 388.718 341.729C380.24 344.206 371.155 345.185 361.164 344.492C344.591 343.625 329.395 338.341 316.216 328.747C307.912 322.741 300.838 315.215 294.872 306.122C291.757 306.604 288.426 306.07 285.445 304.282C281.857 302.129 280.007 298.862 279.45 297.88C279.436 297.855 279.423 297.832 279.411 297.811C276.764 293.282 274.813 288.402 273.36 282.882L273.358 282.874C271.213 274.696 269.733 266.496 268.923 258.403L268.919 258.358L268.915 258.313C268.842 257.513 268.77 256.749 268.697 256.02C268.459 254.475 268.118 252.221 268.118 249.723V247.833C268.118 244.543 269.178 241.516 271.065 239.087C270.916 238.03 270.767 236.981 270.619 235.94C270.432 234.711 270.343 233.582 270.299 232.604C269.732 231.989 269.213 231.387 268.753 230.837L259.669 230.616L256.546 230.5L252.831 230.616L252.806 230.617C249.979 230.691 247.119 230.766 244.226 230.84C243.842 231.305 243.425 231.802 242.981 232.313C242.858 234.689 242.543 236.867 242.309 238.487C242.27 238.759 242.233 239.015 242.2 239.254C242.262 239.335 242.323 239.418 242.384 239.502C244.786 242.811 245.616 246.818 245.069 250.918L245.056 251.018L244.814 252.591C244.44 255.711 244.095 258.612 243.865 261.481L243.852 261.65L243.833 261.819C243.282 266.635 242.459 271.539 240.999 277.909L240.996 277.924C239.443 284.651 237.562 291.201 233.838 297.518C233.054 299.027 232.019 300.64 230.512 302.148L230.343 302.316L230.167 302.476C227.432 304.963 223.863 306.395 219.919 306.206C219.36 306.19 218.804 306.141 218.253 306.058C212.458 314.835 205.949 322.077 198.22 327.878C189.858 334.218 180.401 338.784 170.202 341.619C162.532 343.787 154.556 344.762 146.338 344.762C143.673 344.762 140.938 344.67 138.135 344.489L138.05 344.484L137.966 344.477C130.593 343.875 123.166 341.938 115.605 338.858L115.574 338.845L115.544 338.833C107.948 335.679 100.634 331.297 93.8478 326.034L93.7696 325.974L93.6927 325.911C86.3299 319.965 79.6763 312.714 73.4367 303.901C67.5889 295.738 63.043 287.491 59.5835 278.911L59.5534 278.836L59.5245 278.761C56.779 271.623 54.6917 264.016 53.5625 256.323ZM446.401 212.293C447.436 210.747 448.681 209.314 450.166 208.056C449.762 207.875 449.354 207.665 448.945 207.422C448.658 207.305 448.26 207.208 447.61 207.162C445.836 207.035 444.206 206.703 442.793 206.307C444.152 208.218 445.359 210.212 446.401 212.293ZM431.513 239.675L431.291 237.344L431.28 237.12C431.259 236.697 431.238 236.272 431.217 235.844C431.108 233.594 430.996 231.282 430.801 229.046L430.793 228.956L430.787 228.867C430.636 226.671 430.032 224.381 428.734 221.692L428.725 221.672L428.715 221.652C426.881 217.809 423.741 213.943 418.809 210.165L418.779 210.143L418.75 210.12C414.156 206.547 408.506 203.592 400.73 200.806L400.65 200.778L400.571 200.748C394.797 198.569 388.314 197.093 381.293 196.287L381.278 196.286L381.264 196.284C378.826 195.997 376.236 195.849 373.488 195.849C370.656 195.849 367.626 195.997 364.393 196.304C359.643 196.792 354.932 197.386 350.05 198.315C346.312 199.039 342.498 199.91 339.071 201.214C330.038 204.81 322.838 208.969 317.024 213.814L316.969 213.86L316.914 213.904C312.895 217.157 309.674 221.301 307.259 226.635L307.244 226.668L307.229 226.701C305.416 230.629 304.146 234.977 303.383 240.205L303.366 240.325L303.345 240.445C302.639 244.579 302.505 249.076 303.058 254.503L303.066 254.583L303.073 254.664C303.361 258.015 304.253 262.001 306.038 267.596L306.05 267.634L306.062 267.672C308.058 274.103 310.97 280.412 314.506 286.355C319.532 294.449 325.041 300.745 331.3 305.519L331.392 305.59L331.483 305.662C335.636 308.985 340.347 311.614 345.553 313.528C350.255 315.236 355.453 316.439 361.425 316.993C368.664 317.65 375.193 317.08 381.132 315.339L381.179 315.325L381.227 315.311C390.279 312.756 398.708 307.941 406.313 300.777C410.225 297.088 413.702 293.054 416.738 288.781L416.76 288.749L416.783 288.718C422.626 280.627 426.598 272.082 428.794 263.297L428.808 263.241L428.823 263.186C430.533 256.666 431.37 249.491 431.513 239.675ZM463.128 223.285C463.128 223.286 463.123 223.292 463.111 223.302C463.122 223.29 463.128 223.285 463.128 223.285Z" fill="#FFC658"></path>
</svg><style>@media (prefers-color-scheme: light) { :root { filter: none; } }
@media (prefers-color-scheme: dark) { :root { filter: none; } }
</style></svg>