<svg viewBox="0 0 1858 540" xmlns="http://www.w3.org/2000/svg">
<path d="M1857.12 289.208C1857.12 290.281 1856.54 291.025 1855.55 291.025H1827.88V292.181C1827.88 302.009 1831.76 305.643 1839.36 305.643C1844.15 305.643 1850.26 305.313 1854.06 304.735C1854.22 304.735 1854.31 304.735 1854.47 304.735C1855.13 304.735 1855.79 305.065 1855.79 305.891V308.699C1855.79 309.773 1855.46 310.351 1854.14 310.599C1849.43 311.507 1844.89 312.003 1839.36 312.003C1829.86 312.003 1820.61 307.543 1820.61 292.181V284.748C1820.61 272.937 1827.14 265.422 1838.95 265.422C1851 265.422 1857.12 273.02 1857.12 284.748V289.208ZM1849.76 285.491V284.748C1849.76 275.415 1846.21 271.781 1838.95 271.781C1831.84 271.781 1827.88 275.828 1827.88 284.748V285.491H1849.76Z"/>
<path d="M1812.95 270.295C1812.95 271.203 1812.37 271.699 1811.22 271.699C1807.42 271.699 1803.95 272.69 1799.82 275.167V309.773C1799.82 310.599 1799.08 311.425 1798.17 311.425H1794.12C1793.29 311.425 1792.55 310.681 1792.55 309.773V267.652C1792.55 266.743 1793.21 266 1794.12 266H1798C1798.91 266 1799.57 266.743 1799.57 267.652V269.386C1803.7 266.495 1807.5 265.422 1811.22 265.422C1812.37 265.422 1812.95 265.917 1812.95 266.908V270.295Z"/>
<path d="M1778.02 309.773C1778.02 310.681 1777.28 311.425 1776.37 311.425H1772.57C1771.66 311.425 1770.92 310.681 1770.92 309.773V307.956C1766.96 310.268 1762.83 312.003 1758.2 312.003C1751.18 312.003 1744.74 308.947 1744.74 298.623V297.632C1744.74 288.712 1749.94 284.252 1764.64 284.252H1770.75V280.949C1770.75 274.011 1768.36 271.616 1761.92 271.616C1756.55 271.616 1752.58 271.946 1749.28 272.277C1749.12 272.277 1749.03 272.277 1748.87 272.277C1748.12 272.277 1747.38 272.029 1747.38 270.955V268.065C1747.38 267.156 1747.96 266.661 1749.12 266.495C1752.5 265.917 1756.3 265.422 1761.92 265.422C1773.4 265.422 1778.02 271.203 1778.02 280.949V309.773ZM1770.75 302.753V289.456H1764.64C1754.65 289.456 1752.01 291.685 1752.01 297.549V298.54C1752.01 304.487 1754.81 306.056 1759.6 306.056C1763.4 306.056 1766.79 304.9 1770.75 302.753Z"/>
<path d="M1734.56 309.277C1734.56 310.268 1733.81 310.764 1732.9 310.929C1729.44 311.59 1726.21 312.003 1719.19 312.003C1709.04 312.003 1697.39 306.552 1697.39 286.482V275.002C1697.39 254.768 1709.04 249.482 1719.19 249.482C1724.4 249.482 1729.44 250.225 1733.07 250.803C1733.81 250.886 1734.39 251.134 1734.39 251.877V256.089C1734.39 256.585 1734.23 256.997 1733.4 256.997C1733.32 256.997 1733.23 256.997 1733.15 256.997C1730.18 256.75 1724.07 256.254 1719.28 256.254C1711.18 256.254 1704.91 260.962 1704.91 275.002V286.482C1704.91 300.358 1711.18 305.23 1719.28 305.23C1723.98 305.23 1729.93 304.817 1732.9 304.57C1732.99 304.57 1733.15 304.57 1733.23 304.57C1734.14 304.57 1734.56 304.983 1734.56 305.891V309.277Z"/>
<path d="M1662.13 267.404C1662.13 267.569 1662.13 267.817 1662.05 267.982L1648.42 315.554C1645.86 324.474 1642.8 327.778 1633.3 327.778C1630.99 327.778 1628.1 327.447 1626.37 327.034C1625.38 326.786 1624.63 326.539 1624.63 325.713V322.657C1624.63 321.748 1625.29 321.335 1626.2 321.335C1626.28 321.335 1626.37 321.335 1626.45 321.335C1628.27 321.501 1631.98 321.831 1633.8 321.831C1638.51 321.831 1640.57 320.592 1641.98 314.811L1642.8 311.425H1641.65C1639.17 311.425 1637.02 310.846 1635.53 305.726L1624.55 267.982C1624.47 267.817 1624.47 267.569 1624.47 267.404C1624.47 266.578 1624.96 266 1625.95 266H1630.5C1631.16 266 1631.73 266.661 1631.9 267.321L1641.65 303.166C1642.06 304.817 1642.64 304.983 1643.21 304.983H1644.54L1654.61 267.239C1654.78 266.578 1655.44 266 1656.18 266H1660.81C1661.63 266 1662.13 266.578 1662.13 267.404Z"/>
<path d="M1615.24 289.208C1615.24 290.281 1614.66 291.025 1613.67 291.025H1586V292.181C1586 302.009 1589.88 305.643 1597.48 305.643C1602.27 305.643 1608.38 305.313 1612.18 304.735C1612.34 304.735 1612.43 304.735 1612.59 304.735C1613.25 304.735 1613.91 305.065 1613.91 305.891V308.699C1613.91 309.773 1613.58 310.351 1612.26 310.599C1607.55 311.507 1603.01 312.003 1597.48 312.003C1587.98 312.003 1578.73 307.543 1578.73 292.181V284.748C1578.73 272.937 1585.26 265.422 1597.07 265.422C1609.12 265.422 1615.24 273.02 1615.24 284.748V289.208ZM1607.88 285.491V284.748C1607.88 275.415 1604.33 271.781 1597.07 271.781C1589.96 271.781 1586 275.828 1586 284.748V285.491H1607.88Z"/>
<path d="M1565.68 309.773C1565.68 310.681 1564.94 311.425 1564.03 311.425H1560.07C1559.16 311.425 1558.41 310.681 1558.41 309.773V282.601C1558.41 274.259 1555.61 271.699 1549.33 271.699C1545.86 271.699 1541.98 273.02 1538.18 274.92V309.773C1538.18 310.599 1537.44 311.425 1536.53 311.425H1532.48C1531.65 311.425 1530.91 310.681 1530.91 309.773V267.652C1530.91 266.743 1531.57 266 1532.48 266H1536.61C1537.52 266 1538.18 266.743 1538.18 267.652V269.221C1542.72 266.661 1546.44 265.422 1551.31 265.422C1561.22 265.422 1565.68 271.616 1565.68 282.601V309.773Z"/>
<path d="M1516.34 308.699C1516.34 309.773 1516.1 310.351 1514.61 310.599C1509.49 311.59 1504.45 312.003 1499.41 312.003C1487.11 312.003 1481.41 303.991 1481.41 291.603V285.656C1481.41 272.69 1487.35 265.422 1499.41 265.422C1501.97 265.422 1505.86 265.669 1509.08 266.248V250.886C1509.08 250.06 1509.74 249.317 1510.65 249.317H1514.86C1515.68 249.317 1516.34 249.977 1516.34 250.886V308.699ZM1509.08 305.148V272.359C1506.35 271.864 1502.06 271.781 1499.41 271.781C1491.32 271.781 1488.68 276.819 1488.68 285.656V291.603C1488.68 300.605 1491.24 305.643 1499.41 305.643C1502.22 305.643 1506.27 305.395 1509.08 305.148Z"/>
<path d="M1467.5 257.08C1467.5 257.989 1466.75 258.732 1465.85 258.732H1461.63C1460.73 258.732 1459.98 257.989 1459.98 257.08V250.473C1459.98 249.564 1460.73 248.821 1461.63 248.821H1465.85C1466.75 248.821 1467.5 249.564 1467.5 250.473V257.08ZM1467.33 309.773C1467.33 310.681 1466.59 311.425 1465.68 311.425H1461.72C1460.81 311.425 1460.07 310.681 1460.07 309.773V267.652C1460.07 266.743 1460.81 266 1461.72 266H1465.68C1466.59 266 1467.33 266.743 1467.33 267.652V309.773Z"/>
<path d="M1446.62 310.599C1446.62 311.012 1446.29 311.425 1445.55 311.425H1439.11C1438.36 311.425 1437.78 311.177 1437.29 310.599L1414 282.27V309.773C1414 310.599 1413.42 311.425 1412.51 311.425H1407.97C1407.14 311.425 1406.48 310.681 1406.48 309.773V251.629C1406.48 250.803 1407.14 250.06 1408.05 250.06H1412.43C1413.25 250.06 1414 250.721 1414 251.629V278.306L1437.78 250.803C1438.28 250.308 1438.61 250.06 1439.44 250.06H1445.38C1446.21 250.06 1446.54 250.473 1446.54 250.968C1446.54 251.216 1446.46 251.547 1446.21 251.794L1421.35 279.875L1446.21 309.608C1446.46 309.855 1446.62 310.268 1446.62 310.599Z"/>
<path d="M1790.29 187.295C1790.29 188.203 1789.71 188.699 1788.55 188.699C1784.75 188.699 1781.28 189.69 1777.15 192.167V226.773C1777.15 227.599 1776.41 228.425 1775.5 228.425H1771.46C1770.63 228.425 1769.89 227.681 1769.89 226.773V184.652C1769.89 183.743 1770.55 183 1771.46 183H1775.34C1776.25 183 1776.91 183.743 1776.91 184.652V186.386C1781.04 183.495 1784.84 182.422 1788.55 182.422C1789.71 182.422 1790.29 182.917 1790.29 183.908V187.295Z"/>
<path d="M1756.81 208.851C1756.81 220.991 1750.54 229.003 1738.4 229.003C1726.26 229.003 1720.06 220.991 1720.06 208.851V202.574C1720.06 190.433 1726.26 182.422 1738.4 182.422C1750.54 182.422 1756.81 190.433 1756.81 202.574V208.851ZM1749.55 208.851V202.574C1749.55 194.15 1746.16 188.781 1738.4 188.781C1730.72 188.781 1727.33 194.067 1727.33 202.574V208.851C1727.33 217.275 1730.63 222.643 1738.4 222.643C1746.08 222.643 1749.55 217.357 1749.55 208.851Z"/>
<path d="M1712.4 170.116C1712.4 171.024 1711.82 171.355 1710.91 171.355H1706.95C1703.07 171.355 1701.91 172.511 1701.91 177.053V183H1710.58C1711.49 183 1712.15 183.661 1712.15 184.486V187.708C1712.15 188.533 1711.49 189.112 1710.58 189.112H1701.91V226.773C1701.91 227.599 1701.17 228.425 1700.34 228.425H1696.3C1695.39 228.425 1694.64 227.599 1694.64 226.773V189.112L1686.63 188.203C1685.72 188.12 1685.06 187.542 1685.06 186.716V184.486C1685.06 183.661 1685.72 183 1686.63 183H1694.64V177.053C1694.64 168.216 1698.94 165.573 1706.21 165.573C1708.44 165.573 1709.76 165.821 1710.83 166.069C1711.74 166.317 1712.4 166.647 1712.4 167.39V170.116Z"/>
<path d="M1653.71 187.295C1653.71 188.203 1653.14 188.699 1651.98 188.699C1648.18 188.699 1644.71 189.69 1640.58 192.167V226.773C1640.58 227.599 1639.84 228.425 1638.93 228.425H1634.88C1634.06 228.425 1633.31 227.681 1633.31 226.773V184.652C1633.31 183.743 1633.98 183 1634.88 183H1638.77C1639.67 183 1640.33 183.743 1640.33 184.652V186.386C1644.46 183.495 1648.26 182.422 1651.98 182.422C1653.14 182.422 1653.71 182.917 1653.71 183.908V187.295Z"/>
<path d="M1620.07 206.208C1620.07 207.281 1619.5 208.025 1618.51 208.025H1590.84V209.181C1590.84 219.009 1594.72 222.643 1602.32 222.643C1607.11 222.643 1613.22 222.313 1617.02 221.735C1617.18 221.735 1617.27 221.735 1617.43 221.735C1618.09 221.735 1618.75 222.065 1618.75 222.891V225.699C1618.75 226.773 1618.42 227.351 1617.1 227.599C1612.39 228.507 1607.85 229.003 1602.32 229.003C1592.82 229.003 1583.57 224.543 1583.57 209.181V201.748C1583.57 189.937 1590.09 182.422 1601.9 182.422C1613.96 182.422 1620.07 190.02 1620.07 201.748V206.208ZM1612.72 202.491V201.748C1612.72 192.415 1609.17 188.781 1601.9 188.781C1594.8 188.781 1590.84 192.828 1590.84 201.748V202.491H1612.72Z"/>
<path d="M1574.06 227.186C1574.06 227.929 1573.65 228.425 1572.58 228.59C1570.92 228.838 1568.78 229.003 1567.21 229.003C1559.61 229.003 1555.98 227.021 1555.98 217.936V189.112L1547.96 188.203C1547.06 188.12 1546.39 187.625 1546.39 186.716V184.486C1546.39 183.578 1547.06 183 1547.96 183H1555.98V174.906C1555.98 174.08 1556.55 173.419 1557.46 173.254L1561.76 172.593C1561.84 172.593 1561.92 172.593 1562 172.593C1562.66 172.593 1563.24 173.172 1563.24 173.997V183H1572.16C1573.07 183 1573.81 183.743 1573.81 184.652V187.46C1573.81 188.368 1573.07 189.112 1572.16 189.112H1563.24V217.936C1563.24 222.478 1564.4 223.139 1567.7 223.139H1572.33C1573.48 223.139 1574.06 223.469 1574.06 224.295V227.186Z"/>
<path d="M1537.02 226.773C1537.02 227.681 1536.28 228.425 1535.37 228.425H1531.41C1530.5 228.425 1529.75 227.681 1529.75 226.773V199.601C1529.75 191.259 1526.95 188.699 1520.67 188.699C1517.2 188.699 1513.32 190.02 1509.52 191.92V226.773C1509.52 227.599 1508.78 228.425 1507.87 228.425H1503.82C1503 228.425 1502.25 227.681 1502.25 226.773V184.652C1502.25 183.743 1502.91 183 1503.82 183H1507.95C1508.86 183 1509.52 183.743 1509.52 184.652V186.221C1514.06 183.661 1517.78 182.422 1522.65 182.422C1532.56 182.422 1537.02 188.616 1537.02 199.601V226.773Z"/>
<path d="M1489.01 206.208C1489.01 207.281 1488.43 208.025 1487.44 208.025H1459.78V209.181C1459.78 219.009 1463.66 222.643 1471.26 222.643C1476.05 222.643 1482.16 222.313 1485.96 221.735C1486.12 221.735 1486.2 221.735 1486.37 221.735C1487.03 221.735 1487.69 222.065 1487.69 222.891V225.699C1487.69 226.773 1487.36 227.351 1486.04 227.599C1481.33 228.507 1476.79 229.003 1471.26 229.003C1461.76 229.003 1452.51 224.543 1452.51 209.181V201.748C1452.51 189.937 1459.03 182.422 1470.84 182.422C1482.9 182.422 1489.01 190.02 1489.01 201.748V206.208ZM1481.66 202.491V201.748C1481.66 192.415 1478.11 188.781 1470.84 188.781C1463.74 188.781 1459.78 192.828 1459.78 201.748V202.491H1481.66Z"/>
<path d="M1442.16 226.277C1442.16 227.268 1441.42 227.764 1440.51 227.929C1437.04 228.59 1433.82 229.003 1426.8 229.003C1416.64 229.003 1405 223.552 1405 203.482V192.002C1405 171.768 1416.64 166.482 1426.8 166.482C1432 166.482 1437.04 167.225 1440.67 167.803C1441.42 167.886 1442 168.134 1442 168.877V173.089C1442 173.585 1441.83 173.997 1441 173.997C1440.92 173.997 1440.84 173.997 1440.76 173.997C1437.78 173.75 1431.67 173.254 1426.88 173.254C1418.79 173.254 1412.51 177.962 1412.51 192.002V203.482C1412.51 217.358 1418.79 222.23 1426.88 222.23C1431.59 222.23 1437.54 221.817 1440.51 221.57C1440.59 221.57 1440.76 221.57 1440.84 221.57C1441.75 221.57 1442.16 221.983 1442.16 222.891V226.277Z"/>
<path d="M1272.11 201.83V176.67H1280.62L1284.36 195.762L1288.06 176.67H1296.49V201.83H1291.76V181.11H1291.09L1287.43 200.72H1281.17L1277.55 181.11H1276.84V201.83H1272.11Z"/>
<path d="M1254.21 181.11V176.67H1270.38V181.11H1264.91V201.83H1259.8V181.11H1254.21Z"/>
<rect x="1329.9" y="107.544" width="6.54688" height="257.043"/>
<path d="M1227.62 176.403V201.891C1227.62 201.891 1197.39 198.822 1177.67 198.822C1161.5 198.822 1154.65 201.166 1154.65 211.58C1154.65 220.076 1160.4 222.268 1183.15 225.831C1219.32 231.586 1232.15 241.091 1232.15 268.222C1232.15 300.287 1210.55 312.158 1176.84 312.158C1157.39 312.158 1125.6 306.129 1125.6 306.129V279.676C1125.6 279.676 1159.85 283.637 1173.83 283.637C1193.01 283.637 1199.94 279.96 1199.94 268.997C1199.94 260.228 1195.75 257.896 1173.83 254.333C1138.75 248.578 1122.09 240.921 1122.09 212.419C1122.09 181.177 1147.74 169.533 1175.14 169.533C1195.15 169.533 1227.62 176.403 1227.62 176.403Z"/>
<path d="M1070.61 173.753H1103.91V308.906H1070.61V302.37C1070.61 302.37 1049.01 312.158 1034.06 312.158C994.175 312.158 985.656 292.037 985.656 244.452V173.753H1017.96V244.18C1017.96 273.003 1019.55 283.818 1040.6 283.818C1052.79 283.818 1070.61 277.897 1070.61 277.897V173.753Z"/>
<path d="M924.768 308.655V135.631H958.307V308.655H924.768Z"/>
<path d="M888.577 215.417V271.872C888.851 281.464 891.866 284.205 899.813 285.575V311.352C876.488 312.158 870.215 308.87 861.994 302.566C861.994 302.566 838.425 312.158 817.323 312.158C791.288 312.158 776.121 295.585 776.121 268.453C776.121 239.129 793.754 228.846 823.352 226.653L857.335 223.913V215.691C857.335 205.003 851.378 200.288 840.964 200.288C820.684 200.288 784.863 202.221 784.863 202.221V175.601C784.863 175.601 820.684 170.316 840.964 170.316C871.11 170.316 888.577 181.708 888.577 215.417ZM856.427 249.354L827.189 249.948C815.404 251.044 808.501 255.897 808.501 267.133C808.501 278.644 814.308 284.291 823.352 284.291C837.877 284.291 856.427 279.93 856.427 279.93V249.354Z"/>
<path d="M668.545 308.861H636.465V173.459H668.545V180.242C668.545 180.242 690.776 170.202 706.253 170.202C745.369 170.202 755.218 192.453 755.218 238.039V308.861H723.138V238.311C723.138 212.533 719.761 199.237 700.062 199.237C687.681 199.237 668.545 205.478 668.545 205.478L668.545 308.861Z"/>
<path d="M561.587 283.173C583.494 283.173 612.482 281.112 612.482 281.112V305.732C612.482 305.732 586.914 311.868 556.95 311.868C515.077 311.868 496.046 294.574 496.046 243.011C496.046 191.448 518.382 169.575 556.927 169.575C596.305 169.575 616.546 189.463 616.546 231.942C616.546 240.831 615.279 255.014 615.279 255.014H528.642C528.919 275.02 539.125 283.173 561.587 283.173ZM528.743 229.763H584.516C584.516 205.92 576.616 198.283 556.927 198.283C537.238 198.283 528.743 207.016 528.743 229.763Z"/>
<path d="M409.27 308.919V190.48C409.27 190.48 432.25 182.028 442.058 179.436C451.867 176.844 461.671 175.492 484.886 171.435V204.116C461.559 207.609 442.058 212.342 442.058 212.342V308.919H409.27Z"/>
<path fill-rule="evenodd" clip-rule="evenodd" d="M206.51 2.11317C198.061 3.13732 183.723 5.95374 174.505 8.51411C165.288 11.0745 149.67 16.7073 139.94 21.316C130.211 25.6686 114.593 34.3739 105.375 40.5188C96.1578 46.6637 81.3076 59.4656 72.0903 68.683C62.8729 77.9004 50.5831 92.2385 44.6942 100.688C39.0614 109.137 30.8682 122.963 26.7716 131.412C22.4189 139.861 16.5301 153.944 13.4576 162.905C10.6412 171.61 6.28855 189.533 3.98421 202.335C1.1678 218.977 0.143647 233.571 1.42384 250.47C2.19195 264.552 5.52044 284.523 9.36101 297.837C13.2016 310.383 20.6267 329.585 26.5155 340.083C32.1484 350.581 42.6459 366.711 50.071 375.672C57.2401 384.89 70.042 397.692 78.4912 404.605C86.9405 411.518 103.071 421.503 114.337 427.136C125.602 432.513 141.22 438.402 148.902 439.938C156.583 441.73 172.201 443.266 183.467 443.01C196.781 443.01 209.839 440.962 220.592 437.633C229.81 434.561 242.611 428.16 249.525 423.295C256.181 418.431 265.143 409.469 269.239 403.324C273.592 397.435 278.969 386.17 281.273 378.489C282.514 373.834 284.179 369.455 284.943 365.834C286.053 360.58 285.831 355.253 287.681 355.253C289.531 355.253 291.388 360.195 293.819 364.407C296.721 369.434 307.389 386.938 316.606 405.373C325.568 423.807 335.809 448.387 339.394 460.421C342.978 472.455 347.036 485.437 348.316 494.654C349.852 503.872 351.105 511.496 351.874 518.153C352.898 527.626 351.097 538.685 354.149 538.685C363.562 538.685 367.046 536.464 372.679 532.623C378.055 528.783 386.249 520.59 390.601 514.189C394.954 507.788 400.587 498.57 402.891 493.706C404.939 488.841 408.268 477.831 410.06 469.382C411.852 460.421 412.621 446.595 411.852 436.097C410.828 425.344 407.5 411.006 403.147 400.252C399.051 390.522 389.321 372.6 381.64 360.566C373.703 348.532 353.22 320.88 336.065 299.117C319.167 277.354 301.244 251.238 296.379 241.508C288.442 225.378 287.93 223.074 291.003 217.185C292.795 213.6 303.805 199.774 315.326 186.46C327.104 173.146 339.138 158.04 342.466 153.175C345.539 148.311 350.147 137.301 352.452 128.852C355.524 117.842 356.292 109.393 355.012 99.4075C353.988 91.4704 349.379 77.1322 344.002 66.3786C337.345 52.8086 330.432 43.8473 320.447 34.886C312.766 27.973 299.452 19.2677 291.003 15.1711C282.553 11.3305 269.751 6.72185 262.838 5.18562C255.669 3.6494 243.636 1.85713 235.954 1.34506C228.273 0.832983 214.959 1.08902 206.51 2.11317ZM224.433 27.973C211.631 28.229 199.085 28.7411 196.269 29.5092C193.973 29.9266 187.085 32.045 179.624 34.3393C177.932 34.8598 176.21 35.3893 174.505 35.9102C165.288 38.9826 150.95 44.6154 142.501 48.712C134.051 52.8087 121.25 60.4898 114.337 65.8666C107.167 71.2434 96.4139 80.7168 90.269 86.8617C83.868 93.0066 74.1386 104.528 68.5057 112.209C62.8729 119.891 53.9116 135.509 48.5348 146.775C43.414 158.04 37.0131 174.171 34.9648 182.62C32.6605 191.069 29.844 206.687 28.5638 217.185C27.0276 229.219 27.2837 244.837 28.8199 259.431C30.1001 271.977 34.1967 290.668 37.5252 300.397C40.5976 310.127 47.7667 325.745 53.1435 334.962C58.5203 344.18 72.0903 360.822 83.612 372.344C99.9984 388.986 108.448 395.131 125.858 403.324C138.916 409.725 154.791 415.102 165.544 416.638C179.114 418.943 187.307 418.943 198.829 416.638C207.278 414.846 217.52 411.774 221.872 409.725C226.225 407.677 232.882 403.324 236.723 400.508C240.819 397.436 246.708 390.522 250.037 384.89C253.365 379.257 257.462 367.223 259.254 358.006C261.046 348.788 261.558 338.291 260.534 334.45C259.766 330.354 256.438 326.001 253.365 324.209C250.037 322.672 240.051 321.648 230.834 321.904C221.616 322.16 197.037 319.856 175.786 316.784C154.791 313.711 135.844 309.871 134.051 308.334C132.003 306.798 131.235 303.214 132.003 299.885C133.027 295.789 136.612 293.228 143.013 291.436C148.39 290.156 159.655 288.875 168.104 288.875C176.554 288.875 187.563 287.595 192.428 286.315C197.293 284.779 202.158 282.219 203.182 280.426C204.206 278.89 205.23 274.793 205.23 271.721C205.23 268.136 200.877 261.223 194.22 254.822C188.331 248.678 172.969 238.436 159.143 231.523C145.829 224.61 129.955 215.649 123.81 211.552C117.921 207.712 111.776 201.823 110.24 198.75C108.192 194.398 108.192 192.093 110.24 190.301C112.118 188.594 116.641 188.935 123.81 191.325C129.955 193.117 150.182 202.079 168.617 211.04C187.307 220.001 203.182 226.914 203.95 226.146C204.718 225.378 202.926 221.794 200.365 217.697C197.805 213.856 188.844 204.383 180.65 196.702C179.349 195.518 177.931 194.226 176.434 192.86C168.214 185.361 157.585 175.666 150.438 169.818C142.245 162.649 134.564 154.712 133.539 151.895C132.515 149.079 132.003 145.238 132.515 143.446C133.027 141.91 135.588 140.374 137.892 140.374C140.452 140.118 149.926 145.238 159.143 151.127C168.104 157.272 185.515 171.61 197.549 183.132C209.583 194.654 220.848 204.127 222.384 204.383C224.945 204.383 225.201 202.591 222.641 195.934C221.104 191.581 216.752 182.62 213.423 176.219C209.839 169.818 202.158 157.272 196.269 148.055C190.38 138.837 185.003 128.852 183.979 125.523C182.784 121.768 183.467 119.037 186.027 117.33C188.331 115.794 191.66 115.794 194.22 117.074C196.781 118.354 202.67 123.731 207.278 129.108C212.143 134.741 222.897 150.871 231.602 165.209C240.307 179.803 248.244 191.581 249.268 191.581C250.549 191.581 250.549 179.803 249.781 165.209C249.462 146.14 250.176 142.453 251.429 135.351C252.144 131.298 253.217 128.258 258.403 128.258C263.589 128.258 266.423 150.103 269.239 163.417C272.056 176.731 275.128 188.253 275.896 189.021C276.665 189.789 284.09 182.876 292.283 173.658C300.732 164.441 311.998 150.615 317.118 142.934C324.8 131.156 326.592 126.035 327.616 112.209C328.64 98.1273 327.872 93.2626 322.239 81.4849C318.655 73.8038 311.486 62.7941 305.853 57.4173C300.476 52.0405 291.515 44.8715 285.882 41.543C280.249 38.4705 269.239 34.1179 261.558 31.8135C252.853 29.2532 238.771 27.7169 224.433 27.973Z"/>
</svg>
