<svg viewBox="0 0 1024 425" fill="none" xmlns="http://www.w3.org/2000/svg">
<path d="M326.717 29.3175V29.7399C326.098 30.6974 325.703 30.9509 325.534 30.5003C325.365 29.9934 325.14 30.0497 324.859 30.6693C317.987 29.0921 311.143 28.1346 304.328 27.7967C297.456 27.4587 290.613 27.6559 283.797 28.3881C276.982 29.1766 270.223 30.0778 263.52 31.0917C256.817 32.1619 250.199 33.3166 243.665 34.5557C230.316 36.9777 217.023 39.5406 203.787 42.2442C190.55 45.0041 177.088 47.9049 163.401 50.9465C160.585 51.5661 157.402 52.1857 153.854 52.8052C150.249 53.4248 146.757 54.0163 143.377 54.5795C133.689 57.0578 123.861 59.7333 113.891 62.6059C103.978 65.5348 94.0361 69.1678 84.0665 73.5049C77.8143 75.0257 71.3369 77.2506 64.6341 80.1795C57.9314 83.1084 51.3131 86.4035 44.7794 90.0647C41.3435 91.6418 37.9921 93.3315 34.7252 95.134C31.4584 96.9927 27.9662 98.7106 24.2487 100.288C21.1508 102.09 17.7994 103.78 14.1945 105.357C10.5897 106.878 7.23832 106.709 4.14041 104.85C2.90125 103.893 1.83107 102.4 0.929862 100.372C-0.027674 98.3445 -0.168488 95.9507 0.507419 93.1907C3.60533 89.1353 6.87221 86.0937 10.3081 84.066C13.7439 82.0946 17.1798 80.1795 20.6157 78.3208C30.8669 72.8009 41.1464 67.7879 51.4539 63.2818C61.7052 58.8321 71.8157 54.4668 81.7853 50.1861C94.9092 43.9903 108.23 38.3577 121.748 33.2884C135.266 28.2191 148.897 23.3751 162.641 18.7564C169.794 16.954 176.638 15.2924 183.171 13.7716C189.705 12.2508 196.549 10.73 203.702 9.2092C217.051 6.44924 230.569 4.30886 244.257 2.78807C257.944 1.3236 271.8 0.619533 285.825 0.675859C288.923 1.29544 292.105 1.54893 295.372 1.43628C298.639 1.2673 302.131 1.52076 305.849 2.19667C310.186 3.43583 314.382 4.67499 318.437 5.91415C322.437 7.20964 326.464 10.1949 330.519 14.8699C330.519 15.4895 330.209 15.405 329.59 14.6165C328.97 13.8279 328.492 14.2222 328.154 15.7993C328.154 17.0385 328.548 17.8834 329.336 18.334C330.069 18.8409 330.125 19.2352 329.505 19.5168C329.505 20.1364 329.055 20.4462 328.154 20.4462C328.154 22.0233 328.21 22.9527 328.323 23.2343C328.492 23.5722 328.435 24.1918 328.154 25.093C327.816 26.0506 327.647 26.2195 327.647 25.6C327.647 24.9804 327.337 25.2902 326.717 26.5293C326.379 27.7685 326.464 28.4726 326.971 28.6415C327.421 28.7542 327.337 28.9795 326.717 29.3175Z" />
<path d="M57.7058 347.163C56.7482 347.445 55.9597 347.501 55.3401 347.332C54.7205 347.163 53.7911 347.078 52.552 347.078C50.6932 347.698 49.1443 347.867 47.9051 347.585C47.2292 347.585 46.3562 347.107 45.286 346.149C44.2158 345.192 43.3709 344.403 42.7513 343.783C41.1742 344.121 40.1603 343.981 39.7097 343.361C39.2591 342.685 38.724 342.037 38.1045 341.418C36.8653 339.897 36.3302 337.728 36.4992 334.912C36.6681 332.096 37.1469 328.913 37.9355 325.365C38.724 321.816 39.6816 318.24 40.8081 314.635C41.8783 311.086 42.8921 307.763 43.8497 304.665C45.4268 298.751 47.3982 292.217 49.7638 285.064C52.1295 277.911 54.2699 271.405 56.185 265.547C61.5359 251.578 66.2391 238.229 70.2946 225.5C74.4063 212.77 79.1377 200.209 84.4886 187.818C89.8395 174.75 94.8525 162.021 99.5275 149.629C104.259 137.181 109.3 125.071 114.651 113.299C116.848 107.385 119.213 101.33 121.748 95.134C124.226 88.9381 126.733 82.5733 129.267 76.0396C131.746 69.8437 134.252 63.8169 136.787 57.959C139.322 52.0449 141.378 46.1307 142.955 40.2165C143.236 38.6957 143.321 37.2312 143.208 35.8231C143.039 34.4149 143.264 32.9223 143.884 31.3452C145.123 29.4864 147.404 27.7967 150.728 26.2759C153.994 24.7551 156.698 23.8257 158.838 23.4877C161.936 22.9245 165.203 23.178 168.639 24.2482C172.075 25.3747 175.173 26.9518 177.933 28.9795C180.749 31.0072 182.918 33.4292 184.438 36.2455C185.959 39.0055 186.579 41.7936 186.297 44.6099C185.621 48.3273 184.129 51.5942 181.819 54.4105C179.454 57.1705 177.341 60.0994 175.483 63.1973C171.089 70.3507 167.006 77.7857 163.232 85.5023C159.458 93.2752 155.712 101.189 151.995 109.244C146.644 119.495 141.856 130.366 137.632 141.856C133.351 153.347 128.563 164.668 123.269 175.82C117.918 186.973 113.187 198.154 109.075 209.362C106.596 214.939 104.174 220.599 101.809 226.345C99.4431 232.09 97.4717 237.891 95.8945 243.749C93.9795 249.663 91.8391 255.493 89.4734 261.238C87.1641 266.983 84.7421 272.954 82.2074 279.15C80.0107 285.064 77.9548 290.894 76.0398 296.639C74.181 302.384 71.9843 308.045 69.4497 313.621C68.8301 315.48 67.9852 317.423 66.915 319.451C65.7885 321.422 64.9155 323.365 64.2959 325.28C62.7188 328.66 61.4514 332.209 60.4939 335.926C59.5364 339.643 58.607 343.389 57.7058 347.163Z" />
<path fill-rule="evenodd" clip-rule="evenodd" d="M217.136 277.798C214.601 279.375 211.869 280.53 208.94 281.262C206.011 282.051 203.139 282.895 200.323 283.797C196.605 284.698 192.409 285.627 187.734 286.585C183.059 287.486 178.384 287.852 173.709 287.683C169.034 287.514 164.612 286.557 160.444 284.81C156.276 283.064 152.784 280.164 149.967 276.108C147.827 273.292 146.616 269.884 146.334 265.885C145.996 261.83 146.306 257.69 147.264 253.465C148.221 249.297 149.573 245.129 151.319 240.961C153.009 236.737 154.811 232.935 156.726 229.555C158.304 228.316 159.543 226.767 160.444 224.908C161.401 223.049 162.049 221.5 162.387 220.261C168.921 212.488 175.708 205.053 182.749 197.956C189.79 190.803 197.027 185.227 204.462 181.228C207.898 179.087 211.475 177.229 215.192 175.651C218.966 174.131 222.402 172.61 225.5 171.089C226.739 170.469 227.753 169.85 228.542 169.23C229.33 168.611 230.513 168.301 232.09 168.301C243.243 168.357 250.537 170.329 253.973 174.215C257.352 178.102 259.042 181.932 259.042 185.706C258.704 186.945 257.606 188.325 255.747 189.845C253.888 191.423 252.48 192.972 251.523 194.492C249.945 196.069 248.537 197.534 247.298 198.886C246.059 200.294 245.13 201.617 244.51 202.857C232.006 213.671 219.53 223.247 207.082 231.583C203.927 234.061 199.787 235.751 194.662 236.652C189.536 237.61 184.326 237.75 179.031 237.074C177.173 238.933 175.314 241.327 173.455 244.256C171.54 247.241 170.047 250.339 168.977 253.55C167.851 256.817 167.372 260.084 167.541 263.35C167.654 266.617 168.949 269.349 171.427 271.546C177.68 272.222 183.143 271.63 187.818 269.772C192.437 267.913 196.943 266.364 201.336 265.125C204.772 264.223 208.349 263.153 212.066 261.914C215.784 260.731 219.051 259.52 221.867 258.281C228.401 255.183 233.78 252.705 238.004 250.846C242.172 248.987 246.143 247.298 249.917 245.777C253.635 244.256 257.521 242.566 261.577 240.708C265.632 238.849 270.786 236.23 277.038 232.85C281.995 230.372 287.036 227.837 292.161 225.246C297.343 222.599 302.272 220.036 306.947 217.558C307.341 217.276 307.651 217.051 307.876 216.882C308.102 216.825 308.411 216.741 308.806 216.628C309.087 216.685 309.453 216.544 309.904 216.206C310.411 215.924 310.805 215.783 311.087 215.783C313.903 215.783 315.762 216.009 316.663 216.459C317.621 216.91 318.015 217.698 317.846 218.825C317.677 219.895 317.057 221.134 315.987 222.542C314.861 223.951 313.678 225.584 312.439 227.443C312.777 227.443 312.382 227.809 311.256 228.541C310.186 229.33 308.946 230.118 307.538 230.907C306.13 231.639 304.328 232.794 302.131 234.371C298.695 236.849 294.499 239.468 289.542 242.228C284.586 244.988 279.601 247.692 274.588 250.339C269.631 252.93 264.956 255.324 260.563 257.521C256.226 259.661 252.959 261.182 250.762 262.083L217.136 277.798ZM307.876 216.882C307.257 216.994 306.947 216.994 306.947 216.882C306.947 216.713 307.088 216.572 307.369 216.459C307.707 216.29 307.961 216.29 308.13 216.459C308.186 216.516 308.102 216.656 307.876 216.882ZM183.763 229.639C186.579 229.639 189.311 228.879 191.958 227.358C194.605 225.838 197.168 224.289 199.647 222.711C205.899 217.755 212.292 212.263 218.825 206.236C225.416 200.209 231.358 194.098 236.653 187.902C237.272 187.902 237.582 187.452 237.582 186.55C226.373 190.55 216.488 196.407 207.926 204.124C199.309 211.841 191.254 220.346 183.763 229.639Z" />
<path d="M409.517 183.086C408.897 183.988 408.672 184.748 408.841 185.368C408.954 185.987 408.39 186.607 407.151 187.226C407.151 187.846 406.701 188.156 405.799 188.156C405.123 189.733 403.941 190.662 402.251 190.944C400.561 191.282 399.097 192.211 397.857 193.732C391.605 195.591 385.043 197.9 378.172 200.66C371.356 203.42 364.738 206.405 358.317 209.616C351.952 212.883 346.122 216.206 340.828 219.585C335.533 222.965 331.478 226.373 328.661 229.808C326.183 232.287 323.536 234.906 320.719 237.666C317.903 240.482 315.397 243.58 313.2 246.96C312.242 249.438 311.229 252.564 310.158 256.338C309.032 260.055 307.99 263.688 307.032 267.237C306.075 270.785 305.061 273.968 303.991 276.784C302.864 279.6 301.85 281.318 300.949 281.938C300.273 283.177 299.006 284.867 297.147 287.007C295.288 289.204 293.739 290.133 292.5 289.795C287.825 291.936 283.854 291.598 280.587 288.781C277.321 285.965 276.166 282.079 277.123 277.122C277.799 274.024 279.236 269.377 281.432 263.181C283.629 256.986 285.037 252.17 285.657 248.734V248.227C285.995 247.326 286.164 246.396 286.164 245.439C288.642 241.102 290.67 236.624 292.247 232.005C293.824 227.33 295.711 222.824 297.908 218.487C297.908 218.149 298.161 217.924 298.668 217.811C299.119 217.642 299.344 217.389 299.344 217.051C300.921 210.855 302.892 204.744 305.258 198.717C307.624 192.634 309.736 186.804 311.595 181.228C311.933 179.988 312.411 179.059 313.031 178.44C313.651 177.82 314.27 177.06 314.89 176.158C316.467 175.539 317.791 174.919 318.861 174.3C319.931 173.68 321.114 173.37 322.409 173.37C323.029 172.751 323.789 172.441 324.69 172.441C325.31 172.441 326.014 172.525 326.803 172.694C327.591 172.863 328.295 172.948 328.915 172.948C331.675 173.229 333.674 174.328 334.914 176.243C338.631 181.199 338.321 185.846 333.984 190.183C333.646 192.662 333.083 195.14 332.294 197.618C331.506 200.097 330.943 202.265 330.605 204.124C341.532 196.126 352.29 190.578 362.879 187.48C373.468 184.438 383.269 182.636 392.281 182.072C394.759 181.735 397.632 181.425 400.899 181.143C404.166 180.862 407.039 181.509 409.517 183.086Z" />
<path d="M518.168 183.509C517.549 184.466 517.323 185.255 517.492 185.875C517.605 186.494 517.042 187.114 515.803 187.733C515.803 188.353 515.352 188.663 514.451 188.663C513.775 190.183 512.592 191.113 510.902 191.451C509.212 191.732 507.72 192.662 506.424 194.239C500.229 196.041 493.695 198.322 486.823 201.082C480.008 203.899 473.389 206.912 466.968 210.123C460.603 213.333 454.774 216.656 449.479 220.092C444.184 223.472 440.129 226.851 437.313 230.231C434.778 232.766 432.131 235.413 429.371 238.173C426.555 240.933 424.048 244.031 421.851 247.467C420.894 249.945 419.852 253.043 418.725 256.76C417.655 260.478 416.641 264.139 415.684 267.744C414.726 271.292 413.712 274.475 412.642 277.291C411.516 280.051 410.474 281.741 409.516 282.36C408.896 283.6 407.657 285.317 405.799 287.514C403.94 289.654 402.391 290.584 401.152 290.302C396.477 292.443 392.506 292.105 389.239 289.288C385.972 286.472 384.817 282.586 385.775 277.629C386.394 274.531 387.831 269.856 390.084 263.604C392.28 257.408 393.689 252.62 394.308 249.241V248.734C394.646 247.833 394.815 246.903 394.815 245.946C397.293 241.609 399.321 237.103 400.898 232.428C402.475 227.809 404.362 223.303 406.559 218.909C406.559 218.628 406.784 218.403 407.235 218.234C407.742 218.121 407.995 217.896 407.995 217.558C409.572 211.362 411.544 205.222 413.909 199.139C416.275 193.112 418.387 187.311 420.246 181.735C420.584 180.495 421.063 179.566 421.682 178.946C422.302 178.327 422.922 177.538 423.541 176.581C425.118 175.961 426.442 175.342 427.512 174.722C428.582 174.102 429.737 173.793 430.976 173.793C431.596 173.173 432.384 172.863 433.342 172.863C433.961 172.92 434.665 173.004 435.454 173.117C436.243 173.286 436.947 173.37 437.566 173.37C440.326 173.708 442.326 174.807 443.565 176.665C447.282 181.678 446.973 186.353 442.636 190.69C442.298 193.169 441.734 195.647 440.946 198.125C440.157 200.604 439.594 202.772 439.256 204.631C450.183 196.576 460.941 191.028 471.531 187.987C482.12 184.945 491.92 183.115 500.933 182.495C503.411 182.213 506.283 181.932 509.55 181.65C512.817 181.368 515.69 181.988 518.168 183.509Z" />
<path d="M730.149 248.48C735.894 246.368 755.327 245.523 759.889 245.861C764.367 246.199 752.792 247.298 753.637 249.325C754.538 251.297 752.961 253.747 748.906 256.676C744.766 259.548 751.525 262.59 740.372 265.632C739.781 265.97 741.555 267.575 737.838 268.504C734.036 269.349 698.128 274.587 692.89 276.193C687.567 277.882 657.996 283.966 653.349 285.148C648.674 286.388 644.816 286.697 641.774 286.078C640.873 286.021 639.831 286.162 638.648 286.5C637.409 286.782 636.198 286.613 635.015 285.993C634.114 286.613 632.678 287.064 630.706 287.345C628.735 287.683 627.017 288.162 625.553 288.781C624.032 288.106 622.286 288.077 620.314 288.697C618.343 289.317 616.456 289.317 614.654 288.697C613.752 288.979 612.626 288.753 611.274 288.021C609.922 287.233 608.486 286.359 606.965 285.402C605.163 285.12 604.346 284.67 604.515 284.05C604.684 283.431 604.318 282.642 603.417 281.684C601.614 275.827 601.868 270.194 604.177 264.787C606.43 259.436 609.753 254.451 614.147 249.832C618.54 245.214 623.243 241.074 628.256 237.412C633.213 233.695 637.353 230.315 640.676 227.274C641.014 226.654 642 225.64 643.633 224.232C645.323 222.88 647.069 221.36 648.871 219.67C650.674 217.98 652.42 216.516 654.11 215.277C655.743 214.037 656.729 213.418 657.067 213.418C657.63 212.517 658.306 211.841 659.094 211.39C659.827 210.939 660.503 210.404 661.122 209.785C662.023 207.926 662.868 206.687 663.657 206.067C664.389 205.448 665.121 205.082 665.854 204.969C666.642 204.8 667.487 204.406 668.388 203.786C669.289 203.167 670.36 201.927 671.599 200.069C673.401 198.266 675.204 196.52 677.006 194.83C678.808 193.141 680.329 191.676 681.568 190.437C682.751 189.198 683.427 188.184 683.596 187.395C683.765 186.663 682.779 186.269 680.639 186.213C677.316 186.213 673.542 186.832 669.318 188.071C665.093 189.254 660.869 190.775 656.644 192.634C652.42 194.436 648.505 196.351 644.9 198.379C641.296 200.35 638.423 202.265 636.283 204.124L634.931 205.053C634.03 206.574 632.65 207.785 630.791 208.686C628.988 209.644 627.045 210.095 624.961 210.038C622.821 210.038 620.793 209.588 618.878 208.686C616.907 207.729 615.611 205.87 614.992 203.11C613.809 197.816 614.287 193.563 616.428 190.352C618.568 187.142 621.525 184.466 625.299 182.326C629.073 180.186 633.157 178.665 637.55 177.764C641.887 176.862 645.717 176.102 649.04 175.482C652.082 175.201 656.982 174.3 663.741 172.779C670.557 171.258 677.569 169.822 684.779 168.47C692.045 167.118 698.776 166.217 704.972 165.766C711.111 165.316 715.082 166.189 716.885 168.385C719.588 172.103 720.264 176.187 718.912 180.636C717.504 185.086 714.857 188.381 710.97 190.521C710.013 193.957 707.732 196.745 704.127 198.886C704.127 200.125 702.916 200.716 700.494 200.66C699.874 203.138 698.663 205.138 696.861 206.659C695.058 208.236 693.256 209.306 691.454 209.869C686.272 213.587 680.583 217.727 674.387 222.289C668.191 226.908 662.221 232.146 656.475 238.004C649.829 244.763 644.309 249.663 639.916 252.705C635.522 255.746 628.51 263.604 627.834 266.054C639.324 263.35 650.195 261.013 660.446 259.042C670.698 257.07 679.597 255.493 687.145 254.31C694.692 253.127 700.578 252.395 704.803 252.114C709.027 251.776 711.139 251.776 711.139 252.114C711.421 252.114 712.547 251.973 714.519 251.691C716.49 251.353 718.687 250.902 721.109 250.339L730.149 248.48Z" />
<path d="M872.259 246.537C869.133 246.875 865.753 247.72 862.12 249.072L853.08 250.846C850.658 251.466 848.461 251.916 846.49 252.198C844.575 252.536 843.448 252.705 843.11 252.705C843.11 252.367 840.998 252.339 836.773 252.62C832.549 252.958 826.663 253.719 819.115 254.902C811.568 256.084 802.668 257.662 792.417 259.633C782.166 261.604 771.323 263.942 759.889 266.645C760.48 264.195 767.493 256.338 771.886 253.296C776.28 250.255 781.8 245.354 788.446 238.595C794.191 232.737 800.19 227.499 806.442 222.88C812.582 218.318 818.242 214.178 823.424 210.461C825.227 209.897 827.029 208.827 828.832 207.25C830.634 205.729 831.845 203.73 832.465 201.251C834.887 201.251 836.097 200.632 836.097 199.393C839.759 197.309 842.04 194.549 842.941 191.113C846.884 188.972 849.531 185.677 850.883 181.228C852.291 176.778 851.643 172.694 848.94 168.977C847.137 166.78 843.138 165.907 836.942 166.358C830.747 166.808 824.044 167.709 816.834 169.061C809.568 170.413 802.556 171.849 795.797 173.37C788.981 174.891 784.053 175.792 781.011 176.074C777.688 176.637 773.858 177.369 769.521 178.271C765.127 179.228 761.044 180.777 757.27 182.917C753.496 185.058 750.539 187.733 748.399 190.944C746.314 194.154 745.864 198.407 747.047 203.702C747.61 206.462 748.877 208.292 750.849 209.193C752.82 210.151 754.848 210.63 756.932 210.63C759.016 210.63 760.987 210.179 762.846 209.278C764.648 208.377 766 207.166 766.901 205.645L768.253 204.715C770.394 202.857 773.266 200.942 776.871 198.97C780.476 196.943 784.419 195.027 788.699 193.225C792.924 191.366 797.148 189.845 801.373 188.663C805.597 187.423 809.371 186.804 812.694 186.804C814.778 186.86 815.736 187.255 815.567 187.987C815.398 188.775 814.722 189.789 813.539 191.028C812.356 192.267 810.835 193.704 808.977 195.337C807.174 197.083 805.372 198.858 803.569 200.66C802.33 202.519 801.26 203.758 800.359 204.378C799.458 204.997 798.641 205.363 797.909 205.476C797.12 205.645 796.36 206.039 795.628 206.659C794.839 207.278 793.994 208.517 793.093 210.376C792.473 210.996 791.797 211.531 791.065 211.981C790.333 212.432 789.657 213.108 789.037 214.009C788.7 214.009 787.714 214.629 786.08 215.868C784.391 217.107 782.644 218.572 780.842 220.261C779.04 221.951 777.294 223.472 775.604 224.824C773.97 226.232 773.013 227.246 772.731 227.865C769.352 230.907 765.184 234.286 760.227 238.004C755.214 241.665 750.511 245.805 746.117 250.424C741.724 255.042 738.401 260.027 736.148 265.378C733.838 270.785 733.585 276.418 735.387 282.276C736.289 283.233 736.655 284.022 736.486 284.642C736.317 285.205 737.161 285.655 739.02 285.993C740.485 286.951 741.893 287.796 743.245 288.528C744.596 289.317 745.723 289.57 746.624 289.288C748.427 289.908 750.314 289.908 752.285 289.288C754.256 288.669 756.002 288.669 757.523 289.288C759.044 288.725 760.762 288.275 762.677 287.937C764.648 287.655 766.085 287.204 766.986 286.585C768.225 287.204 769.436 287.373 770.619 287.092C771.858 286.754 772.928 286.585 773.83 286.585C776.815 287.261 780.645 286.979 785.32 285.74C789.995 284.501 794.98 283.064 800.274 281.431C805.569 279.741 810.554 278.051 815.229 276.362C819.904 274.728 823.762 273.602 826.804 272.982C825.565 273.264 826.381 273.123 829.254 272.56C832.127 271.94 835.591 271.236 839.646 270.447C843.702 269.715 847.616 268.899 851.39 267.997C855.164 267.096 857.36 266.477 857.98 266.139C860.515 265.463 862.711 264.787 864.824 264.111C865.246 257.605 867.696 251.184 872.259 246.537Z" />
<path d="M1007.53 238.849C1016.26 235.526 1021.44 234.568 1023.07 235.976C1024.7 237.384 1023.89 239.44 1020.62 242.144C1019.66 243.045 1018.54 243.665 1017.24 244.003C1015.89 244.284 1014.74 245.664 1013.78 248.143C1009.27 252.085 1006.12 254.592 1004.31 255.662C1002.51 256.732 1001.3 257.098 1000.68 256.76C995.894 258.901 991.529 261.633 987.586 264.956C983.7 268.335 979.729 271.377 975.673 274.081C971.618 276.84 967.253 278.981 962.578 280.502C957.903 282.022 952.439 281.994 946.187 280.417C945.567 280.417 944.891 280.192 944.159 279.741C943.37 279.234 942.526 278.84 941.624 278.558C938.977 277.319 937.118 275.855 936.048 274.165C934.978 272.475 934.02 270.56 933.176 268.42C932.556 265.941 932.19 262.956 932.077 259.464C931.908 255.915 932.134 252.311 932.753 248.649C932.19 248.368 931.824 248.452 931.655 248.903C931.486 249.354 931.26 249.579 930.979 249.579C930.359 249.861 929.768 250.227 929.205 250.677C928.585 251.128 927.825 251.663 926.923 252.282C925.403 254.141 923.966 255.831 922.614 257.352C921.263 258.873 919.545 260.084 917.461 260.985C916.841 262.224 915.996 263.125 914.926 263.688C913.856 264.308 913.039 264.928 912.476 265.547C912.138 265.547 912.053 265.772 912.222 266.223C912.391 266.674 912.307 266.899 911.969 266.899C911.406 267.237 910.504 267.631 909.265 268.082C908.082 268.532 907.181 269.208 906.562 270.11C899.634 275.01 892.283 279.122 884.51 282.445C882.37 283.966 880.173 285.261 877.92 286.331C875.667 287.402 873.499 287.768 871.415 287.43C869.894 287.43 868.626 287.43 867.613 287.43C866.542 287.43 865.247 287.12 863.726 286.5C861.36 286.162 858.967 285.909 856.545 285.74C854.179 285.571 852.236 284.557 850.715 282.698C847.448 280.558 846.575 276.587 848.096 270.785C848.096 270.504 848.237 270.363 848.518 270.363C848.8 270.363 848.941 270.053 848.941 269.434C849.279 266.054 850.264 262.9 851.898 259.971C853.587 257.098 855.334 254.451 857.136 252.029C859.558 247.748 862.29 243.777 865.331 240.116C868.317 236.455 871.161 232.625 873.865 228.626C876.287 226.542 880.06 223.049 885.186 218.149C890.312 213.249 895.747 208.292 901.492 203.279C907.181 198.266 912.448 193.845 917.292 190.015C922.079 186.241 925.374 184.185 927.177 183.847C930.5 182.382 933.147 180.495 935.119 178.186C937.09 175.877 940.16 174.131 944.328 172.948C944.666 172.948 944.835 172.863 944.835 172.694C944.835 172.582 944.976 172.525 945.257 172.525C945.877 172.525 946.553 172.582 947.285 172.694C948.017 172.863 948.693 172.638 949.313 172.018C951.115 172.976 953.227 173.455 955.649 173.455C956.832 174.976 958.156 176.44 959.62 177.848C961.141 179.2 961.902 180.805 961.902 182.664C962.803 183.565 962.944 184.776 962.324 186.297C961.704 187.874 960.803 188.944 959.62 189.508C958.719 190.465 957.649 190.859 956.41 190.69C955.227 190.521 954.044 190.747 952.861 191.366C949.82 192.549 946.947 194.38 944.244 196.858L938.836 200.491L937.907 201.42C937.006 201.364 936.048 201.589 935.034 202.096C933.964 202.547 933.119 203.673 932.5 205.476C930.078 206.095 927.684 207.25 925.318 208.94C922.896 210.573 920.474 212.15 918.052 213.671C916.531 215.192 915.18 216.488 913.997 217.558C912.814 218.628 911.462 219.783 909.941 221.022C907.519 223.162 904.956 225.443 902.253 227.865C899.549 230.287 896.986 232.709 894.564 235.131C893.044 236.37 891.607 237.835 890.255 239.525C888.904 241.214 887.186 242.51 885.102 243.411C885.102 244.65 884.482 245.721 883.243 246.622V247.044V247.551C881.44 248.452 880.032 249.748 879.018 251.438C877.948 253.071 876.794 254.648 875.554 256.169C874.935 258.929 873.724 261.379 871.921 263.519C870.119 265.66 869.077 267.969 868.795 270.447C871.781 269.546 874.174 268.166 875.977 266.308C886.228 260.224 896.001 253.775 905.294 246.96C914.644 240.088 924.304 232.85 934.274 225.246C936.978 222.824 939.597 220.853 942.131 219.332C944.666 217.811 947.144 215.361 949.566 211.982H950.918V211.559C951.256 210.658 951.707 209.897 952.27 209.278C952.889 208.658 953.368 207.729 953.706 206.49C953.988 205.87 954.129 205.11 954.129 204.209C954.129 203.307 954.438 202.547 955.058 201.927C955.959 201.646 957.001 201.505 958.184 201.505C959.367 201.505 960.268 201.505 960.888 201.505H966.717C967.957 202.125 969.618 202.913 971.702 203.871C973.786 204.772 974.828 206.912 974.828 210.292C973.927 213.052 972.632 215.643 970.942 218.065C969.308 220.487 967.562 223.078 965.704 225.838C965.14 228.598 964.098 231.048 962.578 233.188V235.469C961.338 236.089 960.409 237.469 959.789 239.609C959.508 241.13 959.282 242.341 959.113 243.242C959.001 244.2 958.466 245.58 957.508 247.382L954.805 257.521C954.805 261.464 955.537 263.745 957.001 264.364C958.522 264.984 960.409 264.843 962.662 263.942C964.915 263.041 967.393 261.745 970.097 260.055C972.801 258.422 975.194 257.126 977.278 256.169C982.404 254.367 987.671 251.635 993.078 247.974C998.485 244.369 1003.3 241.327 1007.53 238.849Z" />
<path fill-rule="evenodd" clip-rule="evenodd" d="M557.793 281.346C555.315 282.867 552.583 284.022 549.598 284.81C546.669 285.543 543.797 286.388 540.98 287.345C537.263 288.246 533.067 289.148 528.392 290.049C523.716 290.95 519.041 291.316 514.366 291.147C509.691 290.978 505.27 290.021 501.102 288.275C496.934 286.585 493.441 283.712 490.625 279.657C488.485 276.84 487.274 273.405 486.992 269.349C486.711 265.294 487.02 261.182 487.922 257.014C488.879 252.846 490.231 248.649 491.977 244.425C493.723 240.257 495.526 236.455 497.384 233.019C498.961 231.78 500.201 230.231 501.102 228.372C502.059 226.513 502.707 224.965 503.045 223.725C509.579 216.009 516.366 208.574 523.407 201.42C530.447 194.323 537.685 188.775 545.12 184.776C548.556 182.58 552.161 180.721 555.935 179.2C559.652 177.679 563.06 176.13 566.158 174.553C567.397 173.99 568.411 173.398 569.199 172.779C569.988 172.159 571.171 171.849 572.748 171.849C583.9 171.906 591.195 173.877 594.63 177.764C598.01 181.65 599.7 185.452 599.7 189.17C599.362 190.409 598.263 191.817 596.405 193.394C594.546 194.915 593.138 196.464 592.18 198.041C590.603 199.562 589.195 201.026 587.956 202.434C586.717 203.842 585.787 205.166 585.168 206.405C572.663 217.22 560.187 226.795 547.739 235.131C544.641 237.61 540.501 239.299 535.32 240.201C530.194 241.102 525.012 241.243 519.774 240.623C517.859 242.482 515.972 244.876 514.113 247.805C512.254 250.734 510.762 253.831 509.635 257.098C508.509 260.365 508.03 263.632 508.199 266.899C508.311 270.166 509.607 272.898 512.085 275.094C518.337 275.714 523.801 275.094 528.476 273.236C533.151 271.433 537.657 269.912 541.994 268.673C545.43 267.772 549.007 266.702 552.724 265.463C556.442 264.224 559.709 262.984 562.525 261.745C569.059 258.704 574.438 256.253 578.662 254.395C582.887 252.536 586.858 250.846 590.575 249.325C594.292 247.748 598.179 246.058 602.234 244.256C606.29 242.397 611.444 239.778 617.696 236.399C622.652 233.92 627.694 231.358 632.819 228.71C638.001 226.119 642.93 223.585 647.605 221.106C648.055 220.825 648.365 220.571 648.534 220.346C648.816 220.346 649.126 220.289 649.463 220.177C649.745 220.177 650.139 220.036 650.646 219.754C651.097 219.416 651.463 219.247 651.745 219.247C654.561 219.247 656.448 219.501 657.405 220.008C658.307 220.459 658.673 221.219 658.504 222.289C658.335 223.416 657.715 224.655 656.645 226.007C655.575 227.415 654.392 229.048 653.096 230.907C653.434 230.907 653.068 231.301 651.998 232.09C650.872 232.878 649.604 233.639 648.196 234.371C646.788 235.159 645.014 236.314 642.873 237.835C639.438 240.313 635.213 242.961 630.2 245.777C625.243 248.537 620.259 251.212 615.246 253.803C610.289 256.451 605.614 258.844 601.221 260.985C596.883 263.181 593.617 264.73 591.42 265.632L557.793 281.346ZM648.534 220.43C647.914 220.543 647.605 220.543 647.605 220.43C647.605 220.261 647.746 220.092 648.027 219.923C648.365 219.811 648.619 219.811 648.788 219.923C648.844 220.036 648.759 220.205 648.534 220.43ZM524.421 233.188C527.237 233.188 529.969 232.428 532.616 230.907C535.263 229.33 537.826 227.781 540.304 226.26C546.557 221.303 552.949 215.812 559.483 209.785C566.073 203.758 572.016 197.647 577.31 191.451C577.93 191.451 578.24 190.972 578.24 190.015C567.031 194.014 557.146 199.871 548.584 207.588C539.966 215.361 531.912 223.894 524.421 233.188Z" />
<path fill-rule="evenodd" clip-rule="evenodd" d="M462.068 356.879C467.644 356.879 471.981 358.485 475.079 361.695C478.233 364.849 479.81 369.215 479.81 374.791C479.81 380.367 478.233 384.761 475.079 387.971C471.981 391.125 467.644 392.702 462.068 392.702C456.548 392.702 452.211 391.125 449.057 387.971C445.902 384.761 444.325 380.367 444.325 374.791C444.325 369.215 445.902 364.849 449.057 361.695C452.211 358.485 456.548 356.879 462.068 356.879ZM462.068 363.385C459.364 363.385 457.28 364.371 455.816 366.342C454.295 368.37 453.534 371.186 453.534 374.791C453.534 378.452 454.295 381.268 455.816 383.24C457.28 385.267 459.364 386.281 462.068 386.281C464.828 386.281 466.94 385.267 468.404 383.24C469.925 381.268 470.686 378.452 470.686 374.791C470.686 371.186 469.925 368.37 468.404 366.342C466.94 364.371 464.828 363.385 462.068 363.385ZM496.032 392.027V357.555H510.733C515.126 357.555 518.506 358.513 520.872 360.428C523.237 362.399 524.42 365.187 524.42 368.792C524.42 372.397 523.237 375.185 520.872 377.157C518.506 379.072 515.126 380.029 510.733 380.029H504.903V392.027H496.032ZM509.888 363.976H504.903V373.608H509.888C511.578 373.608 512.902 373.186 513.859 372.341C514.817 371.496 515.295 370.313 515.295 368.792C515.295 367.271 514.817 366.089 513.859 365.244C512.902 364.399 511.578 363.976 509.888 363.976ZM536.08 364.23V357.555H567.847V364.23H556.441V392.027H547.486V364.23H536.08ZM585.505 392.027V357.555H594.377V392.027H585.505ZM643.464 382.986V390.168C641.831 391.013 640.141 391.632 638.395 392.027C636.649 392.477 634.79 392.702 632.819 392.702C627.074 392.702 622.54 391.097 619.216 387.887C615.837 384.676 614.147 380.311 614.147 374.791C614.147 369.271 615.837 364.934 619.216 361.78C622.54 358.513 627.074 356.879 632.819 356.879C634.79 356.879 636.649 357.105 638.395 357.555C640.141 358.006 641.831 358.654 643.464 359.499V366.596C641.831 365.469 640.226 364.652 638.649 364.145C637.015 363.638 635.325 363.385 633.579 363.385C630.425 363.385 627.919 364.399 626.06 366.427C624.257 368.454 623.356 371.242 623.356 374.791C623.356 378.339 624.257 381.156 626.06 383.24C627.919 385.267 630.425 386.281 633.579 386.281C635.325 386.281 637.015 386 638.649 385.436C640.226 384.93 641.831 384.113 643.464 382.986ZM686.976 392.027L684.779 385.774H670.923L668.727 392.027H659.771L672.528 357.555H683.174L695.932 392.027H686.976ZM677.851 365.582L673.12 379.353H682.583L677.851 365.582ZM713.505 391.942V357.471H722.377V385.267H738.007V391.942H713.505ZM817.173 372.848V389.407C814.92 390.478 812.61 391.294 810.245 391.858C807.823 392.365 805.344 392.618 802.81 392.618C797.064 392.618 792.53 391.013 789.207 387.802C785.827 384.592 784.138 380.254 784.138 374.791C784.138 369.215 785.856 364.821 789.291 361.611C792.671 358.456 797.346 356.879 803.317 356.879C805.626 356.879 807.823 357.076 809.907 357.471C811.991 357.921 813.99 358.569 815.905 359.414V366.596C813.934 365.469 811.991 364.652 810.076 364.145C808.217 363.582 806.33 363.3 804.415 363.3C800.866 363.3 798.135 364.286 796.22 366.258C794.305 368.229 793.347 371.073 793.347 374.791C793.347 378.452 794.276 381.268 796.135 383.24C797.994 385.211 800.613 386.197 803.992 386.197C804.894 386.197 805.739 386.141 806.527 386.028C807.372 385.915 808.104 385.746 808.724 385.521V378.762H803.232V372.848H817.173ZM849.447 378.931H846.913V391.942H838.041V357.471H851.644C856.206 357.471 859.53 358.231 861.614 359.752C863.754 361.273 864.824 363.695 864.824 367.018C864.824 369.271 864.261 371.13 863.134 372.594C862.064 374.059 860.403 375.157 858.15 375.889C859.389 376.115 860.487 376.734 861.445 377.748C862.402 378.706 863.388 380.17 864.402 382.141L869.218 391.942H859.755L855.53 383.409C854.686 381.663 853.813 380.48 852.911 379.86C852.066 379.241 850.912 378.931 849.447 378.931ZM846.913 372.763H850.715C852.573 372.763 853.897 372.425 854.686 371.749C855.53 371.073 855.953 369.919 855.953 368.285C855.953 366.765 855.53 365.666 854.686 364.99C853.897 364.258 852.573 363.892 850.715 363.892H846.913V372.763ZM903.266 356.879C908.786 356.879 913.123 358.456 916.278 361.611C919.432 364.821 921.009 369.215 921.009 374.791C921.009 380.367 919.432 384.732 916.278 387.887C913.123 391.097 908.786 392.702 903.266 392.702C897.747 392.702 893.409 391.097 890.255 387.887C887.101 384.732 885.524 380.367 885.524 374.791C885.524 369.215 887.101 364.821 890.255 361.611C893.409 358.456 897.747 356.879 903.266 356.879ZM903.266 363.3C900.563 363.3 898.451 364.314 896.93 366.342C895.465 368.313 894.733 371.13 894.733 374.791C894.733 378.396 895.465 381.212 896.93 383.24C898.451 385.211 900.563 386.197 903.266 386.197C905.97 386.197 908.082 385.211 909.603 383.24C911.068 381.212 911.8 378.396 911.8 374.791C911.8 371.13 911.068 368.313 909.603 366.342C908.082 364.314 905.97 363.3 903.266 363.3ZM940.695 378.17V357.471H949.651V378.17C949.651 381.043 950.101 383.099 951.002 384.338C951.96 385.521 953.481 386.112 955.565 386.112C957.705 386.112 959.226 385.521 960.127 384.338C961.085 383.099 961.563 381.043 961.563 378.17V357.471H970.435V378.17C970.435 383.071 969.224 386.704 966.802 389.069C964.323 391.491 960.578 392.702 955.565 392.702C950.552 392.702 946.834 391.491 944.412 389.069C941.934 386.704 940.695 383.071 940.695 378.17ZM992.148 392.027V357.471H1006.93C1011.33 357.471 1014.68 358.456 1016.99 360.428C1019.35 362.399 1020.54 365.187 1020.54 368.792C1020.54 372.397 1019.35 375.185 1016.99 377.157C1014.68 379.072 1011.33 380.029 1006.93 380.029H1001.02V392.027H992.148ZM1006 363.976H1001.1V373.608H1006C1007.75 373.608 1009.07 373.186 1009.98 372.341C1010.93 371.496 1011.41 370.313 1011.41 368.792C1011.41 367.215 1010.93 366.032 1009.98 365.244C1009.07 364.399 1007.75 363.976 1006 363.976Z" />
<path fill-rule="evenodd" clip-rule="evenodd" d="M412.557 335.081C412.557 336.546 412.557 338.038 412.557 339.559C412.473 340.827 411.712 341.756 410.361 341.925C409.91 341.981 409.488 342.009 409.093 342.009H408.755H403.94C400.391 342.009 397.941 343.868 396.758 347.501C396.251 348.937 396.167 350.374 396.082 351.979C396.082 352.542 396.054 353.105 395.998 353.669C395.885 355.077 395.8 356.485 395.744 357.893C395.66 359.498 395.575 361.188 395.406 362.878L395.237 364.652C395.068 366.426 394.899 368.201 394.646 369.975C393.885 374.115 393.041 377.748 391.858 381.043C389.492 387.464 386.281 393.463 381.973 399.546C379.1 403.517 375.72 407.234 371.834 410.698C366.004 415.852 359.33 419.57 351.81 421.682C346.91 423.118 341.587 423.71 335.588 423.287C325.703 422.78 316.747 419.654 308.975 413.994C303.483 410.023 298.836 404.869 294.949 398.363C292.753 394.815 291.232 391.773 290.049 388.9C289.88 388.45 289.683 388.027 289.458 387.633C289.373 387.38 289.289 387.38 289.289 387.38C289.289 387.38 289.232 387.38 289.12 387.38C289.12 387.887 289.289 388.394 289.542 389.069L291.316 393.716C291.429 394.054 291.542 394.392 291.654 394.73C291.823 395.744 291.401 396.842 290.556 397.349C289.711 397.772 288.697 397.772 287.852 397.265C287.008 396.758 286.501 395.913 286.163 395.322C284.726 392.871 283.628 390.168 282.783 386.957C281.431 381.803 280.502 376.65 279.995 371.58C279.939 370.961 279.882 370.369 279.826 369.806C279.657 368.708 279.488 367.609 279.488 366.427C279.488 366.258 279.488 366.06 279.488 365.835C279.488 365.61 279.488 365.385 279.488 365.159C279.488 363.976 280.079 363.047 281.178 362.54C281.403 362.427 281.657 362.315 281.938 362.202L281.769 361.019C281.544 359.386 281.319 357.781 281.093 356.203C280.924 355.105 280.924 354.176 280.924 353.331C280.924 352.486 280.755 351.894 280.079 351.303C279.235 350.543 278.474 349.613 277.714 348.684L277.545 348.515C276.7 347.501 275.686 347.079 274.25 347.079C271.94 347.022 269.631 346.966 267.322 346.91L265.041 346.825L262.337 346.91C260.197 346.966 258.028 347.022 255.831 347.079C254.31 347.079 253.128 347.67 252.114 348.853C251.353 349.782 250.593 350.712 249.748 351.557C249.326 352.063 249.157 352.401 249.241 352.824C249.326 354.852 248.988 356.795 248.734 358.654C248.622 359.329 248.509 360.005 248.396 360.681C248.34 360.907 248.312 361.132 248.312 361.357C248.255 361.583 248.227 361.78 248.227 361.949C248.171 362.005 248.143 362.089 248.143 362.202C248.199 362.202 248.255 362.202 248.312 362.202C249.579 362.709 251.015 363.807 250.677 366.342L250.509 367.44C250.255 369.553 250.002 371.665 249.833 373.777C249.495 376.734 248.988 379.776 248.058 383.831C247.044 388.225 245.946 391.858 243.918 395.237C243.58 395.913 243.242 396.42 242.82 396.842C242.2 397.406 241.496 397.659 240.708 397.603C239.947 397.603 239.272 397.265 238.849 396.673C238.427 396.166 238.258 395.491 238.427 394.815C238.427 394.477 238.596 394.223 238.68 394.054L239.272 392.449C239.694 391.266 240.116 390.083 240.623 388.9C240.792 388.394 240.877 387.887 240.877 387.38C240.764 387.38 240.708 387.38 240.708 387.38C240.539 387.633 240.454 387.971 240.285 388.309C238.765 392.026 236.821 395.744 234.371 399.546C230.654 405.376 226.598 409.938 221.867 413.487C216.967 417.204 211.39 419.908 205.307 421.597C200.829 422.865 196.098 423.456 191.113 423.456C189.48 423.456 187.79 423.4 186.044 423.287C181.904 422.949 177.595 421.851 173.033 419.992C168.555 418.133 164.161 415.514 160.021 412.304C155.628 408.755 151.573 404.362 147.686 398.87C144.053 393.801 141.265 388.731 139.153 383.493C137.463 379.1 136.196 374.453 135.52 369.806C134.928 366.342 134.675 362.878 134.421 359.498L134.337 357.471C134.168 355.359 134.083 353.246 133.999 351.134C133.83 348.346 133.154 346.234 131.802 344.544C130.535 343.023 129.099 342.263 127.409 342.094C126.057 342.009 124.79 342.009 123.438 342.009H121.157C120.706 342.009 120.255 341.981 119.805 341.925C118.453 341.84 117.608 340.827 117.524 339.559C117.467 337.926 117.467 336.292 117.524 334.659C117.608 333.307 118.622 332.378 119.974 332.378L120.988 332.293C122.593 332.293 124.283 332.293 125.973 332.378C127.916 332.547 129.775 332.462 131.718 332.547C132.112 332.547 132.365 332.49 132.478 332.378C133.661 331.533 135.013 331.364 136.196 331.195C137.885 331.11 139.406 330.519 141.265 329.843L141.772 329.59C143.8 328.801 145.827 327.984 147.855 327.139C151.742 325.45 155.881 324.267 159.852 323.084L162.387 322.324C166.189 321.141 169.907 320.296 173.54 319.789L175.229 319.535C180.214 318.86 185.368 318.099 190.691 318.606C192.972 318.775 195.169 318.944 197.365 319.282C201.336 319.873 204.631 320.465 207.673 321.141C210.799 321.901 213.418 322.746 215.784 323.675C221.36 325.957 225.922 328.322 229.893 331.026C231.583 332.124 233.357 333.476 235.132 334.997C237.779 337.137 240.37 339.306 242.905 341.502L246.2 344.291C246.312 344.403 246.425 344.488 246.538 344.544C246.538 344.46 246.622 344.375 246.791 344.291C247.298 344.037 247.72 343.784 248.143 343.446C250.593 341.587 253.466 340.658 256.845 340.489C260.056 340.32 263.351 340.32 266.477 340.32C267.772 340.376 269.04 340.376 270.279 340.32C271.884 340.404 273.489 340.404 275.095 340.573C277.545 340.995 279.573 341.756 281.347 342.939C282.107 343.53 282.868 344.037 283.543 344.46C283.6 344.516 283.656 344.544 283.712 344.544C283.712 344.544 283.741 344.516 283.797 344.46L285.825 342.601C286.895 341.7 287.937 340.798 288.951 339.897C292.499 336.856 296.048 333.898 299.765 331.195C302.3 329.505 305.088 327.9 308.637 326.126C313.875 323.591 318.86 321.817 323.844 320.803C327.14 320.042 331.195 319.282 335.335 319.028C335.842 319.028 336.349 318.944 336.856 318.86C337.532 318.691 338.207 318.606 338.883 318.606C341.672 318.522 344.122 318.437 346.487 318.522C348.431 318.606 350.374 318.86 352.402 319.197C355.105 319.62 357.978 320.042 360.935 320.634C362.963 321.056 365.244 321.648 367.863 322.324C370.905 323.225 373.918 324.154 376.903 325.112C379.522 325.957 382.142 327.055 384.592 328.153L386.873 328.998C388.056 329.505 389.267 329.984 390.506 330.434C391.351 330.772 392.449 331.11 393.632 331.195C394.815 331.279 396.082 331.533 397.349 332.209C397.687 332.462 398.11 332.547 398.786 332.547C399.462 332.547 400.138 332.547 400.813 332.547C402.081 332.462 403.264 332.462 404.531 332.378C406.052 332.209 407.573 332.293 409.093 332.293H409.938C412.219 332.378 412.557 333.898 412.557 335.081ZM388.901 357.64C388.816 355.95 388.732 353.922 388.563 351.979C388.394 349.529 387.718 347.163 386.535 344.713C384.761 340.995 381.888 337.616 377.917 334.574C374.115 331.617 369.637 329.336 363.976 327.308C359.499 325.619 354.598 324.52 349.444 323.929C347.529 323.704 345.53 323.591 343.446 323.591C341.305 323.591 339.052 323.704 336.687 323.929C333.392 324.267 330.012 324.689 326.464 325.365C323.845 325.872 320.803 326.548 317.93 327.646C311.34 330.265 305.848 333.392 301.286 337.193C297.738 340.066 294.949 343.699 292.922 348.177C291.401 351.472 290.387 355.021 289.796 359.076C289.204 362.54 289.12 366.173 289.542 370.313C289.796 373.27 290.556 376.481 291.823 380.452C293.344 385.352 295.541 390.083 298.16 394.477C301.878 400.475 306.102 405.376 311.087 409.178C314.466 411.881 318.268 413.994 322.408 415.514C326.126 416.866 330.181 417.795 334.743 418.218C340.32 418.725 345.558 418.302 350.458 416.866C357.64 414.838 364.23 411.036 370.06 405.545C373.017 402.757 375.636 399.715 377.917 396.504C382.31 390.421 385.352 383.916 387.042 377.157C388.394 372.003 388.985 366.511 389.07 359.414L388.901 357.64ZM141.18 359.836V359.921C141.18 360.597 141.18 361.301 141.18 362.033C141.18 363.469 141.096 364.99 141.265 366.511C141.772 373.355 143.208 379.353 145.574 385.014C147.433 389.407 149.967 393.716 153.262 398.11C154.868 400.306 156.726 402.419 158.754 404.446C160.697 406.305 162.725 408.079 165.006 409.769C173.033 415.514 181.312 418.302 190.437 418.387C192.042 418.387 193.732 418.302 196.013 418.133C199.224 417.796 202.435 417.12 205.73 416.106C214.432 413.402 221.613 408.248 227.781 400.306C230.569 396.758 232.935 392.871 234.878 388.731C237.835 382.648 239.609 376.734 240.37 370.566C241.384 362.709 240.201 354.852 236.737 347.332C234.878 343.192 231.837 339.559 227.95 336.433C224.908 334.067 221.36 331.871 216.713 329.59C213.334 327.984 209.616 326.717 205.73 325.872C202.35 325.112 198.971 324.605 195.507 324.182C192.465 323.844 189.564 323.675 186.804 323.675C182.749 323.675 178.862 324.013 175.229 324.774C168.386 326.126 162.303 328.322 156.642 331.533C152.079 334.152 148.615 337.109 145.996 340.489C143.546 343.784 142.11 347.248 141.518 351.05C141.096 354.007 141.18 357.048 141.18 359.836Z" />
</svg>
