<svg viewBox="0 0 296 106" fill="none" xmlns="http://www.w3.org/2000/svg">
<path fill-rule="evenodd" clip-rule="evenodd" d="M295.076 17.1687C295.076 18.6331 295.076 20.1258 295.076 21.6466C294.991 22.9139 294.231 23.8433 292.879 24.0123C292.429 24.0686 292.006 24.0967 291.612 24.0967H291.274H286.458C282.91 24.0967 280.459 25.9555 279.277 29.5885C278.77 31.0248 278.685 32.4611 278.601 34.0664C278.601 34.6296 278.573 35.1929 278.516 35.7561C278.404 37.1643 278.319 38.5724 278.263 39.9806C278.178 41.5858 278.094 43.2756 277.925 44.9654L277.756 46.7396C277.587 48.5139 277.418 50.2882 277.164 52.0625C276.404 56.2024 275.559 59.8354 274.376 63.1304C272.011 69.5515 268.8 75.5502 264.491 81.6334C261.618 85.6044 258.239 89.3218 254.352 92.7858C248.523 97.9396 241.848 101.657 234.329 103.769C229.428 105.206 224.106 105.797 218.107 105.375C208.222 104.868 199.266 101.742 191.493 96.0809C186.001 92.11 181.354 86.9562 177.468 80.4506C175.271 76.902 173.75 73.8604 172.568 70.9878C172.399 70.5372 172.202 70.1148 171.976 69.7205C171.892 69.467 171.807 69.4671 171.807 69.4671C171.807 69.4671 171.751 69.4671 171.638 69.4671C171.638 69.974 171.807 70.4809 172.061 71.1568L173.835 75.8037C173.948 76.1416 174.06 76.4796 174.173 76.8176C174.342 77.8314 173.919 78.9298 173.075 79.4367C172.23 79.8591 171.216 79.8591 170.371 79.3522C169.526 78.8453 169.019 78.0004 168.681 77.409C167.245 74.9588 166.147 72.2552 165.302 69.0446C163.95 63.8908 163.02 58.737 162.514 53.6677C162.457 53.0481 162.401 52.4567 162.345 51.8935C162.176 50.7951 162.007 49.6968 162.007 48.5139C162.007 48.345 162.007 48.1478 162.007 47.9225C162.007 47.6972 162.007 47.4719 162.007 47.2466C162.007 46.0638 162.598 45.1344 163.696 44.6274C163.922 44.5148 164.175 44.4022 164.457 44.2895L164.288 43.1066C164.062 41.4732 163.837 39.8679 163.612 38.2908C163.443 37.1924 163.443 36.2631 163.443 35.4182C163.443 34.5733 163.274 33.9819 162.598 33.3905C161.753 32.6301 160.993 31.7007 160.232 30.7714L160.063 30.6024C159.218 29.5885 158.205 29.1661 156.768 29.1661C154.459 29.1097 152.15 29.0534 149.84 28.9971L147.559 28.9126L144.855 28.9971C142.715 29.0534 140.547 29.1097 138.35 29.1661C136.829 29.1661 135.646 29.7575 134.632 30.9403C133.872 31.8697 133.112 32.799 132.267 33.6439C131.844 34.1509 131.675 34.4888 131.76 34.9113C131.844 36.939 131.506 38.8822 131.253 40.741C131.14 41.4169 131.028 42.0928 130.915 42.7687C130.859 42.994 130.83 43.2193 130.83 43.4446C130.774 43.6699 130.746 43.8671 130.746 44.0361C130.69 44.0924 130.661 44.1769 130.661 44.2895C130.718 44.2895 130.774 44.2895 130.83 44.2895C132.098 44.7964 133.534 45.8948 133.196 48.4294L133.027 49.5278C132.774 51.64 132.52 53.7522 132.351 55.8644C132.013 58.8215 131.506 61.8631 130.577 65.9185C129.563 70.3119 128.465 73.9449 126.437 77.3245C126.099 78.0004 125.761 78.5073 125.339 78.9298C124.719 79.493 124.015 79.7465 123.226 79.6901C122.466 79.6901 121.79 79.3522 121.368 78.7608C120.945 78.2539 120.776 77.5779 120.945 76.902C120.945 76.5641 121.114 76.3106 121.199 76.1417L121.79 74.5364C122.213 73.3535 122.635 72.1707 123.142 70.9878C123.311 70.4809 123.395 69.974 123.395 69.4671C123.283 69.4671 123.226 69.4671 123.226 69.4671C123.057 69.7205 122.973 70.0585 122.804 70.3964C121.283 74.1139 119.34 77.8314 116.89 81.6334C113.172 87.4631 109.117 92.0255 104.385 95.574C99.4852 99.2915 93.9089 101.995 87.8257 103.685C83.3479 104.952 78.6165 105.544 73.6317 105.544C71.9982 105.544 70.3085 105.487 68.5624 105.375C64.4225 105.037 60.1135 103.938 55.5511 102.08C51.0733 100.221 46.6799 97.6017 42.5399 94.3911C38.1465 90.8426 34.0911 86.4492 30.2046 80.9575C26.5716 75.8882 23.7835 70.8189 21.6713 65.5806C19.9815 61.1872 18.7142 56.5403 18.0383 51.8935C17.4469 48.4294 17.1934 44.9654 16.9399 41.5859L16.8554 39.5581C16.6865 37.4459 16.602 35.3337 16.5175 33.2215C16.3485 30.4334 15.6726 28.3212 14.3208 26.6314C13.0535 25.1106 11.6171 24.3502 9.92738 24.1813C8.57556 24.0968 7.30825 24.0967 5.95644 24.0967H3.67524C3.22463 24.0967 2.77402 24.0686 2.32342 24.0123C0.971602 23.9278 0.126733 22.9139 0.0422442 21.6466C-0.0140814 20.0132 -0.0140814 18.3797 0.0422442 16.7462C0.126733 15.3944 1.14059 14.4651 2.4924 14.4651L3.50628 14.3806C5.11156 14.3806 6.80132 14.3806 8.49109 14.4651C10.4343 14.6341 12.2931 14.5495 14.2363 14.634C14.6306 14.634 14.884 14.5777 14.9967 14.4651C16.1795 13.6202 17.5314 13.4512 18.7142 13.2822C20.404 13.1977 21.9248 12.6063 23.7835 11.9304L24.2904 11.6769C26.3181 10.8884 28.3459 10.0717 30.3736 9.2268C34.2601 7.53703 38.4 6.3542 42.371 5.17137L44.9056 4.41095C48.7076 3.22811 52.4251 2.38323 56.0581 1.8763L57.7478 1.62284C62.7327 0.946933 67.8865 0.186507 73.2093 0.693437C75.4904 0.862414 77.6871 1.03143 79.8838 1.36939C83.8548 1.96081 87.1498 2.55218 90.1914 3.22809C93.3175 3.98849 95.9366 4.83337 98.3023 5.76274C103.879 8.04393 108.441 10.4096 112.412 13.1132C114.102 14.2116 115.876 15.5634 117.65 17.0842C120.297 19.2246 122.888 21.3931 125.423 23.5898L128.718 26.3779C128.831 26.4906 128.943 26.5751 129.056 26.6314C129.056 26.5469 129.141 26.4624 129.31 26.3779C129.817 26.1245 130.239 25.871 130.661 25.5331C133.112 23.6743 135.984 22.7449 139.364 22.576C142.574 22.407 145.869 22.407 148.995 22.407C150.291 22.4633 151.558 22.4633 152.797 22.407C154.403 22.4915 156.008 22.4915 157.613 22.6604C160.063 23.0829 162.091 23.8433 163.865 25.0262C164.626 25.6176 165.386 26.1245 166.062 26.5469C166.118 26.6033 166.175 26.6314 166.231 26.6314C166.231 26.6314 166.259 26.6033 166.316 26.5469L168.343 24.6882C169.413 23.787 170.455 22.8857 171.469 21.9845C175.018 18.943 178.566 15.9859 182.284 13.2822C184.818 11.5925 187.607 9.98719 191.155 8.21293C196.393 5.67828 201.378 3.90403 206.363 2.89017C209.658 2.12977 213.714 1.36934 217.853 1.11588C218.36 1.11588 218.867 1.03143 219.374 0.946944C220.05 0.777967 220.726 0.693437 221.402 0.693437C224.19 0.608949 226.64 0.524481 229.006 0.608969C230.949 0.693458 232.892 0.946913 234.92 1.28487C237.624 1.70731 240.496 2.12976 243.453 2.72118C245.481 3.14362 247.762 3.73504 250.382 4.41095C253.423 5.31216 256.436 6.24152 259.422 7.19906C262.041 8.04394 264.66 9.14232 267.11 10.2407L269.391 11.0856C270.574 11.5925 271.785 12.0712 273.024 12.5218C273.869 12.8598 274.968 13.1977 276.151 13.2822C277.333 13.3667 278.601 13.6202 279.868 14.2961C280.206 14.5496 280.628 14.634 281.304 14.634C281.98 14.634 282.656 14.634 283.332 14.634C284.599 14.5495 285.782 14.5496 287.049 14.4651C288.57 14.2961 290.091 14.3806 291.612 14.3806H292.457C294.738 14.4651 295.076 15.9858 295.076 17.1687ZM271.419 39.7271C271.335 38.0373 271.25 36.0096 271.081 34.0664C270.912 31.6162 270.236 29.2506 269.053 26.8004C267.279 23.0829 264.407 19.7034 260.436 16.6618C256.634 13.7047 252.156 11.4235 246.495 9.39579C242.017 7.70602 237.117 6.60767 231.963 6.01625C230.048 5.79095 228.048 5.67828 225.964 5.67828C223.824 5.67828 221.571 5.79095 219.205 6.01625C215.91 6.3542 212.531 6.77661 208.982 7.45251C206.363 7.95944 203.321 8.63536 200.449 9.73371C193.859 12.3529 188.367 15.4789 183.805 19.2809C180.256 22.1535 177.468 25.7865 175.44 30.2644C173.919 33.5594 172.906 37.108 172.314 41.1634C171.723 44.6274 171.638 48.2604 172.061 52.4004C172.314 55.3575 173.075 58.568 174.342 62.539C175.863 67.4393 178.059 72.1707 180.679 76.5641C184.396 82.5628 188.62 87.4631 193.605 91.2651C196.985 93.9687 200.787 96.0809 204.927 97.6017C208.644 98.9535 212.7 99.8829 217.262 100.305C222.838 100.812 228.077 100.39 232.977 98.9535C240.158 96.9258 246.749 93.1238 252.578 87.6321C255.535 84.844 258.154 81.8024 260.436 78.5918C264.829 72.5086 267.871 66.003 269.56 59.244C270.912 54.0902 271.504 48.5984 271.588 41.5014L271.419 39.7271ZM23.699 41.9238V42.0083C23.699 42.6842 23.699 43.3883 23.699 44.1205C23.699 45.5568 23.6145 47.0776 23.7835 48.5984C24.2904 55.442 25.7267 61.4407 28.0924 67.1014C29.9511 71.4948 32.4858 75.8037 35.7808 80.1971C37.3861 82.3938 39.2449 84.506 41.2726 86.5337C43.2158 88.3925 45.2435 90.1667 47.5247 91.8565C55.5511 97.6017 63.831 100.39 72.9558 100.474C74.5611 100.474 76.2508 100.39 78.532 100.221C81.7426 99.8829 84.9531 99.207 88.2482 98.1931C96.9505 95.4895 104.132 90.3357 110.3 82.3938C113.088 78.8453 115.453 74.9588 117.397 70.8188C120.354 64.7357 122.128 58.8215 122.888 52.6538C123.902 44.7964 122.719 36.939 119.255 29.4195C117.397 25.2796 114.355 21.6466 110.469 18.5205C107.427 16.1549 103.879 13.9581 99.2317 11.6769C95.8521 10.0717 92.1347 8.80436 88.2482 7.95947C84.8686 7.19908 81.4891 6.69215 78.0251 6.26971C74.9835 5.93175 72.0827 5.76274 69.3228 5.76274C65.2673 5.76274 61.3809 6.10074 57.7478 6.86113C50.9043 8.21295 44.8211 10.4097 39.1604 13.6202C34.598 16.2394 31.134 19.1964 28.5148 22.576C26.0647 25.871 24.6284 29.335 24.037 33.137C23.6145 36.0941 23.699 39.1357 23.699 41.9238Z" fill="white"/>
</svg>
