<svg viewBox="0 0 1858 539" xmlns="http://www.w3.org/2000/svg">
<path d="M1857.44 288.84C1857.44 289.913 1856.87 290.657 1855.88 290.657H1828.21V291.813C1828.21 301.641 1832.09 305.275 1839.69 305.275C1844.48 305.275 1850.59 304.945 1854.39 304.367C1854.55 304.367 1854.64 304.367 1854.8 304.367C1855.46 304.367 1856.12 304.697 1856.12 305.523V308.331C1856.12 309.405 1855.79 309.983 1854.47 310.23C1849.76 311.139 1845.22 311.635 1839.69 311.635C1830.19 311.635 1820.94 307.175 1820.94 291.813V284.38C1820.94 272.569 1827.46 265.053 1839.27 265.053C1851.33 265.053 1857.44 272.652 1857.44 284.38V288.84ZM1850.09 285.123V284.38C1850.09 275.047 1846.54 271.413 1839.27 271.413C1832.17 271.413 1828.21 275.46 1828.21 284.38V285.123H1850.09Z" />
<path d="M1813.28 269.926C1813.28 270.835 1812.7 271.33 1811.55 271.33C1807.75 271.33 1804.28 272.321 1800.15 274.799V309.405C1800.15 310.23 1799.4 311.056 1798.5 311.056H1794.45C1793.62 311.056 1792.88 310.313 1792.88 309.405V267.283C1792.88 266.375 1793.54 265.632 1794.45 265.632H1798.33C1799.24 265.632 1799.9 266.375 1799.9 267.283V269.018C1804.03 266.127 1807.83 265.053 1811.55 265.053C1812.7 265.053 1813.28 265.549 1813.28 266.54V269.926Z" />
<path d="M1778.35 309.405C1778.35 310.313 1777.61 311.056 1776.7 311.056H1772.9C1771.99 311.056 1771.25 310.313 1771.25 309.405V307.588C1767.28 309.9 1763.15 311.635 1758.53 311.635C1751.51 311.635 1745.07 308.579 1745.07 298.255V297.264C1745.07 288.344 1750.27 283.884 1764.97 283.884H1771.08V280.58C1771.08 273.643 1768.69 271.248 1762.25 271.248C1756.88 271.248 1752.91 271.578 1749.61 271.908C1749.44 271.908 1749.36 271.908 1749.2 271.908C1748.45 271.908 1747.71 271.661 1747.71 270.587V267.696C1747.71 266.788 1748.29 266.292 1749.44 266.127C1752.83 265.549 1756.63 265.053 1762.25 265.053C1773.73 265.053 1778.35 270.835 1778.35 280.58V309.405ZM1771.08 302.384V289.087H1764.97C1754.98 289.087 1752.34 291.317 1752.34 297.181V298.172C1752.34 304.119 1755.14 305.688 1759.93 305.688C1763.73 305.688 1767.12 304.532 1771.08 302.384Z" />
<path d="M1734.89 308.909C1734.89 309.9 1734.14 310.396 1733.23 310.561C1729.76 311.222 1726.54 311.635 1719.52 311.635C1709.36 311.635 1697.72 306.184 1697.72 286.114V274.634C1697.72 254.399 1709.36 249.114 1719.52 249.114C1724.73 249.114 1729.76 249.857 1733.4 250.435C1734.14 250.518 1734.72 250.765 1734.72 251.509V255.721C1734.72 256.216 1734.56 256.629 1733.73 256.629C1733.65 256.629 1733.56 256.629 1733.48 256.629C1730.51 256.381 1724.4 255.886 1719.61 255.886C1711.51 255.886 1705.24 260.594 1705.24 274.634V286.114C1705.24 299.989 1711.51 304.862 1719.61 304.862C1724.31 304.862 1730.26 304.449 1733.23 304.201C1733.32 304.201 1733.48 304.201 1733.56 304.201C1734.47 304.201 1734.89 304.614 1734.89 305.523V308.909Z" />
<path d="M1662.46 267.036C1662.46 267.201 1662.46 267.449 1662.37 267.614L1648.75 315.186C1646.19 324.106 1643.13 327.409 1633.63 327.409C1631.32 327.409 1628.43 327.079 1626.7 326.666C1625.7 326.418 1624.96 326.17 1624.96 325.345V322.289C1624.96 321.38 1625.62 320.967 1626.53 320.967C1626.61 320.967 1626.7 320.967 1626.78 320.967C1628.6 321.132 1632.31 321.463 1634.13 321.463C1638.84 321.463 1640.9 320.224 1642.31 314.443L1643.13 311.056H1641.97C1639.5 311.056 1637.35 310.478 1635.86 305.358L1624.88 267.614C1624.8 267.449 1624.8 267.201 1624.8 267.036C1624.8 266.21 1625.29 265.632 1626.28 265.632H1630.83C1631.49 265.632 1632.06 266.292 1632.23 266.953L1641.97 302.797C1642.39 304.449 1642.97 304.614 1643.54 304.614H1644.87L1654.94 266.87C1655.11 266.21 1655.77 265.632 1656.51 265.632H1661.14C1661.96 265.632 1662.46 266.21 1662.46 267.036Z" />
<path d="M1615.56 288.84C1615.56 289.913 1614.99 290.657 1614 290.657H1586.33V291.813C1586.33 301.641 1590.21 305.275 1597.81 305.275C1602.6 305.275 1608.71 304.945 1612.51 304.367C1612.67 304.367 1612.76 304.367 1612.92 304.367C1613.58 304.367 1614.24 304.697 1614.24 305.523V308.331C1614.24 309.405 1613.91 309.983 1612.59 310.23C1607.88 311.139 1603.34 311.635 1597.81 311.635C1588.31 311.635 1579.06 307.175 1579.06 291.813V284.38C1579.06 272.569 1585.58 265.053 1597.39 265.053C1609.45 265.053 1615.56 272.652 1615.56 284.38V288.84ZM1608.21 285.123V284.38C1608.21 275.047 1604.66 271.413 1597.39 271.413C1590.29 271.413 1586.33 275.46 1586.33 284.38V285.123H1608.21Z" />
<path d="M1566.01 309.405C1566.01 310.313 1565.27 311.056 1564.36 311.056H1560.39C1559.49 311.056 1558.74 310.313 1558.74 309.405V282.232C1558.74 273.891 1555.93 271.33 1549.66 271.33C1546.19 271.33 1542.31 272.652 1538.51 274.551V309.405C1538.51 310.23 1537.76 311.056 1536.86 311.056H1532.81C1531.98 311.056 1531.24 310.313 1531.24 309.405V267.283C1531.24 266.375 1531.9 265.632 1532.81 265.632H1536.94C1537.85 265.632 1538.51 266.375 1538.51 267.283V268.853C1543.05 266.292 1546.77 265.053 1551.64 265.053C1561.55 265.053 1566.01 271.248 1566.01 282.232V309.405Z" />
<path d="M1516.67 308.331C1516.67 309.405 1516.43 309.983 1514.94 310.23C1509.82 311.221 1504.78 311.634 1499.74 311.634C1487.44 311.634 1481.74 303.623 1481.74 291.235V285.288C1481.74 272.321 1487.68 265.053 1499.74 265.053C1502.3 265.053 1506.18 265.301 1509.41 265.879V250.517C1509.41 249.692 1510.07 248.948 1510.97 248.948H1515.19C1516.01 248.948 1516.67 249.609 1516.67 250.517V308.331ZM1509.41 304.779V271.991C1506.68 271.495 1502.38 271.413 1499.74 271.413C1491.65 271.413 1489.01 276.451 1489.01 285.288V291.235C1489.01 300.237 1491.57 305.275 1499.74 305.275C1502.55 305.275 1506.6 305.027 1509.41 304.779Z" />
<path d="M1467.83 256.712C1467.83 257.62 1467.08 258.364 1466.18 258.364H1461.96C1461.05 258.364 1460.31 257.62 1460.31 256.712V250.105C1460.31 249.196 1461.05 248.453 1461.96 248.453H1466.18C1467.08 248.453 1467.83 249.196 1467.83 250.105V256.712ZM1467.66 309.405C1467.66 310.313 1466.92 311.056 1466.01 311.056H1462.05C1461.14 311.056 1460.39 310.313 1460.39 309.405V267.284C1460.39 266.375 1461.14 265.632 1462.05 265.632H1466.01C1466.92 265.632 1467.66 266.375 1467.66 267.284V309.405Z" />
<path d="M1446.95 310.23C1446.95 310.643 1446.62 311.056 1445.88 311.056H1439.43C1438.69 311.056 1438.11 310.809 1437.62 310.23L1414.33 281.902V309.405C1414.33 310.231 1413.75 311.056 1412.84 311.056H1408.3C1407.47 311.056 1406.81 310.313 1406.81 309.405V251.261C1406.81 250.435 1407.47 249.692 1408.38 249.692H1412.76C1413.58 249.692 1414.33 250.352 1414.33 251.261V277.938L1438.11 250.435C1438.61 249.939 1438.94 249.692 1439.77 249.692H1445.71C1446.54 249.692 1446.87 250.105 1446.87 250.6C1446.87 250.848 1446.79 251.178 1446.54 251.426L1421.68 279.507L1446.54 309.239C1446.79 309.487 1446.95 309.9 1446.95 310.23Z" />
<path d="M1790.62 186.926C1790.62 187.835 1790.04 188.33 1788.88 188.33C1785.08 188.33 1781.61 189.321 1777.48 191.799V226.405C1777.48 227.23 1776.74 228.056 1775.83 228.056H1771.79C1770.96 228.056 1770.22 227.313 1770.22 226.405V184.283C1770.22 183.375 1770.88 182.632 1771.79 182.632H1775.67C1776.58 182.632 1777.24 183.375 1777.24 184.283V186.018C1781.37 183.127 1785.16 182.053 1788.88 182.053C1790.04 182.053 1790.62 182.549 1790.62 183.54V186.926Z" />
<path d="M1757.14 208.482C1757.14 220.623 1750.87 228.635 1738.73 228.635C1726.58 228.635 1720.39 220.623 1720.39 208.482V202.206C1720.39 190.065 1726.58 182.053 1738.73 182.053C1750.87 182.053 1757.14 190.065 1757.14 202.206V208.482ZM1749.88 208.482V202.206C1749.88 193.781 1746.49 188.413 1738.73 188.413C1731.04 188.413 1727.66 193.699 1727.66 202.206V208.482C1727.66 216.907 1730.96 222.275 1738.73 222.275C1746.41 222.275 1749.88 216.989 1749.88 208.482Z" />
<path d="M1712.73 169.748C1712.73 170.656 1712.15 170.986 1711.24 170.986H1707.28C1703.4 170.986 1702.24 172.143 1702.24 176.685V182.632H1710.91C1711.82 182.632 1712.48 183.292 1712.48 184.118V187.339C1712.48 188.165 1711.82 188.743 1710.91 188.743H1702.24V226.405C1702.24 227.231 1701.5 228.056 1700.67 228.056H1696.62C1695.72 228.056 1694.97 227.231 1694.97 226.405V188.743L1686.96 187.835C1686.05 187.752 1685.39 187.174 1685.39 186.348V184.118C1685.39 183.292 1686.05 182.632 1686.96 182.632H1694.97V176.685C1694.97 167.848 1699.27 165.205 1706.54 165.205C1708.77 165.205 1710.09 165.453 1711.16 165.701C1712.07 165.948 1712.73 166.279 1712.73 167.022V169.748Z" />
<path d="M1654.04 186.926C1654.04 187.835 1653.47 188.33 1652.31 188.33C1648.51 188.33 1645.04 189.321 1640.91 191.799V226.405C1640.91 227.23 1640.17 228.056 1639.26 228.056H1635.21C1634.39 228.056 1633.64 227.313 1633.64 226.405V184.283C1633.64 183.375 1634.3 182.632 1635.21 182.632H1639.09C1640 182.632 1640.66 183.375 1640.66 184.283V186.018C1644.79 183.127 1648.59 182.053 1652.31 182.053C1653.47 182.053 1654.04 182.549 1654.04 183.54V186.926Z" />
<path d="M1620.4 205.84C1620.4 206.913 1619.83 207.657 1618.83 207.657H1591.17V208.813C1591.17 218.641 1595.05 222.275 1602.65 222.275C1607.44 222.275 1613.55 221.945 1617.35 221.367C1617.51 221.367 1617.6 221.367 1617.76 221.367C1618.42 221.367 1619.08 221.697 1619.08 222.523V225.331C1619.08 226.405 1618.75 226.983 1617.43 227.23C1612.72 228.139 1608.18 228.635 1602.65 228.635C1593.15 228.635 1583.9 224.175 1583.9 208.813V201.38C1583.9 189.569 1590.42 182.053 1602.23 182.053C1614.29 182.053 1620.4 189.652 1620.4 201.38V205.84ZM1613.05 202.123V201.38C1613.05 192.047 1609.5 188.413 1602.23 188.413C1595.13 188.413 1591.17 192.46 1591.17 201.38V202.123H1613.05Z" />
<path d="M1574.39 226.818C1574.39 227.561 1573.98 228.057 1572.9 228.222C1571.25 228.469 1569.11 228.635 1567.54 228.635C1559.94 228.635 1556.3 226.653 1556.3 217.568V188.743L1548.29 187.835C1547.38 187.752 1546.72 187.257 1546.72 186.348V184.118C1546.72 183.21 1547.38 182.632 1548.29 182.632H1556.3V174.538C1556.3 173.712 1556.88 173.051 1557.79 172.886L1562.09 172.225C1562.17 172.225 1562.25 172.225 1562.33 172.225C1562.99 172.225 1563.57 172.803 1563.57 173.629V182.632H1572.49C1573.4 182.632 1574.14 183.375 1574.14 184.284V187.092C1574.14 188 1573.4 188.743 1572.49 188.743H1563.57V217.568C1563.57 222.11 1564.73 222.771 1568.03 222.771H1572.66C1573.81 222.771 1574.39 223.101 1574.39 223.927V226.818Z" />
<path d="M1537.35 226.405C1537.35 227.313 1536.61 228.056 1535.7 228.056H1531.74C1530.83 228.056 1530.08 227.313 1530.08 226.405V199.232C1530.08 190.891 1527.28 188.33 1521 188.33C1517.53 188.33 1513.65 189.652 1509.85 191.551V226.405C1509.85 227.23 1509.11 228.056 1508.2 228.056H1504.15C1503.32 228.056 1502.58 227.313 1502.58 226.405V184.283C1502.58 183.375 1503.24 182.632 1504.15 182.632H1508.28C1509.19 182.632 1509.85 183.375 1509.85 184.283V185.853C1514.39 183.292 1518.11 182.053 1522.98 182.053C1532.89 182.053 1537.35 188.248 1537.35 199.232V226.405Z" />
<path d="M1489.34 205.84C1489.34 206.913 1488.76 207.657 1487.77 207.657H1460.1V208.813C1460.1 218.641 1463.99 222.275 1471.58 222.275C1476.38 222.275 1482.49 221.945 1486.29 221.367C1486.45 221.367 1486.53 221.367 1486.7 221.367C1487.36 221.367 1488.02 221.697 1488.02 222.523V225.331C1488.02 226.405 1487.69 226.983 1486.37 227.23C1481.66 228.139 1477.12 228.635 1471.58 228.635C1462.09 228.635 1452.84 224.175 1452.84 208.813V201.38C1452.84 189.569 1459.36 182.053 1471.17 182.053C1483.23 182.053 1489.34 189.652 1489.34 201.38V205.84ZM1481.99 202.123V201.38C1481.99 192.047 1478.44 188.413 1471.17 188.413C1464.07 188.413 1460.1 192.46 1460.1 201.38V202.123H1481.99Z" />
<path d="M1442.49 225.909C1442.49 226.9 1441.75 227.396 1440.84 227.561C1437.37 228.222 1434.15 228.635 1427.13 228.635C1416.97 228.635 1405.32 223.184 1405.32 203.114V191.634C1405.32 171.399 1416.97 166.114 1427.13 166.114C1432.33 166.114 1437.37 166.857 1441 167.435C1441.75 167.518 1442.32 167.765 1442.32 168.509V172.721C1442.32 173.216 1442.16 173.629 1441.33 173.629C1441.25 173.629 1441.17 173.629 1441.09 173.629C1438.11 173.381 1432 172.886 1427.21 172.886C1419.12 172.886 1412.84 177.594 1412.84 191.634V203.114C1412.84 216.989 1419.12 221.862 1427.21 221.862C1431.92 221.862 1437.86 221.449 1440.84 221.201C1440.92 221.201 1441.09 221.201 1441.17 221.201C1442.08 221.201 1442.49 221.614 1442.49 222.523V225.909Z" />
<path d="M1272.44 201.462V176.302H1280.95L1284.68 195.394L1288.38 176.302H1296.82V201.462H1292.08V180.742H1291.42L1287.76 200.352H1281.5L1277.88 180.742H1277.17V201.462H1272.44Z" />
<path d="M1254.54 180.742V176.302H1270.71V180.742H1265.24V201.462H1260.13V180.742H1254.54Z" />
<rect x="1330.23" y="107.176" width="6.54688" height="257.043" />
<path d="M1227.95 176.035V201.523C1227.95 201.523 1197.72 198.454 1177.99 198.454C1161.83 198.454 1154.98 200.798 1154.98 211.212C1154.98 219.708 1160.73 221.9 1183.48 225.463C1219.65 231.218 1232.48 240.723 1232.48 267.854C1232.48 299.919 1210.88 311.79 1177.17 311.79C1157.72 311.79 1125.93 305.761 1125.93 305.761V279.308C1125.93 279.308 1160.18 283.269 1174.16 283.269C1193.34 283.269 1200.27 279.592 1200.27 268.629C1200.27 259.86 1196.08 257.527 1174.16 253.965C1139.08 248.21 1122.42 240.553 1122.42 212.051C1122.42 180.809 1148.07 169.165 1175.47 169.165C1195.48 169.165 1227.95 176.035 1227.95 176.035Z" />
<path d="M1070.94 173.385H1104.24V308.538H1070.94V302.001C1070.94 302.001 1049.34 311.79 1034.39 311.79C994.505 311.79 985.986 291.669 985.986 244.084V173.385H1018.29V243.812C1018.29 272.635 1019.88 283.45 1040.93 283.45C1053.12 283.45 1070.94 277.529 1070.94 277.529V173.385Z" />
<path d="M925.097 308.287V135.263H958.636V308.287H925.097Z" />
<path d="M888.906 215.049V271.504C889.18 281.096 892.195 283.837 900.142 285.207V310.984C876.817 311.79 870.545 308.502 862.323 302.198C862.323 302.198 838.754 311.79 817.652 311.79C791.617 311.79 776.45 295.217 776.45 268.085C776.45 238.761 794.083 228.478 823.681 226.285L857.664 223.545V215.323C857.664 204.635 851.707 199.92 841.293 199.92C821.013 199.92 785.192 201.853 785.192 201.853V175.233C785.192 175.233 821.013 169.948 841.293 169.948C871.439 169.948 888.906 181.34 888.906 215.049ZM856.756 248.986L827.518 249.58C815.733 250.676 808.83 255.529 808.83 266.765C808.83 278.276 814.637 283.923 823.681 283.923C838.206 283.923 856.756 279.562 856.756 279.562V248.986Z" />
<path d="M668.874 308.493H636.794V173.09H668.874V179.874C668.874 179.874 691.105 169.834 706.582 169.834C745.698 169.834 755.547 192.085 755.547 237.671V308.493H723.467V237.942C723.467 212.164 720.09 198.868 700.391 198.868C688.01 198.868 668.874 205.109 668.874 205.109L668.874 308.493Z" />
<path d="M561.916 282.805C583.823 282.805 612.811 280.744 612.811 280.744V305.364C612.811 305.364 587.243 311.5 557.279 311.5C515.406 311.5 496.375 294.206 496.375 242.643C496.375 191.08 518.711 169.207 557.256 169.207C596.634 169.207 616.875 189.095 616.875 231.574C616.875 240.463 615.609 254.646 615.609 254.646H528.971C529.248 274.652 539.454 282.805 561.916 282.805ZM529.072 229.395H584.845C584.845 205.552 576.945 197.915 557.256 197.915C537.567 197.915 529.072 206.648 529.072 229.395Z" />
<path d="M409.599 308.551V190.112C409.599 190.112 432.579 181.66 442.387 179.068C452.196 176.476 462 175.124 485.215 171.067V203.747C461.888 207.241 442.387 211.974 442.387 211.974V308.551H409.599Z" />
<path fill-rule="evenodd" clip-rule="evenodd" d="M206.839 1.7451C198.39 2.76925 184.052 5.58566 174.835 8.14604C165.617 10.7064 149.999 16.3393 140.269 20.9479C130.54 25.3006 114.922 34.0059 105.704 40.1508C96.4869 46.2957 81.6367 59.0976 72.4194 68.3149C63.202 77.5323 50.9122 91.8704 45.0233 100.32C39.3905 108.769 31.1973 122.595 27.1007 131.044C22.748 139.493 16.8592 153.576 13.7867 162.537C10.9703 171.242 6.61766 189.165 4.31332 201.967C1.4969 218.609 0.472748 233.203 1.75294 250.102C2.52105 264.184 5.84954 284.155 9.69011 297.469C13.5307 310.015 20.9558 329.217 26.8446 339.715C32.4775 350.213 42.975 366.343 50.4001 375.304C57.5692 384.522 70.3711 397.323 78.8203 404.236C87.2696 411.15 103.4 421.135 114.666 426.768C125.931 432.145 141.55 438.033 149.231 439.57C156.912 441.362 172.53 442.898 183.796 442.642C197.11 442.642 210.168 440.594 220.921 437.265C230.139 434.193 242.941 427.792 249.854 422.927C256.511 418.063 265.472 409.101 269.569 402.956C273.921 397.067 279.298 385.802 281.602 378.121C282.844 373.466 284.508 369.087 285.273 365.466C286.383 360.212 286.161 354.884 288.011 354.884C289.861 354.884 291.717 359.827 294.148 364.039C297.051 369.065 307.718 386.57 316.936 405.005C325.897 423.439 336.138 448.019 339.723 460.053C343.307 472.086 347.365 485.069 348.645 494.286C350.181 503.504 351.435 511.128 352.203 517.785C353.227 527.258 351.427 538.317 354.478 538.317C363.891 538.317 367.375 536.096 373.008 532.255C378.385 528.415 386.578 520.222 390.93 513.821C395.283 507.42 400.916 498.202 403.22 493.338C405.269 488.473 408.597 477.463 410.389 469.014C412.182 460.053 412.95 446.227 412.182 435.729C411.157 424.976 407.829 410.637 403.476 399.884C399.38 390.154 389.65 372.232 381.969 360.198C374.032 348.164 353.549 320.512 336.394 298.749C319.496 276.986 301.573 250.87 296.709 241.14C288.771 225.01 288.259 222.706 291.332 216.817C293.124 213.232 304.134 199.406 315.655 186.092C327.433 172.778 339.467 157.672 342.795 152.807C345.868 147.943 350.476 136.933 352.781 128.484C355.853 117.474 356.621 109.025 355.341 99.0395C354.317 91.1023 349.708 76.7642 344.332 66.0106C337.675 52.4406 330.762 43.4793 320.776 34.5179C313.095 27.6049 299.781 18.8996 291.332 14.803C282.882 10.9625 270.081 6.35378 263.168 4.81755C255.999 3.28133 243.965 1.48906 236.284 0.976986C228.602 0.46491 215.288 0.720946 206.839 1.7451ZM224.762 27.6049C211.96 27.8609 199.414 28.373 196.598 29.1411C194.302 29.5585 187.414 31.6769 179.954 33.9712C178.261 34.4917 176.539 35.0213 174.835 35.5421C165.617 38.6145 151.279 44.2474 142.83 48.344C134.381 52.4406 121.579 60.1217 114.666 65.4985C107.497 70.8753 96.743 80.3487 90.5981 86.4936C84.1971 92.6385 74.4677 104.16 68.8348 111.841C63.202 119.522 54.2407 135.141 48.8639 146.406C43.7431 157.672 37.3422 173.802 35.2939 182.252C32.9896 190.701 30.1731 206.319 28.8929 216.817C27.3567 228.851 27.6128 244.469 29.149 259.063C30.4292 271.609 34.5258 290.3 37.8543 300.029C40.9267 309.759 48.0958 325.377 53.4726 334.594C58.8494 343.812 72.4194 360.454 83.9411 371.976C100.327 388.618 108.777 394.763 126.187 402.956C139.245 409.357 155.12 414.734 165.873 416.27C179.443 418.575 187.636 418.575 199.158 416.27C207.607 414.478 217.849 411.406 222.202 409.357C226.554 407.309 233.211 402.956 237.052 400.14C241.148 397.067 247.037 390.154 250.366 384.522C253.694 378.889 257.791 366.855 259.583 357.638C261.375 348.42 261.887 337.923 260.863 334.082C260.095 329.986 256.767 325.633 253.694 323.841C250.366 322.304 240.38 321.28 231.163 321.536C221.945 321.792 197.366 319.488 176.115 316.416C155.12 313.343 136.173 309.503 134.381 307.966C132.332 306.43 131.564 302.846 132.332 299.517C133.356 295.42 136.941 292.86 143.342 291.068C148.719 289.788 159.984 288.507 168.434 288.507C176.883 288.507 187.892 287.227 192.757 285.947C197.622 284.411 202.487 281.85 203.511 280.058C204.535 278.522 205.559 274.425 205.559 271.353C205.559 267.768 201.206 260.855 194.549 254.454C188.661 248.309 173.298 238.068 159.472 231.155C146.158 224.242 130.284 215.281 124.139 211.184C118.25 207.343 112.105 201.455 110.569 198.382C108.521 194.029 108.521 191.725 110.569 189.933C112.447 188.226 116.97 188.567 124.139 190.957C130.284 192.749 150.511 201.711 168.946 210.672C187.636 219.633 203.511 226.546 204.279 225.778C205.047 225.01 203.255 221.426 200.694 217.329C198.134 213.488 189.173 204.015 180.979 196.334C179.679 195.152 178.264 193.861 176.768 192.497C176.767 192.495 176.765 192.494 176.763 192.492C168.543 184.993 157.914 175.298 150.767 169.45C142.574 162.281 134.893 154.344 133.868 151.527C132.844 148.711 132.332 144.87 132.844 143.078C133.356 141.542 135.917 140.005 138.221 140.005C140.781 139.749 150.255 144.87 159.472 150.759C168.434 156.904 185.844 171.242 197.878 182.764C209.912 194.286 221.177 203.759 222.714 204.015C225.274 204.015 225.53 202.223 222.97 195.566C221.433 191.213 217.081 182.252 213.752 175.851C210.168 169.45 202.487 156.904 196.598 147.687C190.709 138.469 185.332 128.484 184.308 125.155C183.113 121.4 183.796 118.669 186.356 116.962C188.661 115.426 191.989 115.426 194.549 116.706C197.11 117.986 202.999 123.363 207.607 128.74C212.472 134.373 223.226 150.503 231.931 164.841C240.636 179.435 248.573 191.213 249.598 191.213C250.878 191.213 250.878 179.435 250.11 164.841C249.796 146.09 250.481 142.213 251.696 135.336C251.716 135.219 251.737 135.102 251.758 134.983C252.473 130.93 253.546 127.89 258.732 127.89C263.918 127.89 266.752 149.735 269.569 163.049C272.385 176.363 275.457 187.885 276.226 188.653C276.994 189.421 284.419 182.508 292.612 173.29C301.061 164.073 312.327 150.247 317.448 142.566C325.129 130.788 326.921 125.667 327.945 111.841C328.969 97.7593 328.201 92.8946 322.568 81.1168C318.984 73.4357 311.815 62.426 306.182 57.0493C300.805 51.6725 291.844 44.5034 286.211 41.1749C280.578 38.1025 269.569 33.7498 261.887 31.4455C253.182 28.8851 239.1 27.3489 224.762 27.6049Z" />
<path d="M196.598 29.1411C199.414 28.373 211.96 27.8609 224.762 27.6049C239.1 27.3489 253.182 28.8851 261.887 31.4455C269.569 33.7498 280.578 38.1025 286.211 41.1749C291.844 44.5034 300.805 51.6725 306.182 57.0493C311.815 62.426 318.984 73.4357 322.568 81.1168C328.201 92.8946 328.969 97.7593 327.945 111.841C326.921 125.667 325.129 130.788 317.448 142.566C312.327 150.247 301.061 164.073 292.612 173.29C284.419 182.508 276.994 189.421 276.226 188.653C275.457 187.885 272.385 176.363 269.569 163.049C266.752 149.735 263.918 127.89 258.732 127.89C253.546 127.89 252.473 130.93 251.758 134.983L251.696 135.336C250.481 142.213 249.796 146.09 250.11 164.841C250.878 179.435 250.878 191.213 249.598 191.213C248.573 191.213 240.636 179.435 231.931 164.841C223.226 150.503 212.472 134.373 207.607 128.74C202.999 123.363 197.11 117.986 194.549 116.706C191.989 115.426 188.661 115.426 186.356 116.962C183.796 118.669 183.113 121.4 184.308 125.155C185.332 128.484 190.709 138.469 196.598 147.687C202.487 156.904 210.168 169.45 213.752 175.851C217.081 182.252 221.433 191.213 222.97 195.566C225.53 202.223 225.274 204.015 222.714 204.015C221.177 203.759 209.912 194.286 197.878 182.764C185.844 171.242 168.434 156.904 159.472 150.759C150.255 144.87 140.781 139.749 138.221 140.005C135.917 140.005 133.356 141.542 132.844 143.078C132.332 144.87 132.844 148.711 133.868 151.527C134.893 154.344 142.574 162.281 150.767 169.45C157.914 175.298 168.543 184.993 176.763 192.492L176.768 192.497C178.264 193.861 179.679 195.152 180.979 196.334C189.173 204.015 198.134 213.488 200.694 217.329C203.255 221.426 205.047 225.01 204.279 225.778C203.511 226.546 187.636 219.633 168.946 210.672C150.511 201.711 130.284 192.749 124.139 190.957C116.97 188.567 112.447 188.226 110.569 189.933C108.521 191.725 108.521 194.029 110.569 198.382C112.105 201.455 118.25 207.343 124.139 211.184C130.284 215.281 146.158 224.242 159.472 231.155C173.298 238.068 188.661 248.309 194.549 254.454C201.206 260.855 205.559 267.768 205.559 271.353C205.559 274.425 204.535 278.522 203.511 280.058C202.487 281.85 197.622 284.411 192.757 285.947C187.892 287.227 176.883 288.507 168.434 288.507C159.984 288.507 148.719 289.788 143.342 291.068C136.941 292.86 133.356 295.42 132.332 299.517C131.564 302.846 132.332 306.43 134.381 307.966C136.173 309.503 155.12 313.343 176.115 316.416C197.366 319.488 221.945 321.792 231.163 321.536C240.38 321.28 250.366 322.304 253.694 323.841C256.767 325.633 260.095 329.986 260.863 334.082C261.887 337.923 261.375 348.42 259.583 357.638C257.791 366.855 253.694 378.889 250.366 384.522C247.037 390.154 241.148 397.067 237.052 400.14C233.211 402.956 226.554 407.309 222.202 409.357C217.849 411.406 207.607 414.478 199.158 416.27C187.636 418.575 179.443 418.575 165.873 416.27C155.12 414.734 139.245 409.357 126.187 402.956C108.777 394.763 100.327 388.618 83.9411 371.976C72.4194 360.454 58.8494 343.812 53.4726 334.594C48.0958 325.377 40.9267 309.759 37.8543 300.029C34.5258 290.3 30.4292 271.609 29.149 259.063C27.6128 244.469 27.3567 228.851 28.8929 216.817C30.1731 206.319 32.9896 190.701 35.2939 182.252C37.3422 173.802 43.7431 157.672 48.8639 146.406C54.2407 135.141 63.202 119.522 68.8348 111.841C74.4677 104.16 84.1971 92.6385 90.5981 86.4936C96.743 80.3487 107.497 70.8753 114.666 65.4985C121.579 60.1217 134.381 52.4406 142.83 48.344C151.279 44.2474 165.617 38.6145 174.835 35.5421C176.539 35.0213 178.261 34.4917 179.954 33.9712C187.414 31.6769 194.302 29.5585 196.598 29.1411Z" class="fill-accent"/>
</svg>
