<svg viewBox="0 0 296 106" fill="none" xmlns="http://www.w3.org/2000/svg">
<path fill-rule="evenodd" clip-rule="evenodd" d="M295.076 17.1841C295.076 18.6485 295.076 20.1412 295.076 21.662C294.991 22.9293 294.231 23.8587 292.879 24.0277C292.429 24.084 292.006 24.1121 291.612 24.1121H291.274H286.458C282.91 24.1121 280.459 25.9709 279.277 29.6039C278.77 31.0402 278.685 32.4765 278.601 34.0818C278.601 34.645 278.573 35.2083 278.516 35.7715C278.404 37.1797 278.319 38.5878 278.263 39.9959C278.178 41.6012 278.094 43.291 277.925 44.9808L277.756 46.755C277.587 48.5293 277.418 50.3036 277.164 52.0778C276.404 56.2178 275.559 59.8508 274.376 63.1458C272.011 69.5669 268.8 75.5656 264.491 81.6488C261.618 85.6197 258.239 89.3372 254.352 92.8012C248.523 97.955 241.848 101.673 234.329 103.785C229.428 105.221 224.106 105.812 218.107 105.39C208.222 104.883 199.266 101.757 191.493 96.0963C186.001 92.1253 181.354 86.9715 177.468 80.4659C175.271 76.9174 173.75 73.8758 172.568 71.0032C172.399 70.5526 172.202 70.1302 171.976 69.7359C171.892 69.4824 171.807 69.4824 171.807 69.4824C171.807 69.4824 171.751 69.4824 171.638 69.4824C171.638 69.9894 171.807 70.4963 172.061 71.1722L173.835 75.8191C173.948 76.157 174.06 76.495 174.173 76.8329C174.342 77.8468 173.919 78.9451 173.075 79.4521C172.23 79.8745 171.216 79.8745 170.371 79.3676C169.526 78.8607 169.019 78.0158 168.681 77.4244C167.245 74.9742 166.147 72.2706 165.302 69.06C163.95 63.9062 163.02 58.7524 162.514 53.6831C162.457 53.0635 162.401 52.4721 162.345 51.9088C162.176 50.8105 162.007 49.7121 162.007 48.5293C162.007 48.3603 162.007 48.1632 162.007 47.9379C162.007 47.7126 162.007 47.4873 162.007 47.262C162.007 46.0791 162.598 45.1497 163.696 44.6428C163.922 44.5302 164.175 44.4175 164.457 44.3049L164.288 43.122C164.062 41.4886 163.837 39.8833 163.612 38.3062C163.443 37.2078 163.443 36.2785 163.443 35.4336C163.443 34.5887 163.274 33.9973 162.598 33.4059C161.753 32.6455 160.993 31.7161 160.232 30.7867L160.063 30.6177C159.218 29.6039 158.205 29.1814 156.768 29.1814C154.459 29.1251 152.15 29.0688 149.84 29.0124L147.559 28.928L144.855 29.0124C142.715 29.0688 140.547 29.1251 138.35 29.1814C136.829 29.1814 135.646 29.7729 134.632 30.9557C133.872 31.8851 133.112 32.8144 132.267 33.6593C131.844 34.1662 131.675 34.5042 131.76 34.9266C131.844 36.9544 131.506 38.8976 131.253 40.7564C131.14 41.4323 131.028 42.1082 130.915 42.7841C130.859 43.0094 130.83 43.2347 130.83 43.46C130.774 43.6853 130.746 43.8825 130.746 44.0514C130.69 44.1078 130.661 44.1922 130.661 44.3049C130.718 44.3049 130.774 44.3049 130.83 44.3049C132.098 44.8118 133.534 45.9101 133.196 48.4448L133.027 49.5432C132.774 51.6554 132.52 53.7676 132.351 55.8798C132.013 58.8369 131.506 61.8785 130.577 65.9339C129.563 70.3273 128.465 73.9603 126.437 77.3399C126.099 78.0158 125.761 78.5227 125.339 78.9452C124.719 79.5084 124.015 79.7618 123.226 79.7055C122.466 79.7055 121.79 79.3676 121.368 78.7762C120.945 78.2692 120.776 77.5933 120.945 76.9174C120.945 76.5795 121.114 76.326 121.199 76.157L121.79 74.5517C122.213 73.3689 122.635 72.1861 123.142 71.0032C123.311 70.4963 123.395 69.9894 123.395 69.4824C123.283 69.4824 123.226 69.4824 123.226 69.4824C123.057 69.7359 122.973 70.0738 122.804 70.4118C121.283 74.1293 119.34 77.8468 116.89 81.6488C113.172 87.4785 109.117 92.0409 104.385 95.5894C99.4852 99.3069 93.9089 102.01 87.8257 103.7C83.3479 104.968 78.6165 105.559 73.6317 105.559C71.9982 105.559 70.3085 105.503 68.5624 105.39C64.4225 105.052 60.1135 103.954 55.5511 102.095C51.0733 100.236 46.6799 97.6171 42.5399 94.4065C38.1465 90.858 34.0911 86.4646 30.2046 80.9728C26.5716 75.9035 23.7835 70.8343 21.6713 65.596C19.9815 61.2026 18.7142 56.5557 18.0383 51.9088C17.4469 48.4448 17.1934 44.9808 16.9399 41.6012L16.8554 39.5735C16.6865 37.4613 16.602 35.3491 16.5175 33.2369C16.3485 30.4488 15.6726 28.3365 14.3208 26.6468C13.0535 25.126 11.6171 24.3656 9.92738 24.1966C8.57556 24.1122 7.30825 24.1121 5.95644 24.1121H3.67524C3.22463 24.1121 2.77402 24.084 2.32342 24.0277C0.971602 23.9432 0.126733 22.9293 0.0422442 21.662C-0.0140814 20.0286 -0.0140814 18.3951 0.0422442 16.7616C0.126733 15.4098 1.14059 14.4805 2.4924 14.4805L3.50628 14.396C5.11156 14.396 6.80132 14.396 8.49109 14.4805C10.4343 14.6495 12.2931 14.5649 14.2363 14.6494C14.6306 14.6494 14.884 14.5931 14.9967 14.4805C16.1795 13.6356 17.5314 13.4666 18.7142 13.2976C20.404 13.2131 21.9248 12.6217 23.7835 11.9458L24.2904 11.6923C26.3181 10.9038 28.3459 10.0871 30.3736 9.24218C34.2601 7.55241 38.4 6.36959 42.371 5.18675L44.9056 4.42633C48.7076 3.24349 52.4251 2.39861 56.0581 1.89168L57.7478 1.63822C62.7327 0.962314 67.8865 0.201887 73.2093 0.708818C75.4904 0.877795 77.6871 1.04681 79.8838 1.38477C83.8548 1.97619 87.1498 2.56756 90.1914 3.24347C93.3175 4.00387 95.9366 4.84875 98.3023 5.77812C103.879 8.05931 108.441 10.425 112.412 13.1286C114.102 14.227 115.876 15.5788 117.65 17.0996C120.297 19.24 122.888 21.4085 125.423 23.6052L128.718 26.3933C128.831 26.506 128.943 26.5905 129.056 26.6468C129.056 26.5623 129.141 26.4778 129.31 26.3933C129.817 26.1399 130.239 25.8864 130.661 25.5484C133.112 23.6897 135.984 22.7603 139.364 22.5913C142.574 22.4224 145.869 22.4224 148.995 22.4224C150.291 22.4787 151.558 22.4787 152.797 22.4224C154.403 22.5068 156.008 22.5068 157.613 22.6758C160.063 23.0983 162.091 23.8587 163.865 25.0415C164.626 25.633 165.386 26.1399 166.062 26.5623C166.118 26.6186 166.175 26.6468 166.231 26.6468C166.231 26.6468 166.259 26.6186 166.316 26.5623L168.343 24.7036C169.413 23.8023 170.455 22.9011 171.469 21.9999C175.018 18.9583 178.566 16.0012 182.284 13.2976C184.818 11.6078 187.607 10.0026 191.155 8.22831C196.393 5.69366 201.378 3.91941 206.363 2.90555C209.658 2.14515 213.714 1.38473 217.853 1.13126C218.36 1.13126 218.867 1.04681 219.374 0.962325C220.05 0.793348 220.726 0.708818 221.402 0.708818C224.19 0.62433 226.64 0.539862 229.006 0.62435C230.949 0.708839 232.892 0.962294 234.92 1.30025C237.624 1.72269 240.496 2.14514 243.453 2.73656C245.481 3.159 247.762 3.75042 250.382 4.42633C253.423 5.32754 256.436 6.2569 259.422 7.21444C262.041 8.05932 264.66 9.1577 267.11 10.2561L269.391 11.1009C270.574 11.6079 271.785 12.0866 273.024 12.5372C273.869 12.8752 274.968 13.2131 276.151 13.2976C277.333 13.3821 278.601 13.6356 279.868 14.3115C280.206 14.565 280.628 14.6494 281.304 14.6494C281.98 14.6494 282.656 14.6494 283.332 14.6494C284.599 14.5649 285.782 14.565 287.049 14.4805C288.57 14.3115 290.091 14.396 291.612 14.396H292.457C294.738 14.4804 295.076 16.0012 295.076 17.1841ZM271.419 39.7425C271.335 38.0527 271.25 36.025 271.081 34.0818C270.912 31.6316 270.236 29.2659 269.053 26.8158C267.279 23.0983 264.407 19.7187 260.436 16.6772C256.634 13.7201 252.156 11.4389 246.495 9.41117C242.017 7.7214 237.117 6.62305 231.963 6.03163C230.048 5.80633 228.048 5.69366 225.964 5.69366C223.824 5.69366 221.571 5.80633 219.205 6.03163C215.91 6.36959 212.531 6.79199 208.982 7.46789C206.363 7.97482 203.321 8.65074 200.449 9.74909C193.859 12.3682 188.367 15.4943 183.805 19.2963C180.256 22.1689 177.468 25.8019 175.44 30.2798C173.919 33.5748 172.906 37.1234 172.314 41.1788C171.723 44.6428 171.638 48.2758 172.061 52.4158C172.314 55.3729 173.075 58.5834 174.342 62.5544C175.863 67.4547 178.059 72.1861 180.679 76.5795C184.396 82.5782 188.62 87.4785 193.605 91.2804C196.985 93.9841 200.787 96.0963 204.927 97.6171C208.644 98.9689 212.7 99.8983 217.262 100.321C222.838 100.828 228.077 100.405 232.977 98.9689C240.158 96.9412 246.749 93.1392 252.578 87.6475C255.535 84.8593 258.154 81.8177 260.436 78.6072C264.829 72.524 267.871 66.0184 269.56 59.2594C270.912 54.1056 271.504 48.6138 271.588 41.5168L271.419 39.7425ZM23.699 41.9392V42.0237C23.699 42.6996 23.699 43.4037 23.699 44.1359C23.699 45.5722 23.6145 47.093 23.7835 48.6138C24.2904 55.4573 25.7267 61.456 28.0924 67.1168C29.9511 71.5102 32.4858 75.8191 35.7808 80.2125C37.3861 82.4092 39.2449 84.5214 41.2726 86.5491C43.2158 88.4079 45.2435 90.1821 47.5247 91.8719C55.5511 97.6171 63.831 100.405 72.9558 100.49C74.5611 100.49 76.2508 100.405 78.532 100.236C81.7426 99.8983 84.9531 99.2224 88.2482 98.2085C96.9505 95.5049 104.132 90.3511 110.3 82.4092C113.088 78.8606 115.453 74.9742 117.397 70.8342C120.354 64.7511 122.128 58.8369 122.888 52.6692C123.902 44.8118 122.719 36.9544 119.255 29.4349C117.397 25.295 114.355 21.662 110.469 18.5359C107.427 16.1702 103.879 13.9735 99.2317 11.6923C95.8521 10.087 92.1347 8.81974 88.2482 7.97486C84.8686 7.21446 81.4891 6.70753 78.0251 6.28509C74.9835 5.94713 72.0827 5.77812 69.3228 5.77812C65.2673 5.77812 61.3809 6.11612 57.7478 6.87652C50.9043 8.22833 44.8211 10.425 39.1604 13.6356C34.598 16.2547 31.134 19.2118 28.5148 22.5913C26.0647 25.8864 24.6284 29.3504 24.037 33.1524C23.6145 36.1095 23.699 39.1511 23.699 41.9392Z" />
</svg>
