<svg viewBox="0 0 296 106" fill="none" xmlns="http://www.w3.org/2000/svg">
<path fill-rule="evenodd" clip-rule="evenodd" d="M295.076 17.1228C295.076 18.5873 295.076 20.0799 295.076 21.6007C294.991 22.868 294.231 23.7974 292.879 23.9664C292.429 24.0227 292.006 24.0508 291.612 24.0508H291.274H286.458C282.91 24.0508 280.459 25.9096 279.277 29.5426C278.77 30.9789 278.685 32.4152 278.601 34.0205C278.601 34.5837 278.573 35.147 278.516 35.7102C278.404 37.1184 278.319 38.5265 278.263 39.9347C278.178 41.5399 278.094 43.2297 277.925 44.9195L277.756 46.6937C277.587 48.468 277.418 50.2423 277.164 52.0166C276.404 56.1565 275.559 59.7895 274.376 63.0845C272.011 69.5056 268.8 75.5043 264.491 81.5875C261.618 85.5585 258.239 89.2759 254.352 92.7399C248.523 97.8937 241.848 101.611 234.329 103.723C229.428 105.16 224.106 105.751 218.107 105.329C208.222 104.822 199.266 101.696 191.493 96.035C186.001 92.0641 181.354 86.9103 177.468 80.4047C175.271 76.8561 173.75 73.8145 172.568 70.9419C172.399 70.4913 172.202 70.0689 171.976 69.6746C171.892 69.4211 171.807 69.4212 171.807 69.4212C171.807 69.4212 171.751 69.4212 171.638 69.4212C171.638 69.9281 171.807 70.435 172.061 71.1109L173.835 75.7578C173.948 76.0957 174.06 76.4337 174.173 76.7717C174.342 77.7855 173.919 78.8839 173.075 79.3908C172.23 79.8132 171.216 79.8132 170.371 79.3063C169.526 78.7994 169.019 77.9545 168.681 77.3631C167.245 74.9129 166.147 72.2093 165.302 68.9987C163.95 63.8449 163.02 58.6911 162.514 53.6218C162.457 53.0022 162.401 52.4108 162.345 51.8476C162.176 50.7492 162.007 49.6509 162.007 48.468C162.007 48.2991 162.007 48.1019 162.007 47.8766C162.007 47.6513 162.007 47.426 162.007 47.2007C162.007 46.0179 162.598 45.0885 163.696 44.5815C163.922 44.4689 164.175 44.3563 164.457 44.2436L164.288 43.0607C164.062 41.4273 163.837 39.822 163.612 38.2449C163.443 37.1465 163.443 36.2172 163.443 35.3723C163.443 34.5274 163.274 33.936 162.598 33.3446C161.753 32.5842 160.993 31.6548 160.232 30.7255L160.063 30.5565C159.218 29.5426 158.205 29.1202 156.768 29.1202C154.459 29.0638 152.15 29.0075 149.84 28.9512L147.559 28.8667L144.855 28.9512C142.715 29.0075 140.547 29.0638 138.35 29.1202C136.829 29.1202 135.646 29.7116 134.632 30.8944C133.872 31.8238 133.112 32.7531 132.267 33.598C131.844 34.105 131.675 34.4429 131.76 34.8654C131.844 36.8931 131.506 38.8363 131.253 40.6951C131.14 41.371 131.028 42.0469 130.915 42.7228C130.859 42.9481 130.83 43.1734 130.83 43.3987C130.774 43.624 130.746 43.8212 130.746 43.9902C130.69 44.0465 130.661 44.131 130.661 44.2436C130.718 44.2436 130.774 44.2436 130.83 44.2436C132.098 44.7505 133.534 45.8489 133.196 48.3835L133.027 49.4819C132.774 51.5941 132.52 53.7063 132.351 55.8185C132.013 58.7756 131.506 61.8172 130.577 65.8726C129.563 70.266 128.465 73.899 126.437 77.2786C126.099 77.9545 125.761 78.4614 125.339 78.8839C124.719 79.4471 124.015 79.7006 123.226 79.6442C122.466 79.6442 121.79 79.3063 121.368 78.7149C120.945 78.208 120.776 77.532 120.945 76.8561C120.945 76.5182 121.114 76.2647 121.199 76.0958L121.79 74.4905C122.213 73.3076 122.635 72.1248 123.142 70.9419C123.311 70.435 123.395 69.9281 123.395 69.4212C123.283 69.4212 123.226 69.4212 123.226 69.4212C123.057 69.6746 122.973 70.0126 122.804 70.3505C121.283 74.068 119.34 77.7855 116.89 81.5875C113.172 87.4172 109.117 91.9796 104.385 95.5281C99.4852 99.2456 93.9089 101.949 87.8257 103.639C83.3479 104.906 78.6165 105.498 73.6317 105.498C71.9982 105.498 70.3085 105.441 68.5624 105.329C64.4225 104.991 60.1135 103.892 55.5511 102.034C51.0733 100.175 46.6799 97.5558 42.5399 94.3452C38.1465 90.7967 34.0911 86.4033 30.2046 80.9116C26.5716 75.8423 23.7835 70.773 21.6713 65.5347C19.9815 61.1413 18.7142 56.4944 18.0383 51.8476C17.4469 48.3835 17.1934 44.9195 16.9399 41.54L16.8554 39.5122C16.6865 37.4 16.602 35.2878 16.5175 33.1756C16.3485 30.3875 15.6726 28.2753 14.3208 26.5855C13.0535 25.0647 11.6171 24.3043 9.92738 24.1354C8.57556 24.0509 7.30825 24.0508 5.95644 24.0508H3.67524C3.22463 24.0508 2.77402 24.0227 2.32342 23.9664C0.971602 23.8819 0.126733 22.868 0.0422442 21.6007C-0.0140814 19.9673 -0.0140814 18.3338 0.0422442 16.7003C0.126733 15.3485 1.14059 14.4192 2.4924 14.4192L3.50628 14.3347C5.11156 14.3347 6.80132 14.3347 8.49109 14.4192C10.4343 14.5882 12.2931 14.5036 14.2363 14.5881C14.6306 14.5881 14.884 14.5318 14.9967 14.4192C16.1795 13.5743 17.5314 13.4053 18.7142 13.2363C20.404 13.1518 21.9248 12.5605 23.7835 11.8845L24.2904 11.631C26.3181 10.8425 28.3459 10.0258 30.3736 9.1809C34.2601 7.49113 38.4 6.30831 42.371 5.12547L44.9056 4.36505C48.7076 3.18221 52.4251 2.33733 56.0581 1.8304L57.7478 1.57694C62.7327 0.901035 67.8865 0.140608 73.2093 0.647539C75.4904 0.816516 77.6871 0.985534 79.8838 1.32349C83.8548 1.91491 87.1498 2.50628 90.1914 3.18219C93.3175 3.94259 95.9366 4.78747 98.3023 5.71685C103.879 7.99803 108.441 10.3637 112.412 13.0674C114.102 14.1657 115.876 15.5175 117.65 17.0383C120.297 19.1787 122.888 21.3472 125.423 23.5439L128.718 26.332C128.831 26.4447 128.943 26.5292 129.056 26.5855C129.056 26.501 129.141 26.4165 129.31 26.332C129.817 26.0786 130.239 25.8251 130.661 25.4872C133.112 23.6284 135.984 22.699 139.364 22.5301C142.574 22.3611 145.869 22.3611 148.995 22.3611C150.291 22.4174 151.558 22.4174 152.797 22.3611C154.403 22.4456 156.008 22.4456 157.613 22.6145C160.063 23.037 162.091 23.7974 163.865 24.9803C164.626 25.5717 165.386 26.0786 166.062 26.501C166.118 26.5574 166.175 26.5855 166.231 26.5855C166.231 26.5855 166.259 26.5574 166.316 26.501L168.343 24.6423C169.413 23.7411 170.455 22.8398 171.469 21.9386C175.018 18.8971 178.566 15.94 182.284 13.2363C184.818 11.5466 187.607 9.94129 191.155 8.16703C196.393 5.63238 201.378 3.85813 206.363 2.84427C209.658 2.08387 213.714 1.32345 217.853 1.06998C218.36 1.06998 218.867 0.985534 219.374 0.901045C220.05 0.732069 220.726 0.647539 221.402 0.647539C224.19 0.56305 226.64 0.478583 229.006 0.563071C230.949 0.647559 232.892 0.901014 234.92 1.23897C237.624 1.66141 240.496 2.08386 243.453 2.67528C245.481 3.09772 247.762 3.68914 250.382 4.36505C253.423 5.26626 256.436 6.19562 259.422 7.15316C262.041 7.99804 264.66 9.09642 267.11 10.1948L269.391 11.0397C270.574 11.5466 271.785 12.0253 273.024 12.4759C273.869 12.8139 274.968 13.1518 276.151 13.2363C277.333 13.3208 278.601 13.5743 279.868 14.2502C280.206 14.5037 280.628 14.5881 281.304 14.5881C281.98 14.5881 282.656 14.5881 283.332 14.5881C284.599 14.5036 285.782 14.5037 287.049 14.4192C288.57 14.2502 290.091 14.3347 291.612 14.3347H292.457C294.738 14.4192 295.076 15.9399 295.076 17.1228ZM271.419 39.6812C271.335 37.9914 271.25 35.9637 271.081 34.0205C270.912 31.5703 270.236 29.2047 269.053 26.7545C267.279 23.037 264.407 19.6575 260.436 16.6159C256.634 13.6588 252.156 11.3776 246.495 9.34989C242.017 7.66012 237.117 6.56177 231.963 5.97035C230.048 5.74505 228.048 5.63238 225.964 5.63238C223.824 5.63238 221.571 5.74505 219.205 5.97035C215.91 6.30831 212.531 6.73071 208.982 7.40661C206.363 7.91355 203.321 8.58946 200.449 9.68781C193.859 12.307 188.367 15.433 183.805 19.235C180.256 22.1076 177.468 25.7406 175.44 30.2185C173.919 33.5135 172.906 37.0621 172.314 41.1175C171.723 44.5816 171.638 48.2145 172.061 52.3545C172.314 55.3116 173.075 58.5221 174.342 62.4931C175.863 67.3934 178.059 72.1248 180.679 76.5182C184.396 82.5169 188.62 87.4172 193.605 91.2192C196.985 93.9228 200.787 96.035 204.927 97.5558C208.644 98.9076 212.7 99.837 217.262 100.259C222.838 100.766 228.077 100.344 232.977 98.9076C240.158 96.8799 246.749 93.0779 252.578 87.5862C255.535 84.7981 258.154 81.7565 260.436 78.5459C264.829 72.4627 267.871 65.9572 269.56 59.1981C270.912 54.0443 271.504 48.5525 271.588 41.4555L271.419 39.6812ZM23.699 41.8779V41.9624C23.699 42.6383 23.699 43.3424 23.699 44.0746C23.699 45.5109 23.6145 47.0317 23.7835 48.5525C24.2904 55.3961 25.7267 61.3948 28.0924 67.0555C29.9511 71.4489 32.4858 75.7578 35.7808 80.1512C37.3861 82.3479 39.2449 84.4601 41.2726 86.4878C43.2158 88.3466 45.2435 90.1208 47.5247 91.8106C55.5511 97.5558 63.831 100.344 72.9558 100.428C74.5611 100.428 76.2508 100.344 78.532 100.175C81.7426 99.837 84.9531 99.1611 88.2482 98.1472C96.9505 95.4436 104.132 90.2898 110.3 82.3479C113.088 78.7994 115.453 74.9129 117.397 70.773C120.354 64.6898 122.128 58.7756 122.888 52.6079C123.902 44.7505 122.719 36.8931 119.255 29.3736C117.397 25.2337 114.355 21.6007 110.469 18.4746C107.427 16.109 103.879 13.9122 99.2317 11.631C95.8521 10.0258 92.1347 8.75846 88.2482 7.91358C84.8686 7.15318 81.4891 6.64625 78.0251 6.22381C74.9835 5.88585 72.0827 5.71685 69.3228 5.71685C65.2673 5.71685 61.3809 6.05484 57.7478 6.81524C50.9043 8.16705 44.8211 10.3638 39.1604 13.5743C34.598 16.1935 31.134 19.1505 28.5148 22.5301C26.0647 25.8251 24.6284 29.2891 24.037 33.0911C23.6145 36.0482 23.699 39.0898 23.699 41.8779Z" fill="#05244D"/>
</svg>
