<svg viewBox="0 0 1025 301" xmlns="http://www.w3.org/2000/svg">
<path d="M1024.51 159.274C1024.51 159.866 1024.19 160.276 1023.65 160.276H1008.39V160.914C1008.39 166.333 1010.53 168.337 1014.72 168.337C1017.36 168.337 1020.73 168.155 1022.83 167.836C1022.92 167.836 1022.96 167.836 1023.06 167.836C1023.42 167.836 1023.78 168.018 1023.78 168.474V170.022C1023.78 170.614 1023.6 170.933 1022.87 171.07C1020.28 171.571 1017.77 171.844 1014.72 171.844C1009.48 171.844 1004.38 169.384 1004.38 160.914V156.815C1004.38 150.302 1007.98 146.158 1014.49 146.158C1021.14 146.158 1024.51 150.348 1024.51 156.815V159.274ZM1020.46 157.225V156.815C1020.46 151.668 1018.5 149.664 1014.49 149.664C1010.58 149.664 1008.39 151.896 1008.39 156.815V157.225H1020.46Z"/>
<path d="M1000.16 148.845C1000.16 149.346 999.838 149.619 999.201 149.619C997.106 149.619 995.193 150.165 992.916 151.532V170.614C992.916 171.07 992.506 171.525 992.005 171.525H989.774C989.318 171.525 988.908 171.115 988.908 170.614V147.387C988.908 146.886 989.273 146.477 989.774 146.477H991.914C992.415 146.477 992.779 146.886 992.779 147.387V148.344C995.056 146.75 997.151 146.158 999.201 146.158C999.838 146.158 1000.16 146.431 1000.16 146.977V148.845Z"/>
<path d="M980.897 170.614C980.897 171.115 980.487 171.525 979.986 171.525H977.891C977.39 171.525 976.98 171.115 976.98 170.614V169.612C974.794 170.887 972.517 171.844 969.966 171.844C966.095 171.844 962.543 170.159 962.543 164.466V163.919C962.543 159.001 965.412 156.541 973.519 156.541H976.889V154.72C976.889 150.894 975.568 149.573 972.016 149.573C969.056 149.573 966.87 149.756 965.048 149.938C964.957 149.938 964.911 149.938 964.82 149.938C964.41 149.938 964 149.801 964 149.209V147.615C964 147.114 964.319 146.841 964.957 146.75C966.824 146.431 968.919 146.158 972.016 146.158C978.346 146.158 980.897 149.346 980.897 154.72V170.614ZM976.889 166.743V159.411H973.519C968.008 159.411 966.551 160.64 966.551 163.874V164.42C966.551 167.699 968.099 168.565 970.741 168.565C972.836 168.565 974.703 167.927 976.889 166.743Z"/>
<path d="M956.93 170.341C956.93 170.888 956.52 171.161 956.019 171.252C954.106 171.616 952.33 171.844 948.459 171.844C942.857 171.844 936.436 168.838 936.436 157.771V151.441C936.436 140.283 942.857 137.368 948.459 137.368C951.328 137.368 954.106 137.778 956.11 138.097C956.52 138.142 956.839 138.279 956.839 138.689V141.012C956.839 141.285 956.748 141.513 956.292 141.513C956.247 141.513 956.201 141.513 956.156 141.513C954.516 141.376 951.146 141.103 948.504 141.103C944.041 141.103 940.58 143.699 940.58 151.441V157.771C940.58 165.422 944.041 168.109 948.504 168.109C951.1 168.109 954.379 167.882 956.019 167.745C956.064 167.745 956.156 167.745 956.201 167.745C956.702 167.745 956.93 167.973 956.93 168.474V170.341Z"/>
<path d="M916.99 147.251C916.99 147.342 916.99 147.479 916.945 147.57L909.43 173.802C908.018 178.721 906.333 180.542 901.096 180.542C899.821 180.542 898.227 180.36 897.27 180.133C896.724 179.996 896.314 179.859 896.314 179.404V177.719C896.314 177.218 896.678 176.99 897.179 176.99C897.225 176.99 897.27 176.99 897.316 176.99C898.318 177.081 900.367 177.263 901.369 177.263C903.965 177.263 905.103 176.58 905.878 173.392L906.333 171.525H905.696C904.329 171.525 903.145 171.206 902.325 168.383L896.268 147.57C896.223 147.479 896.223 147.342 896.223 147.251C896.223 146.795 896.496 146.477 897.042 146.477H899.547C899.912 146.477 900.23 146.841 900.321 147.205L905.696 166.971C905.923 167.882 906.242 167.973 906.561 167.973H907.29L912.846 147.16C912.937 146.795 913.301 146.477 913.711 146.477H916.261C916.717 146.477 916.99 146.795 916.99 147.251Z"/>
<path d="M891.132 159.274C891.132 159.866 890.813 160.276 890.266 160.276H875.01V160.914C875.01 166.333 877.15 168.337 881.34 168.337C883.982 168.337 887.352 168.155 889.447 167.836C889.538 167.836 889.583 167.836 889.674 167.836C890.039 167.836 890.403 168.018 890.403 168.474V170.022C890.403 170.614 890.221 170.933 889.492 171.07C886.896 171.571 884.391 171.844 881.34 171.844C876.103 171.844 871.002 169.384 871.002 160.914V156.815C871.002 150.302 874.6 146.158 881.112 146.158C887.762 146.158 891.132 150.348 891.132 156.815V159.274ZM887.079 157.225V156.815C887.079 151.668 885.12 149.664 881.112 149.664C877.196 149.664 875.01 151.896 875.01 156.815V157.225H887.079Z"/>
<path d="M863.808 170.614C863.808 171.115 863.398 171.525 862.897 171.525H860.711C860.21 171.525 859.8 171.115 859.8 170.614V155.631C859.8 151.031 858.252 149.619 854.791 149.619C852.878 149.619 850.737 150.348 848.643 151.395V170.614C848.643 171.07 848.233 171.525 847.732 171.525H845.5C845.045 171.525 844.635 171.115 844.635 170.614V147.387C844.635 146.886 844.999 146.477 845.5 146.477H847.777C848.278 146.477 848.643 146.886 848.643 147.387V148.253C851.147 146.841 853.197 146.158 855.884 146.158C861.349 146.158 863.808 149.573 863.808 155.631V170.614Z"/>
<path d="M836.602 170.022C836.602 170.614 836.466 170.933 835.646 171.069C832.822 171.616 830.044 171.844 827.266 171.844C820.48 171.844 817.338 167.426 817.338 160.595V157.316C817.338 150.165 820.617 146.158 827.266 146.158C828.678 146.158 830.819 146.294 832.595 146.613V138.142C832.595 137.687 832.959 137.277 833.46 137.277H835.783C836.238 137.277 836.602 137.641 836.602 138.142V170.022ZM832.595 168.064V149.983C831.092 149.71 828.724 149.664 827.266 149.664C822.803 149.664 821.346 152.443 821.346 157.316V160.595C821.346 165.559 822.757 168.337 827.266 168.337C828.815 168.337 831.046 168.2 832.595 168.064Z"/>
<path d="M809.666 141.558C809.666 142.059 809.256 142.469 808.755 142.469H806.432C805.931 142.469 805.521 142.059 805.521 141.558V137.915C805.521 137.414 805.931 137.004 806.432 137.004H808.755C809.256 137.004 809.666 137.414 809.666 137.915V141.558ZM809.575 170.614C809.575 171.115 809.165 171.525 808.664 171.525H806.478C805.977 171.525 805.567 171.115 805.567 170.614V147.388C805.567 146.887 805.977 146.477 806.478 146.477H808.664C809.165 146.477 809.575 146.887 809.575 147.388V170.614Z"/>
<path d="M798.155 171.069C798.155 171.297 797.973 171.525 797.563 171.525H794.011C793.601 171.525 793.282 171.388 793.009 171.069L780.166 155.448V170.614C780.166 171.069 779.847 171.525 779.346 171.525H776.841C776.386 171.525 776.021 171.115 776.021 170.614V138.552C776.021 138.096 776.386 137.687 776.887 137.687H779.301C779.756 137.687 780.166 138.051 780.166 138.552V153.262L793.282 138.096C793.555 137.823 793.738 137.687 794.193 137.687H797.472C797.927 137.687 798.11 137.914 798.11 138.187C798.11 138.324 798.064 138.506 797.927 138.643L784.219 154.127L797.927 170.523C798.064 170.659 798.155 170.887 798.155 171.069Z"/>
<path d="M987.659 103.076C987.659 103.577 987.34 103.85 986.703 103.85C984.608 103.85 982.695 104.397 980.418 105.763V124.846C980.418 125.301 980.008 125.756 979.507 125.756H977.275C976.82 125.756 976.41 125.347 976.41 124.846V101.619C976.41 101.118 976.774 100.708 977.275 100.708H979.416C979.917 100.708 980.281 101.118 980.281 101.619V102.575C982.558 100.981 984.653 100.389 986.703 100.389C987.34 100.389 987.659 100.662 987.659 101.209V103.076Z"/>
<path d="M969.204 114.963C969.204 121.658 965.743 126.075 959.048 126.075C952.353 126.075 948.938 121.658 948.938 114.963V111.502C948.938 104.807 952.353 100.389 959.048 100.389C965.743 100.389 969.204 104.807 969.204 111.502V114.963ZM965.196 114.963V111.502C965.196 106.856 963.329 103.896 959.048 103.896C954.813 103.896 952.945 106.811 952.945 111.502V114.963C952.945 119.608 954.767 122.568 959.048 122.568C963.283 122.568 965.196 119.654 965.196 114.963Z"/>
<path d="M944.711 93.6035C944.711 94.1044 944.393 94.2866 943.892 94.2866H941.706C939.565 94.2866 938.927 94.9242 938.927 97.4291V100.708H943.709C944.21 100.708 944.575 101.072 944.575 101.528V103.304C944.575 103.759 944.21 104.078 943.709 104.078H938.927V124.846C938.927 125.301 938.518 125.757 938.062 125.757H935.831C935.33 125.757 934.92 125.301 934.92 124.846V104.078L930.502 103.577C930.001 103.532 929.637 103.213 929.637 102.758V101.528C929.637 101.072 930.001 100.708 930.502 100.708H934.92V97.4291C934.92 92.556 937.288 91.0986 941.296 91.0986C942.525 91.0986 943.254 91.2353 943.846 91.3719C944.347 91.5085 944.711 91.6907 944.711 92.1006V93.6035Z"/>
<path d="M912.351 103.076C912.351 103.577 912.032 103.85 911.394 103.85C909.299 103.85 907.386 104.397 905.109 105.763V124.846C905.109 125.301 904.699 125.756 904.198 125.756H901.967C901.511 125.756 901.102 125.347 901.102 124.846V101.619C901.102 101.118 901.466 100.708 901.967 100.708H904.107C904.608 100.708 904.973 101.118 904.973 101.619V102.575C907.25 100.981 909.345 100.389 911.394 100.389C912.032 100.389 912.351 100.662 912.351 101.209V103.076Z"/>
<path d="M893.802 113.505C893.802 114.097 893.483 114.507 892.936 114.507H877.68V115.145C877.68 120.565 879.82 122.568 884.01 122.568C886.652 122.568 890.022 122.386 892.117 122.067C892.208 122.067 892.253 122.067 892.344 122.067C892.709 122.067 893.073 122.25 893.073 122.705V124.254C893.073 124.846 892.891 125.164 892.162 125.301C889.566 125.802 887.061 126.075 884.01 126.075C878.773 126.075 873.672 123.616 873.672 115.145V111.046C873.672 104.534 877.27 100.389 883.782 100.389C890.432 100.389 893.802 104.579 893.802 111.046V113.505ZM889.748 111.456V111.046C889.748 105.9 887.79 103.896 883.782 103.896C879.866 103.896 877.68 106.128 877.68 111.046V111.456H889.748Z"/>
<path d="M868.429 125.073C868.429 125.483 868.201 125.757 867.609 125.848C866.698 125.984 865.514 126.075 864.649 126.075C860.459 126.075 858.455 124.982 858.455 119.973V104.078L854.037 103.577C853.536 103.532 853.172 103.258 853.172 102.758V101.528C853.172 101.027 853.536 100.708 854.037 100.708H858.455V96.2449C858.455 95.7895 858.774 95.4252 859.275 95.3341L861.643 94.9697C861.688 94.9697 861.734 94.9697 861.779 94.9697C862.144 94.9697 862.463 95.2885 862.463 95.744V100.708H867.381C867.882 100.708 868.292 101.118 868.292 101.619V103.167C868.292 103.668 867.882 104.078 867.381 104.078H862.463V119.973C862.463 122.477 863.1 122.842 864.922 122.842H867.472C868.11 122.842 868.429 123.024 868.429 123.479V125.073Z"/>
<path d="M848.004 124.846C848.004 125.347 847.594 125.756 847.093 125.756H844.907C844.406 125.756 843.996 125.347 843.996 124.846V109.862C843.996 105.262 842.447 103.85 838.986 103.85C837.073 103.85 834.933 104.579 832.838 105.627V124.846C832.838 125.301 832.428 125.756 831.927 125.756H829.695C829.24 125.756 828.83 125.347 828.83 124.846V101.619C828.83 101.118 829.194 100.708 829.695 100.708H831.973C832.473 100.708 832.838 101.118 832.838 101.619V102.484C835.343 101.072 837.392 100.389 840.079 100.389C845.544 100.389 848.004 103.805 848.004 109.862V124.846Z"/>
<path d="M821.53 113.505C821.53 114.097 821.211 114.507 820.665 114.507H805.408V115.145C805.408 120.565 807.549 122.568 811.739 122.568C814.38 122.568 817.75 122.386 819.845 122.067C819.936 122.067 819.982 122.067 820.073 122.067C820.437 122.067 820.802 122.25 820.802 122.705V124.254C820.802 124.846 820.619 125.164 819.891 125.301C817.295 125.802 814.79 126.075 811.739 126.075C806.501 126.075 801.4 123.616 801.4 115.145V111.046C801.4 104.534 804.998 100.389 811.511 100.389C818.16 100.389 821.53 104.579 821.53 111.046V113.505ZM817.477 111.456V111.046C817.477 105.9 815.519 103.896 811.511 103.896C807.594 103.896 805.408 106.128 805.408 111.046V111.456H817.477Z"/>
<path d="M795.695 124.572C795.695 125.119 795.285 125.392 794.785 125.483C792.872 125.848 791.096 126.075 787.224 126.075C781.623 126.075 775.201 123.07 775.201 112.003V105.672C775.201 94.5143 781.623 91.5996 787.224 91.5996C790.094 91.5996 792.872 92.0095 794.876 92.3283C795.285 92.3738 795.604 92.5105 795.604 92.9203V95.243C795.604 95.5163 795.513 95.744 795.058 95.744C795.012 95.744 794.967 95.744 794.921 95.744C793.282 95.6074 789.911 95.3341 787.27 95.3341C782.807 95.3341 779.346 97.93 779.346 105.672V112.003C779.346 119.654 782.807 122.341 787.27 122.341C789.866 122.341 793.145 122.113 794.785 121.977C794.83 121.977 794.921 121.977 794.967 121.977C795.468 121.977 795.695 122.204 795.695 122.705V124.572Z"/>
<path d="M701.924 111.092V97.2178H706.617L708.677 107.746L710.718 97.2178H715.369V111.092H712.758V99.6662H712.391L710.371 110.48H706.923L704.923 99.6662H704.535V111.092H701.924Z"/>
<path d="M692.055 99.6662V97.2178H700.971V99.6662H697.951V111.092H695.136V99.6662H692.055Z"/>
<rect x="733.791" y="59.0996" width="3.61012" height="141.741"/>
<path d="M677.39 97.071V111.126C677.39 111.126 660.719 109.434 649.844 109.434C640.928 109.434 637.151 110.726 637.151 116.468C637.151 121.153 640.324 122.362 652.868 124.327C672.816 127.5 679.889 132.741 679.889 147.703C679.889 165.384 667.98 171.93 649.392 171.93C638.662 171.93 621.132 168.605 621.132 168.605V154.018C621.132 154.018 640.022 156.203 647.729 156.203C658.308 156.203 662.129 154.175 662.129 148.13C662.129 143.294 659.819 142.008 647.729 140.043C628.386 136.87 619.201 132.648 619.201 116.931C619.201 99.7033 633.341 93.2827 648.453 93.2827C659.485 93.2827 677.39 97.071 677.39 97.071Z"/>
<path d="M590.813 95.6094H609.174V170.136H590.813V166.532C590.813 166.532 578.901 171.93 570.654 171.93C548.662 171.93 543.965 160.834 543.965 134.595V95.6094H561.78V134.445C561.78 150.338 562.657 156.302 574.264 156.302C580.984 156.302 590.813 153.037 590.813 153.037V95.6094Z"/>
<path d="M510.389 169.998V74.5879H528.883V169.998H510.389Z"/>
<path d="M490.433 118.584V149.715C490.584 155.004 492.247 156.516 496.629 157.271V171.486C483.767 171.93 480.308 170.117 475.774 166.641C475.774 166.641 462.778 171.93 451.142 171.93C436.785 171.93 428.422 162.791 428.422 147.83C428.422 131.66 438.145 125.989 454.466 124.78L473.205 123.269V118.735C473.205 112.842 469.921 110.242 464.178 110.242C452.995 110.242 433.242 111.308 433.242 111.308V96.6288C433.242 96.6288 452.995 93.7143 464.178 93.7143C480.801 93.7143 490.433 99.9963 490.433 118.584ZM472.704 137.298L456.582 137.625C450.084 138.23 446.277 140.906 446.277 147.102C446.277 153.449 449.479 156.563 454.466 156.563C462.476 156.563 472.704 154.159 472.704 154.159V137.298Z"/>
<path d="M369.102 170.111H351.412V95.4469H369.102V99.1876C369.102 99.1876 381.361 93.6514 389.895 93.6514C411.465 93.6514 416.896 105.921 416.896 131.058V170.111H399.206V131.208C399.206 116.993 397.344 109.662 386.482 109.662C379.654 109.662 369.102 113.103 369.102 113.103L369.102 170.111Z"/>
<path d="M310.121 155.946C322.202 155.946 338.186 154.81 338.186 154.81V168.386C338.186 168.386 324.087 171.77 307.565 171.77C284.475 171.77 273.98 162.233 273.98 133.8C273.98 105.367 286.297 93.3057 307.552 93.3057C329.266 93.3057 340.428 104.273 340.428 127.696C340.428 132.598 339.729 140.419 339.729 140.419H291.955C292.108 151.451 297.735 155.946 310.121 155.946ZM292.011 126.495H322.765C322.765 113.347 318.409 109.136 307.552 109.136C296.695 109.136 292.011 113.952 292.011 126.495Z"/>
<path d="M226.129 170.144V104.833C226.129 104.833 238.801 100.172 244.21 98.7432C249.618 97.3139 255.025 96.5682 267.826 94.3311V112.352C254.963 114.279 244.21 116.889 244.21 116.889V170.144H226.129Z"/>
<path fill-rule="evenodd" clip-rule="evenodd" d="M114.322 0.962693C109.663 1.52744 101.757 3.08049 96.674 4.49235C91.5913 5.90421 82.9789 9.0103 77.6139 11.5517C72.2488 13.9518 63.6364 18.7521 58.5537 22.1406C53.471 25.5291 45.2822 32.5884 40.1995 37.6711C35.1168 42.7538 28.3399 50.6602 25.0926 55.3194C21.9865 59.9785 17.4685 67.6026 15.2096 72.2617C12.8094 76.9208 9.56211 84.6861 7.86788 89.6276C6.31483 94.4279 3.91467 104.311 2.64399 111.37C1.09094 120.547 0.526199 128.595 1.23213 137.913C1.65569 145.679 3.49111 156.691 5.6089 164.033C7.72669 170.951 11.8211 181.54 15.0684 187.328C18.1745 193.117 23.9631 202.012 28.0575 206.953C32.0107 212.036 39.07 219.095 43.7292 222.907C48.3883 226.719 57.283 232.226 63.4952 235.332C69.7074 238.297 78.3198 241.544 82.5554 242.391C86.791 243.379 95.4033 244.226 101.616 244.085C108.957 244.085 116.158 242.956 122.088 241.12C127.17 239.426 134.23 235.896 138.042 233.214C141.712 230.531 146.654 225.59 148.913 222.201C151.313 218.954 154.278 212.742 155.549 208.506C156.233 205.94 157.151 203.525 157.573 201.528C158.185 198.631 158.062 195.693 159.082 195.693C160.102 195.693 161.126 198.419 162.467 200.741C164.067 203.513 169.95 213.165 175.032 223.331C179.974 233.496 185.621 247.05 187.598 253.686C189.575 260.322 191.812 267.481 192.518 272.563C195.461 293.754 192.872 299.169 194.48 300.044C199.395 300.044 203.6 296.45 206.445 293.804C209.114 291.323 213.435 286.865 215.835 283.335C218.235 279.805 221.341 274.723 222.612 272.04C223.742 269.358 225.577 263.287 226.565 258.627C227.554 253.686 227.977 246.062 227.554 240.273C226.989 234.343 225.153 226.437 222.753 220.507C220.494 215.142 215.129 205.259 210.894 198.623C206.517 191.988 195.222 176.739 185.762 164.739C176.444 152.738 166.561 138.337 163.879 132.972C159.502 124.077 159.219 122.806 160.914 119.559C161.902 117.582 167.973 109.958 174.326 102.617C180.821 95.2751 187.457 86.9451 189.292 84.2625C190.986 81.58 193.528 75.509 194.798 70.8498C196.493 64.7788 196.916 60.1197 196.21 54.6134C195.646 50.2367 193.104 42.3302 190.139 36.4004C186.468 28.9176 182.656 23.976 177.15 19.0345C172.915 15.2225 165.573 10.4222 160.914 8.16319C156.255 6.0454 149.195 3.50405 145.383 2.65693C141.43 1.80981 134.794 0.821508 130.559 0.539136C126.323 0.256763 118.981 0.397948 114.322 0.962693ZM124.205 15.2225C117.146 15.3637 110.228 15.6461 108.675 16.0696C107.409 16.2998 103.611 17.4679 99.4968 18.733C98.5634 19.0201 97.6139 19.3121 96.674 19.5993C91.5913 21.2935 83.6849 24.3996 79.0257 26.6586C74.3666 28.9176 67.3073 33.1531 63.4952 36.1181C59.542 39.083 53.6122 44.3068 50.2237 47.6953C46.6941 51.0838 41.329 57.4372 38.2229 61.6727C35.1168 65.9083 30.1753 74.5207 27.2104 80.7329C24.3867 86.9451 20.857 95.8398 19.7275 100.499C18.4568 105.158 16.9038 113.77 16.1979 119.559C15.3507 126.195 15.4919 134.807 16.339 142.855C17.045 149.773 19.304 160.079 21.1394 165.445C22.8336 170.81 26.7868 179.422 29.7517 184.505C32.7166 189.587 40.1995 198.765 46.5529 205.118C55.5888 214.295 60.248 217.683 69.8486 222.201C77.0491 225.731 85.8027 228.696 91.7325 229.543C99.2154 230.814 103.733 230.814 110.087 229.543C114.746 228.555 120.393 226.861 122.793 225.731C125.194 224.602 128.864 222.201 130.982 220.648C133.241 218.954 136.489 215.142 138.324 212.036C140.159 208.93 142.418 202.294 143.407 197.211C144.395 192.129 144.677 186.34 144.113 184.222C143.689 181.963 141.854 179.563 140.159 178.575C138.324 177.728 132.818 177.163 127.735 177.304C122.652 177.445 109.098 176.175 97.3799 174.48C85.8027 172.786 75.3549 170.668 74.3666 169.821C73.2371 168.974 72.8135 166.998 73.2371 165.162C73.8018 162.903 75.7784 161.491 79.3081 160.503C82.273 159.797 88.4852 159.091 93.1443 159.091C97.8035 159.091 103.874 158.385 106.557 157.679C109.24 156.832 111.922 155.42 112.487 154.432C113.052 153.585 113.616 151.326 113.616 149.632C113.616 147.655 111.216 143.843 107.545 140.313C104.298 136.925 95.8269 131.278 88.2028 127.465C80.8611 123.653 72.1076 118.712 68.7191 116.453C65.4718 114.335 62.0834 111.088 61.2363 109.394C60.1068 106.994 60.1068 105.723 61.2363 104.735C62.2716 103.793 64.7659 103.982 68.7191 105.299C72.1076 106.288 83.2613 111.229 93.4267 116.171C103.733 121.112 112.487 124.924 112.91 124.501C113.334 124.077 112.346 122.1 110.934 119.841C109.522 117.724 104.58 112.5 100.062 108.264C99.3471 107.614 98.5686 106.904 97.7462 106.153C97.7433 106.151 97.7405 106.148 97.7376 106.146C93.2048 102.011 87.3438 96.6643 83.4025 93.4396C78.8845 89.4864 74.6489 85.1096 74.0842 83.5566C73.5195 82.0035 73.2371 79.8857 73.5195 78.8974C73.8018 78.0503 75.2137 77.2032 76.4844 77.2032C77.8962 77.062 83.1201 79.8858 88.2028 83.133C93.1443 86.5215 102.745 94.4279 109.381 100.781C116.017 107.135 122.229 112.359 123.076 112.5C124.488 112.5 124.629 111.511 123.217 107.841C122.37 105.44 119.97 100.499 118.134 96.9693C116.158 93.4396 111.922 86.5215 108.675 81.4388C105.428 76.3561 102.463 70.8498 101.898 69.0144C101.239 66.9437 101.616 65.4377 103.027 64.4965C104.298 63.6494 106.133 63.6494 107.545 64.3553C108.957 65.0612 112.204 68.0261 114.746 70.991C117.428 74.0971 123.358 82.9918 128.159 90.8983C132.959 98.9459 137.336 105.44 137.9 105.44C138.606 105.44 138.606 98.9459 138.183 90.8983C138.01 80.5584 138.388 78.4203 139.057 74.6283C139.069 74.564 139.08 74.4991 139.092 74.4338C139.486 72.1987 140.078 70.5225 142.937 70.5225C145.797 70.5225 147.36 82.5683 148.913 89.91C150.466 97.2516 152.16 103.605 152.584 104.029C153.007 104.452 157.102 100.64 161.62 95.5574C166.279 90.4747 172.491 82.8507 175.315 78.6151C179.55 72.1205 180.539 69.2968 181.103 61.6727C181.668 53.9075 181.245 51.225 178.138 44.7304C176.162 40.4948 172.209 34.4238 169.103 31.4589C166.138 28.494 161.196 24.5408 158.09 22.7054C154.984 21.0111 148.913 18.611 144.677 17.3403C139.877 15.9284 132.112 15.0813 124.205 15.2225Z" class="fill-accent"/>
</svg>
