<svg viewBox="0 0 296 106" fill="none" xmlns="http://www.w3.org/2000/svg">
<path fill-rule="evenodd" clip-rule="evenodd" d="M295.076 17.1074C295.076 18.5719 295.076 20.0645 295.076 21.5853C294.991 22.8527 294.231 23.782 292.879 23.951C292.429 24.0073 292.006 24.0355 291.612 24.0355H291.274H286.458C282.91 24.0355 280.459 25.8942 279.277 29.5272C278.77 30.9635 278.685 32.3998 278.601 34.0051C278.601 34.5683 278.573 35.1316 278.516 35.6949C278.404 37.103 278.319 38.5111 278.263 39.9193C278.178 41.5246 278.094 43.2144 277.925 44.9041L277.756 46.6784C277.587 48.4526 277.418 50.2269 277.164 52.0012C276.404 56.1411 275.559 59.7741 274.376 63.0691C272.011 69.4903 268.8 75.489 264.491 81.5721C261.618 85.5431 258.239 89.2605 254.352 92.7246C248.523 97.8784 241.848 101.596 234.329 103.708C229.428 105.144 224.106 105.736 218.107 105.313C208.222 104.806 199.266 101.68 191.493 96.0196C186.001 92.0487 181.354 86.8949 177.468 80.3893C175.271 76.8408 173.75 73.7992 172.568 70.9266C172.399 70.476 172.202 70.0535 171.976 69.6592C171.892 69.4058 171.807 69.4058 171.807 69.4058C171.807 69.4058 171.751 69.4058 171.638 69.4058C171.638 69.9127 171.807 70.4196 172.061 71.0955L173.835 75.7424C173.948 76.0804 174.06 76.4183 174.173 76.7563C174.342 77.7701 173.919 78.8685 173.075 79.3754C172.23 79.7978 171.216 79.7979 170.371 79.2909C169.526 78.784 169.019 77.9391 168.681 77.3477C167.245 74.8975 166.147 72.1939 165.302 68.9833C163.95 63.8295 163.02 58.6757 162.514 53.6064C162.457 52.9868 162.401 52.3954 162.345 51.8322C162.176 50.7338 162.007 49.6355 162.007 48.4526C162.007 48.2837 162.007 48.0865 162.007 47.8612C162.007 47.6359 162.007 47.4106 162.007 47.1853C162.007 46.0025 162.598 45.0731 163.696 44.5661C163.922 44.4535 164.175 44.3409 164.457 44.2282L164.288 43.0454C164.062 41.4119 163.837 39.8066 163.612 38.2295C163.443 37.1312 163.443 36.2018 163.443 35.3569C163.443 34.5121 163.274 33.9206 162.598 33.3292C161.753 32.5688 160.993 31.6394 160.232 30.7101L160.063 30.5411C159.218 29.5272 158.205 29.1048 156.768 29.1048C154.459 29.0484 152.15 28.9921 149.84 28.9358L147.559 28.8513L144.855 28.9358C142.715 28.9921 140.547 29.0484 138.35 29.1048C136.829 29.1048 135.646 29.6962 134.632 30.8791C133.872 31.8084 133.112 32.7378 132.267 33.5827C131.844 34.0896 131.675 34.4275 131.76 34.85C131.844 36.8777 131.506 38.821 131.253 40.6797C131.14 41.3556 131.028 42.0315 130.915 42.7074C130.859 42.9327 130.83 43.158 130.83 43.3833C130.774 43.6086 130.746 43.8058 130.746 43.9748C130.69 44.0311 130.661 44.1156 130.661 44.2282C130.718 44.2282 130.774 44.2282 130.83 44.2282C132.098 44.7352 133.534 45.8335 133.196 48.3681L133.027 49.4665C132.774 51.5787 132.52 53.6909 132.351 55.8032C132.013 58.7603 131.506 61.8018 130.577 65.8573C129.563 70.2506 128.465 73.8837 126.437 77.2632C126.099 77.9391 125.761 78.446 125.339 78.8685C124.719 79.4317 124.015 79.6852 123.226 79.6289C122.466 79.6289 121.79 79.2909 121.368 78.6995C120.945 78.1926 120.776 77.5167 120.945 76.8407C120.945 76.5028 121.114 76.2494 121.199 76.0804L121.79 74.4751C122.213 73.2922 122.635 72.1094 123.142 70.9266C123.311 70.4196 123.395 69.9127 123.395 69.4058C123.283 69.4058 123.226 69.4058 123.226 69.4058C123.057 69.6592 122.973 69.9972 122.804 70.3351C121.283 74.0526 119.34 77.7702 116.89 81.5721C113.172 87.4018 109.117 91.9642 104.385 95.5127C99.4852 99.2302 93.9089 101.934 87.8257 103.624C83.3479 104.891 78.6165 105.482 73.6317 105.482C71.9982 105.482 70.3085 105.426 68.5624 105.313C64.4225 104.975 60.1135 103.877 55.5511 102.018C51.0733 100.16 46.6799 97.5404 42.5399 94.3299C38.1465 90.7814 34.0911 86.3879 30.2046 80.8962C26.5716 75.8269 23.7835 70.7576 21.6713 65.5193C19.9815 61.1259 18.7142 56.4791 18.0383 51.8322C17.4469 48.3682 17.1934 44.9041 16.9399 41.5246L16.8554 39.4968C16.6865 37.3846 16.602 35.2724 16.5175 33.1602C16.3485 30.3721 15.6726 28.2599 14.3208 26.5701C13.0535 25.0493 11.6171 24.289 9.92738 24.12C8.57556 24.0355 7.30825 24.0355 5.95644 24.0355H3.67524C3.22463 24.0355 2.77402 24.0073 2.32342 23.951C0.971602 23.8665 0.126733 22.8527 0.0422442 21.5853C-0.0140814 19.9519 -0.0140814 18.3184 0.0422442 16.685C0.126733 15.3331 1.14059 14.4038 2.4924 14.4038L3.50628 14.3193C5.11156 14.3193 6.80132 14.3193 8.49109 14.4038C10.4343 14.5728 12.2931 14.4883 14.2363 14.5728C14.6306 14.5728 14.884 14.5165 14.9967 14.4038C16.1795 13.5589 17.5314 13.3899 18.7142 13.221C20.404 13.1365 21.9248 12.5451 23.7835 11.8692L24.2904 11.6157C26.3181 10.8271 28.3459 10.0104 30.3736 9.16552C34.2601 7.47575 38.4 6.29292 42.371 5.11009L44.9056 4.34967C48.7076 3.16683 52.4251 2.32195 56.0581 1.81502L57.7478 1.56156C62.7327 0.885654 67.8865 0.125227 73.2093 0.632158C75.4904 0.801135 77.6871 0.970153 79.8838 1.30811C83.8548 1.89953 87.1498 2.4909 90.1914 3.16681C93.3175 3.92721 95.9366 4.77209 98.3023 5.70146C103.879 7.98265 108.441 10.3483 112.412 13.052C114.102 14.1503 115.876 15.5021 117.65 17.0229C120.297 19.1633 122.888 21.3319 125.423 23.5286L128.718 26.3167C128.831 26.4293 128.943 26.5138 129.056 26.5701C129.056 26.4856 129.141 26.4012 129.31 26.3167C129.817 26.0632 130.239 25.8097 130.661 25.4718C133.112 23.613 135.984 22.6837 139.364 22.5147C142.574 22.3457 145.869 22.3457 148.995 22.3457C150.291 22.402 151.558 22.402 152.797 22.3457C154.403 22.4302 156.008 22.4302 157.613 22.5992C160.063 23.0216 162.091 23.782 163.865 24.9649C164.626 25.5563 165.386 26.0632 166.062 26.4857C166.118 26.542 166.175 26.5701 166.231 26.5701C166.231 26.5701 166.259 26.542 166.316 26.4857L168.343 24.6269C169.413 23.7257 170.455 22.8245 171.469 21.9233C175.018 18.8817 178.566 15.9246 182.284 13.221C184.818 11.5312 187.607 9.92591 191.155 8.15165C196.393 5.617 201.378 3.84275 206.363 2.82889C209.658 2.06849 213.714 1.30807 217.853 1.0546C218.36 1.0546 218.867 0.970153 219.374 0.885665C220.05 0.716688 220.726 0.632158 221.402 0.632158C224.19 0.54767 226.64 0.463202 229.006 0.54769C230.949 0.632179 232.892 0.885634 234.92 1.22359C237.624 1.64603 240.496 2.06848 243.453 2.6599C245.481 3.08234 247.762 3.67376 250.382 4.34967C253.423 5.25088 256.436 6.18024 259.422 7.13778C262.041 7.98266 264.66 9.08104 267.11 10.1794L269.391 11.0243C270.574 11.5312 271.785 12.0099 273.024 12.4605C273.869 12.7985 274.968 13.1365 276.151 13.221C277.333 13.3054 278.601 13.5589 279.868 14.2348C280.206 14.4883 280.628 14.5728 281.304 14.5728C281.98 14.5728 282.656 14.5728 283.332 14.5728C284.599 14.4883 285.782 14.4883 287.049 14.4038C288.57 14.2348 290.091 14.3193 291.612 14.3193H292.457C294.738 14.4038 295.076 15.9246 295.076 17.1074ZM271.419 39.6658C271.335 37.9761 271.25 35.9483 271.081 34.0051C270.912 31.5549 270.236 29.1893 269.053 26.7391C267.279 23.0216 264.407 19.6421 260.436 16.6005C256.634 13.6434 252.156 11.3622 246.495 9.33451C242.017 7.64474 237.117 6.54639 231.963 5.95497C230.048 5.72967 228.048 5.617 225.964 5.617C223.824 5.617 221.571 5.72967 219.205 5.95497C215.91 6.29292 212.531 6.71533 208.982 7.39123C206.363 7.89816 203.321 8.57408 200.449 9.67243C193.859 12.2916 188.367 15.4176 183.805 19.2196C180.256 22.0922 177.468 25.7252 175.44 30.2031C173.919 33.4982 172.906 37.0467 172.314 41.1021C171.723 44.5662 171.638 48.1992 172.061 52.3391C172.314 55.2962 173.075 58.5068 174.342 62.4777C175.863 67.378 178.059 72.1094 180.679 76.5028C184.396 82.5015 188.62 87.4018 193.605 91.2038C196.985 93.9074 200.787 96.0196 204.927 97.5404C208.644 98.8922 212.7 99.8216 217.262 100.244C222.838 100.751 228.077 100.329 232.977 98.8923C240.158 96.8645 246.749 93.0625 252.578 87.5708C255.535 84.7827 258.154 81.7411 260.436 78.5305C264.829 72.4473 267.871 65.9418 269.56 59.1827C270.912 54.0289 271.504 48.5371 271.588 41.4401L271.419 39.6658ZM23.699 41.8626V41.947C23.699 42.6229 23.699 43.327 23.699 44.0592C23.699 45.4955 23.6145 47.0163 23.7835 48.5371C24.2904 55.3807 25.7267 61.3794 28.0924 67.0401C29.9511 71.4335 32.4858 75.7424 35.7808 80.1358C37.3861 82.3325 39.2449 84.4447 41.2726 86.4725C43.2158 88.3312 45.2435 90.1054 47.5247 91.7952C55.5511 97.5404 63.831 100.329 72.9558 100.413C74.5611 100.413 76.2508 100.329 78.532 100.16C81.7426 99.8216 84.9531 99.1457 88.2482 98.1318C96.9505 95.4282 104.132 90.2744 110.3 82.3325C113.088 78.784 115.453 74.8975 117.397 70.7576C120.354 64.6744 122.128 58.7602 122.888 52.5926C123.902 44.7351 122.719 36.8777 119.255 29.3582C117.397 25.2183 114.355 21.5853 110.469 18.4593C107.427 16.0936 103.879 13.8968 99.2317 11.6157C95.8521 10.0104 92.1347 8.74308 88.2482 7.8982C84.8686 7.1378 81.4891 6.63087 78.0251 6.20843C74.9835 5.87047 72.0827 5.70146 69.3228 5.70146C65.2673 5.70146 61.3809 6.03946 57.7478 6.79986C50.9043 8.15167 44.8211 10.3484 39.1604 13.5589C34.598 16.1781 31.134 19.1351 28.5148 22.5147C26.0647 25.8097 24.6284 29.2738 24.037 33.0757C23.6145 36.0328 23.699 39.0744 23.699 41.8626Z" fill="#1D4F91"/>
</svg>
