<svg viewBox="0 0 296 106" fill="none" xmlns="http://www.w3.org/2000/svg">
<path fill-rule="evenodd" clip-rule="evenodd" d="M295.076 17.1533C295.076 18.6178 295.076 20.1104 295.076 21.6312C294.991 22.8986 294.231 23.8279 292.879 23.9969C292.429 24.0532 292.006 24.0814 291.612 24.0814H291.274H286.458C282.91 24.0814 280.459 25.9401 279.277 29.5731C278.77 31.0094 278.685 32.4457 278.601 34.051C278.601 34.6142 278.573 35.1775 278.516 35.7408C278.404 37.1489 278.319 38.557 278.263 39.9652C278.178 41.5705 278.094 43.2603 277.925 44.95L277.756 46.7243C277.587 48.4985 277.418 50.2728 277.164 52.0471C276.404 56.187 275.559 59.82 274.376 63.115C272.011 69.5362 268.8 75.5349 264.491 81.618C261.618 85.589 258.239 89.3064 254.352 92.7705C248.523 97.9243 241.848 101.642 234.329 103.754C229.428 105.19 224.106 105.782 218.107 105.359C208.222 104.852 199.266 101.726 191.493 96.0655C186.001 92.0946 181.354 86.9408 177.468 80.4352C175.271 76.8867 173.75 73.8451 172.568 70.9725C172.399 70.5219 172.202 70.0994 171.976 69.7051C171.892 69.4517 171.807 69.4517 171.807 69.4517C171.807 69.4517 171.751 69.4517 171.638 69.4517C171.638 69.9586 171.807 70.4655 172.061 71.1414L173.835 75.7883C173.948 76.1263 174.06 76.4642 174.173 76.8022C174.342 77.816 173.919 78.9144 173.075 79.4213C172.23 79.8437 171.216 79.8438 170.371 79.3368C169.526 78.8299 169.019 77.985 168.681 77.3936C167.245 74.9434 166.147 72.2398 165.302 69.0292C163.95 63.8754 163.02 58.7216 162.514 53.6523C162.457 53.0327 162.401 52.4413 162.345 51.8781C162.176 50.7797 162.007 49.6814 162.007 48.4985C162.007 48.3296 162.007 48.1324 162.007 47.9071C162.007 47.6818 162.007 47.4565 162.007 47.2312C162.007 46.0484 162.598 45.119 163.696 44.612C163.922 44.4994 164.175 44.3868 164.457 44.2741L164.288 43.0913C164.062 41.4578 163.837 39.8525 163.612 38.2754C163.443 37.1771 163.443 36.2477 163.443 35.4028C163.443 34.558 163.274 33.9665 162.598 33.3751C161.753 32.6147 160.993 31.6853 160.232 30.756L160.063 30.587C159.218 29.5731 158.205 29.1507 156.768 29.1507C154.459 29.0943 152.15 29.038 149.84 28.9817L147.559 28.8972L144.855 28.9817C142.715 29.038 140.547 29.0943 138.35 29.1507C136.829 29.1507 135.646 29.7421 134.632 30.925C133.872 31.8543 133.112 32.7837 132.267 33.6285C131.844 34.1355 131.675 34.4734 131.76 34.8959C131.844 36.9236 131.506 38.8669 131.253 40.7256C131.14 41.4015 131.028 42.0774 130.915 42.7533C130.859 42.9786 130.83 43.2039 130.83 43.4292C130.774 43.6545 130.746 43.8517 130.746 44.0207C130.69 44.077 130.661 44.1615 130.661 44.2741C130.718 44.2741 130.774 44.2741 130.83 44.2741C132.098 44.7811 133.534 45.8794 133.196 48.414L133.027 49.5124C132.774 51.6246 132.52 53.7368 132.351 55.8491C132.013 58.8062 131.506 61.8477 130.577 65.9031C129.563 70.2965 128.465 73.9296 126.437 77.3091C126.099 77.985 125.761 78.4919 125.339 78.9144C124.719 79.4776 124.015 79.7311 123.226 79.6748C122.466 79.6748 121.79 79.3368 121.368 78.7454C120.945 78.2385 120.776 77.5626 120.945 76.8866C120.945 76.5487 121.114 76.2953 121.199 76.1263L121.79 74.521C122.213 73.3381 122.635 72.1553 123.142 70.9725C123.311 70.4655 123.395 69.9586 123.395 69.4517C123.283 69.4517 123.226 69.4517 123.226 69.4517C123.057 69.7051 122.973 70.0431 122.804 70.381C121.283 74.0985 119.34 77.8161 116.89 81.618C113.172 87.4477 109.117 92.0101 104.385 95.5586C99.4852 99.2761 93.9089 101.98 87.8257 103.669C83.3479 104.937 78.6165 105.528 73.6317 105.528C71.9982 105.528 70.3085 105.472 68.5624 105.359C64.4225 105.021 60.1135 103.923 55.5511 102.064C51.0733 100.205 46.6799 97.5863 42.5399 94.3758C38.1465 90.8273 34.0911 86.4338 30.2046 80.9421C26.5716 75.8728 23.7835 70.8035 21.6713 65.5652C19.9815 61.1718 18.7142 56.5249 18.0383 51.8781C17.4469 48.4141 17.1934 44.95 16.9399 41.5705L16.8554 39.5427C16.6865 37.4305 16.602 35.3183 16.5175 33.2061C16.3485 30.418 15.6726 28.3058 14.3208 26.616C13.0535 25.0952 11.6171 24.3349 9.92738 24.1659C8.57556 24.0814 7.30825 24.0814 5.95644 24.0814H3.67524C3.22463 24.0814 2.77402 24.0532 2.32342 23.9969C0.971602 23.9124 0.126733 22.8986 0.0422442 21.6312C-0.0140814 19.9978 -0.0140814 18.3643 0.0422442 16.7309C0.126733 15.379 1.14059 14.4497 2.4924 14.4497L3.50628 14.3652C5.11156 14.3652 6.80132 14.3652 8.49109 14.4497C10.4343 14.6187 12.2931 14.5342 14.2363 14.6186C14.6306 14.6186 14.884 14.5624 14.9967 14.4497C16.1795 13.6048 17.5314 13.4358 18.7142 13.2669C20.404 13.1824 21.9248 12.591 23.7835 11.9151L24.2904 11.6616C26.3181 10.873 28.3459 10.0563 30.3736 9.21142C34.2601 7.52165 38.4 6.33882 42.371 5.15599L44.9056 4.39557C48.7076 3.21273 52.4251 2.36785 56.0581 1.86092L57.7478 1.60746C62.7327 0.931553 67.8865 0.171126 73.2093 0.678056C75.4904 0.847033 77.6871 1.01605 79.8838 1.35401C83.8548 1.94542 87.1498 2.5368 90.1914 3.21271C93.3175 3.97311 95.9366 4.81799 98.3023 5.74736C103.879 8.02855 108.441 10.3942 112.412 13.0979C114.102 14.1962 115.876 15.548 117.65 17.0688C120.297 19.2092 122.888 21.3778 125.423 23.5745L128.718 26.3626C128.831 26.4752 128.943 26.5597 129.056 26.616C129.056 26.5315 129.141 26.4471 129.31 26.3626C129.817 26.1091 130.239 25.8556 130.661 25.5177C133.112 23.6589 135.984 22.7296 139.364 22.5606C142.574 22.3916 145.869 22.3916 148.995 22.3916C150.291 22.4479 151.558 22.4479 152.797 22.3916C154.403 22.4761 156.008 22.4761 157.613 22.6451C160.063 23.0675 162.091 23.8279 163.865 25.0108C164.626 25.6022 165.386 26.1091 166.062 26.5316C166.118 26.5879 166.175 26.616 166.231 26.616C166.231 26.616 166.259 26.5879 166.316 26.5316L168.343 24.6728C169.413 23.7716 170.455 22.8704 171.469 21.9692C175.018 18.9276 178.566 15.9705 182.284 13.2669C184.818 11.5771 187.607 9.97181 191.155 8.19755C196.393 5.6629 201.378 3.88865 206.363 2.87479C209.658 2.11439 213.714 1.35396 217.853 1.1005C218.36 1.1005 218.867 1.01605 219.374 0.931563C220.05 0.762586 220.726 0.678056 221.402 0.678056C224.19 0.593568 226.64 0.5091 229.006 0.593589C230.949 0.678077 232.892 0.931532 234.92 1.26949C237.624 1.69193 240.496 2.11438 243.453 2.7058C245.481 3.12824 247.762 3.71966 250.382 4.39557C253.423 5.29678 256.436 6.22614 259.422 7.18368C262.041 8.02856 264.66 9.12694 267.11 10.2253L269.391 11.0702C270.574 11.5771 271.785 12.0558 273.024 12.5064C273.869 12.8444 274.968 13.1824 276.151 13.2669C277.333 13.3513 278.601 13.6048 279.868 14.2807C280.206 14.5342 280.628 14.6186 281.304 14.6186C281.98 14.6186 282.656 14.6186 283.332 14.6186C284.599 14.5342 285.782 14.5342 287.049 14.4497C288.57 14.2807 290.091 14.3652 291.612 14.3652H292.457C294.738 14.4497 295.076 15.9705 295.076 17.1533ZM271.419 39.7117C271.335 38.022 271.25 35.9942 271.081 34.051C270.912 31.6008 270.236 29.2352 269.053 26.785C267.279 23.0675 264.407 19.688 260.436 16.6464C256.634 13.6893 252.156 11.4081 246.495 9.38041C242.017 7.69064 237.117 6.59229 231.963 6.00087C230.048 5.77557 228.048 5.6629 225.964 5.6629C223.824 5.6629 221.571 5.77557 219.205 6.00087C215.91 6.33882 212.531 6.76122 208.982 7.43713C206.363 7.94406 203.321 8.61998 200.449 9.71833C193.859 12.3375 188.367 15.4635 183.805 19.2655C180.256 22.1381 177.468 25.7711 175.44 30.249C173.919 33.5441 172.906 37.0926 172.314 41.148C171.723 44.6121 171.638 48.2451 172.061 52.385C172.314 55.3421 173.075 58.5527 174.342 62.5236C175.863 67.4239 178.059 72.1553 180.679 76.5487C184.396 82.5474 188.62 87.4477 193.605 91.2497C196.985 93.9533 200.787 96.0655 204.927 97.5863C208.644 98.9381 212.7 99.8675 217.262 100.29C222.838 100.797 228.077 100.374 232.977 98.9382C240.158 96.9104 246.749 93.1084 252.578 87.6167C255.535 84.8286 258.154 81.787 260.436 78.5764C264.829 72.4932 267.871 65.9877 269.56 59.2286C270.912 54.0748 271.504 48.583 271.588 41.486L271.419 39.7117ZM23.699 41.9085V41.9929C23.699 42.6688 23.699 43.3729 23.699 44.1051C23.699 45.5414 23.6145 47.0622 23.7835 48.583C24.2904 55.4266 25.7267 61.4253 28.0924 67.086C29.9511 71.4794 32.4858 75.7883 35.7808 80.1817C37.3861 82.3784 39.2449 84.4906 41.2726 86.5184C43.2158 88.3771 45.2435 90.1513 47.5247 91.8411C55.5511 97.5863 63.831 100.374 72.9558 100.459C74.5611 100.459 76.2508 100.374 78.532 100.205C81.7426 99.8675 84.9531 99.1916 88.2482 98.1777C96.9505 95.4741 104.132 90.3203 110.3 82.3784C113.088 78.8299 115.453 74.9434 117.397 70.8035C120.354 64.7203 122.128 58.8061 122.888 52.6384C123.902 44.781 122.719 36.9236 119.255 29.4041C117.397 25.2642 114.355 21.6312 110.469 18.5051C107.427 16.1395 103.879 13.9427 99.2317 11.6616C95.8521 10.0563 92.1347 8.78898 88.2482 7.94409C84.8686 7.1837 81.4891 6.67677 78.0251 6.25432C74.9835 5.91637 72.0827 5.74736 69.3228 5.74736C65.2673 5.74736 61.3809 6.08536 57.7478 6.84575C50.9043 8.19757 44.8211 10.3943 39.1604 13.6048C34.598 16.224 31.134 19.181 28.5148 22.5606C26.0647 25.8556 24.6284 29.3197 24.037 33.1216C23.6145 36.0787 23.699 39.1203 23.699 41.9085Z" fill="#8C857B"/>
</svg>
