<svg viewBox="0 0 296 106" fill="none" xmlns="http://www.w3.org/2000/svg">
<path fill-rule="evenodd" clip-rule="evenodd" d="M295.076 17.1379C295.076 18.6024 295.076 20.0951 295.076 21.6159C294.991 22.8832 294.231 23.8125 292.879 23.9815C292.429 24.0378 292.006 24.066 291.612 24.066H291.274H286.458C282.91 24.066 280.459 25.9247 279.277 29.5577C278.77 30.994 278.685 32.4303 278.601 34.0356C278.601 34.5989 278.573 35.1621 278.516 35.7254C278.404 37.1335 278.319 38.5417 278.263 39.9498C278.178 41.5551 278.094 43.2449 277.925 44.9346L277.756 46.7089C277.587 48.4831 277.418 50.2574 277.164 52.0317C276.404 56.1716 275.559 59.8046 274.376 63.0997C272.011 69.5208 268.8 75.5195 264.491 81.6027C261.618 85.5736 258.239 89.2911 254.352 92.7551C248.523 97.9089 241.848 101.626 234.329 103.739C229.428 105.175 224.106 105.766 218.107 105.344C208.222 104.837 199.266 101.711 191.493 96.0502C186.001 92.0792 181.354 86.9254 177.468 80.4198C175.271 76.8713 173.75 73.8297 172.568 70.9571C172.399 70.5065 172.202 70.084 171.976 69.6897C171.892 69.4363 171.807 69.4363 171.807 69.4363C171.807 69.4363 171.751 69.4363 171.638 69.4363C171.638 69.9432 171.807 70.4502 172.061 71.1261L173.835 75.7729C173.948 76.1109 174.06 76.4488 174.173 76.7868C174.342 77.8007 173.919 78.899 173.075 79.4059C172.23 79.8284 171.216 79.8284 170.371 79.3215C169.526 78.8145 169.019 77.9696 168.681 77.3782C167.245 74.9281 166.147 72.2244 165.302 69.0139C163.95 63.8601 163.02 58.7062 162.514 53.6369C162.457 53.0174 162.401 52.426 162.345 51.8627C162.176 50.7644 162.007 49.666 162.007 48.4832C162.007 48.3142 162.007 48.117 162.007 47.8917C162.007 47.6664 162.007 47.4411 162.007 47.2158C162.007 46.033 162.598 45.1036 163.696 44.5967C163.922 44.484 164.175 44.3714 164.457 44.2587L164.288 43.0759C164.062 41.4424 163.837 39.8372 163.612 38.26C163.443 37.1617 163.443 36.2323 163.443 35.3875C163.443 34.5426 163.274 33.9511 162.598 33.3597C161.753 32.5993 160.993 31.67 160.232 30.7406L160.063 30.5716C159.218 29.5577 158.205 29.1353 156.768 29.1353C154.459 29.079 152.15 29.0226 149.84 28.9663L147.559 28.8818L144.855 28.9663C142.715 29.0226 140.547 29.079 138.35 29.1353C136.829 29.1353 135.646 29.7267 134.632 30.9096C133.872 31.839 133.112 32.7683 132.267 33.6132C131.844 34.1201 131.675 34.4581 131.76 34.8805C131.844 36.9082 131.506 38.8515 131.253 40.7102C131.14 41.3861 131.028 42.0621 130.915 42.738C130.859 42.9633 130.83 43.1886 130.83 43.4139C130.774 43.6392 130.746 43.8363 130.746 44.0053C130.69 44.0616 130.661 44.1461 130.661 44.2587C130.718 44.2587 130.774 44.2587 130.83 44.2587C132.098 44.7657 133.534 45.864 133.196 48.3986L133.027 49.497C132.774 51.6092 132.52 53.7215 132.351 55.8337C132.013 58.7908 131.506 61.8323 130.577 65.8878C129.563 70.2812 128.465 73.9142 126.437 77.2937C126.099 77.9696 125.761 78.4766 125.339 78.899C124.719 79.4623 124.015 79.7157 123.226 79.6594C122.466 79.6594 121.79 79.3214 121.368 78.73C120.945 78.2231 120.776 77.5472 120.945 76.8713C120.945 76.5333 121.114 76.2799 121.199 76.1109L121.79 74.5056C122.213 73.3228 122.635 72.1399 123.142 70.9571C123.311 70.4501 123.395 69.9432 123.395 69.4363C123.283 69.4363 123.226 69.4363 123.226 69.4363C123.057 69.6898 122.973 70.0277 122.804 70.3656C121.283 74.0831 119.34 77.8007 116.89 81.6027C113.172 87.4324 109.117 91.9947 104.385 95.5432C99.4852 99.2607 93.9089 101.964 87.8257 103.654C83.3479 104.921 78.6165 105.513 73.6317 105.513C71.9982 105.513 70.3085 105.457 68.5624 105.344C64.4225 105.006 60.1135 103.908 55.5511 102.049C51.0733 100.19 46.6799 97.5709 42.5399 94.3604C38.1465 90.8119 34.0911 86.4185 30.2046 80.9267C26.5716 75.8574 23.7835 70.7881 21.6713 65.5498C19.9815 61.1564 18.7142 56.5096 18.0383 51.8627C17.4469 48.3987 17.1934 44.9346 16.9399 41.5551L16.8554 39.5274C16.6865 37.4151 16.602 35.3029 16.5175 33.1907C16.3485 30.4026 15.6726 28.2904 14.3208 26.6006C13.0535 25.0798 11.6171 24.3195 9.92738 24.1505C8.57556 24.066 7.30825 24.066 5.95644 24.066H3.67524C3.22463 24.066 2.77402 24.0378 2.32342 23.9815C0.971602 23.897 0.126733 22.8832 0.0422442 21.6159C-0.0140814 19.9824 -0.0140814 18.3489 0.0422442 16.7155C0.126733 15.3637 1.14059 14.4343 2.4924 14.4343L3.50628 14.3498C5.11156 14.3498 6.80132 14.3498 8.49109 14.4343C10.4343 14.6033 12.2931 14.5188 14.2363 14.6033C14.6306 14.6033 14.884 14.547 14.9967 14.4343C16.1795 13.5894 17.5314 13.4205 18.7142 13.2515C20.404 13.167 21.9248 12.5756 23.7835 11.8997L24.2904 11.6462C26.3181 10.8576 28.3459 10.0409 30.3736 9.19604C34.2601 7.50627 38.4 6.32344 42.371 5.1406L44.9056 4.38019C48.7076 3.19735 52.4251 2.35247 56.0581 1.84553L57.7478 1.59208C62.7327 0.916172 67.8865 0.155745 73.2093 0.662676C75.4904 0.831652 77.6871 1.00067 79.8838 1.33862C83.8548 1.93004 87.1498 2.52142 90.1914 3.19733C93.3175 3.95772 95.9366 4.80261 98.3023 5.73198C103.879 8.01317 108.441 10.3789 112.412 13.0825C114.102 14.1808 115.876 15.5327 117.65 17.0535C120.297 19.1938 122.888 21.3624 125.423 23.5591L128.718 26.3472C128.831 26.4598 128.943 26.5443 129.056 26.6006C129.056 26.5161 129.141 26.4317 129.31 26.3472C129.817 26.0937 130.239 25.8403 130.661 25.5023C133.112 23.6436 135.984 22.7142 139.364 22.5452C142.574 22.3762 145.869 22.3762 148.995 22.3762C150.291 22.4325 151.558 22.4325 152.797 22.3762C154.403 22.4607 156.008 22.4607 157.613 22.6297C160.063 23.0521 162.091 23.8126 163.865 24.9954C164.626 25.5868 165.386 26.0937 166.062 26.5162C166.118 26.5725 166.175 26.6006 166.231 26.6006C166.231 26.6006 166.259 26.5725 166.316 26.5162L168.343 24.6574C169.413 23.7562 170.455 22.855 171.469 21.9538C175.018 18.9122 178.566 15.9551 182.284 13.2515C184.818 11.5617 187.607 9.95643 191.155 8.18217C196.393 5.64751 201.378 3.87327 206.363 2.85941C209.658 2.09901 213.714 1.33858 217.853 1.08512C218.36 1.08512 218.867 1.00067 219.374 0.916182C220.05 0.747205 220.726 0.662676 221.402 0.662676C224.19 0.578187 226.64 0.493719 229.006 0.578208C230.949 0.662696 232.892 0.916151 234.92 1.2541C237.624 1.67655 240.496 2.099 243.453 2.69042C245.481 3.11286 247.762 3.70428 250.382 4.38019C253.423 5.2814 256.436 6.21076 259.422 7.1683C262.041 8.01318 264.66 9.11156 267.11 10.2099L269.391 11.0548C270.574 11.5617 271.785 12.0405 273.024 12.4911C273.869 12.829 274.968 13.167 276.151 13.2515C277.333 13.336 278.601 13.5894 279.868 14.2653C280.206 14.5188 280.628 14.6033 281.304 14.6033C281.98 14.6033 282.656 14.6033 283.332 14.6033C284.599 14.5188 285.782 14.5188 287.049 14.4343C288.57 14.2654 290.091 14.3498 291.612 14.3498H292.457C294.738 14.4343 295.076 15.9551 295.076 17.1379ZM271.419 39.6963C271.335 38.0066 271.25 35.9788 271.081 34.0356C270.912 31.5854 270.236 29.2198 269.053 26.7696C267.279 23.0521 264.407 19.6726 260.436 16.631C256.634 13.6739 252.156 11.3927 246.495 9.36503C242.017 7.67526 237.117 6.57691 231.963 5.98549C230.048 5.76019 228.048 5.64751 225.964 5.64751C223.824 5.64751 221.571 5.76019 219.205 5.98549C215.91 6.32344 212.531 6.74584 208.982 7.42175C206.363 7.92868 203.321 8.6046 200.449 9.70295C193.859 12.3221 188.367 15.4482 183.805 19.2501C180.256 22.1227 177.468 25.7557 175.44 30.2336C173.919 33.5287 172.906 37.0772 172.314 41.1327C171.723 44.5967 171.638 48.2297 172.061 52.3696C172.314 55.3267 173.075 58.5373 174.342 62.5082C175.863 67.4086 178.059 72.1399 180.679 76.5333C184.396 82.532 188.62 87.4323 193.605 91.2343C196.985 93.9379 200.787 96.0501 204.927 97.5709C208.644 98.9228 212.7 99.8521 217.262 100.275C222.838 100.782 228.077 100.359 232.977 98.9228C240.158 96.8951 246.749 93.0931 252.578 87.6013C255.535 84.8132 258.154 81.7716 260.436 78.561C264.829 72.4779 267.871 65.9723 269.56 59.2132C270.912 54.0594 271.504 48.5677 271.588 41.4706L271.419 39.6963ZM23.699 41.8931V41.9775C23.699 42.6535 23.699 43.3575 23.699 44.0898C23.699 45.5261 23.6145 47.0468 23.7835 48.5676C24.2904 55.4112 25.7267 61.4099 28.0924 67.0706C29.9511 71.464 32.4858 75.7729 35.7808 80.1663C37.3861 82.363 39.2449 84.4752 41.2726 86.503C43.2158 88.3617 45.2435 90.136 47.5247 91.8257C55.5511 97.5709 63.831 100.359 72.9558 100.444C74.5611 100.444 76.2508 100.359 78.532 100.19C81.7426 99.8522 84.9531 99.1762 88.2482 98.1624C96.9505 95.4587 104.132 90.3049 110.3 82.363C113.088 78.8145 115.453 74.928 117.397 70.7881C120.354 64.7049 122.128 58.7907 122.888 52.6231C123.902 44.7656 122.719 36.9082 119.255 29.3887C117.397 25.2488 114.355 21.6158 110.469 18.4898C107.427 16.1241 103.879 13.9274 99.2317 11.6462C95.8521 10.0409 92.1347 8.7736 88.2482 7.92871C84.8686 7.16832 81.4891 6.66139 78.0251 6.23894C74.9835 5.90099 72.0827 5.73198 69.3228 5.73198C65.2673 5.73198 61.3809 6.06998 57.7478 6.83037C50.9043 8.18219 44.8211 10.3789 39.1604 13.5894C34.598 16.2086 31.134 19.1657 28.5148 22.5452C26.0647 25.8403 24.6284 29.3043 24.037 33.1063C23.6145 36.0634 23.699 39.105 23.699 41.8931Z" fill="#FFC658"/>
</svg>
