<svg width="1253" height="388" viewBox="0 0 1253 388" fill="none" xmlns="http://www.w3.org/2000/svg">
<g clip-path="url(#clip0_5135_339)">
<path d="M177.258 212.966C150.664 238.039 119.629 244.448 76.8434 244.448H0.861328V8.06945H84.5003C125.414 8.06945 152.826 15.7848 175.213 35.8658C197.599 55.9468 212.445 88.4519 212.445 125.664C213.22 158.16 200.547 189.603 177.258 212.966ZM144.176 56.288C123.135 34.9007 95.0224 32.8592 70.2986 32.8592H40.6646V219.036H73.7463C101.041 219.036 120.506 215.688 137.573 202.301C154.64 188.913 171.005 165.372 171.005 127.251C171.854 101.119 162.238 75.6847 144.176 56.288ZM391.238 244.448L364.645 183.524H267.327L241.493 244.448H206.074L313.912 8.06945H330.102L435.308 244.504L391.238 244.448ZM315.665 70.6385L278.023 158.395H353.597L315.665 70.6385ZM466.403 244.448V8.06945H506.441V244.448H466.403ZM565.123 244.448V8.06945H605.159V218.695H720.419V244.504L565.123 244.448ZM743.098 244.448V8.06945H783.134V244.448H743.098ZM841.816 244.448V8.06945H996.705V33.5397H881.444V108.646H979.054V133.775H881.444V218.695H1004.19V244.504L841.816 244.448ZM1109.8 251.141C1064.97 251.141 1033.82 229.699 1021.49 188.744L1031.83 185.396C1046.74 211.43 1075.52 227.047 1106.18 225.73C1138.27 225.73 1157.26 206.329 1157.26 182.561C1157.26 158.791 1143.47 149.034 1110.5 141.717C1102.56 140.073 1088.76 136.669 1082.57 135.023C1048.72 125.664 1025.29 105.922 1024.94 71.0928C1024.35 31.8375 1060.47 0.864943 1107.76 0.864943C1153.64 0.525642 1179.53 24.9742 1185.73 59.8035L1175.38 63.4906C1163.98 40.8007 1145.34 23.7829 1113.95 25.6547C1085.31 27.0157 1066.38 41.0854 1064.97 59.6904C1063.57 78.2973 1067.02 91.515 1097.76 100.533C1104.31 102.52 1124.3 106.546 1134 108.589C1181.64 119.31 1196.07 144.44 1197.12 175.865C1198.47 220.34 1162.64 251.141 1109.8 251.141ZM1227.22 50.5575C1213.02 50.5896 1201.48 39.4398 1201.45 25.6547C1201.42 11.8696 1212.9 0.670786 1227.11 0.638741C1241.31 0.606696 1252.85 11.7565 1252.88 25.5416C1252.79 39.2758 1241.38 50.403 1227.22 50.5575ZM1227.22 6.31074C1219.18 6.31074 1211.93 11.0176 1208.86 18.2315C1205.79 25.4455 1207.5 33.7452 1213.19 39.2569C1218.89 44.7687 1227.45 46.4049 1234.87 43.4002C1242.3 40.3974 1247.12 33.3474 1247.1 25.5416C1246.88 15.027 1238.06 6.59725 1227.22 6.53881V6.31074ZM1231.38 37.0006C1230.85 35.583 1228.51 29.683 1227.75 27.7546H1223.6V37.0006H1218.11V12.7782H1226.87C1233.89 12.7782 1236.87 15.2739 1236.87 19.6981C1236.87 24.1241 1235.12 25.7112 1233.19 26.2786C1233.6 27.3569 1236.99 35.9789 1237.4 36.944L1231.38 37.0006ZM1227.22 17.2589H1223.66V23.272H1227.34C1229.45 23.272 1231.43 22.4785 1231.49 19.8696C1231.55 17.2589 1228.92 17.2023 1227.22 17.2023V17.2589ZM483.47 291.588H493.464V335.55C496.077 332.491 499.323 329.997 502.991 328.233C506.633 326.512 510.631 325.618 514.682 325.624C519.078 325.562 523.445 326.333 527.54 327.893C531.278 329.33 534.663 331.514 537.476 334.302C540.235 337.1 542.399 340.395 543.847 344.003C546.936 351.839 546.936 360.504 543.847 368.338C542.405 371.937 540.262 375.23 537.534 378.038C534.84 380.781 531.598 382.962 528.007 384.449C524.313 385.976 520.333 386.749 516.318 386.719C511.374 386.828 506.49 385.654 502.173 383.314C498.665 381.403 495.741 378.623 493.698 375.26V385.584H483.47V291.588ZM493.464 356.37C493.429 359.267 493.922 362.148 494.925 364.879C496.82 369.969 500.795 374.074 505.913 376.223C511.532 378.462 517.832 378.462 523.449 376.223C528.567 374.074 532.542 369.969 534.437 364.879C536.395 359.365 536.395 353.373 534.437 347.861C532.542 342.77 528.567 338.664 523.449 336.515C517.832 334.278 511.532 334.278 505.913 336.515C500.795 338.664 496.82 342.77 494.925 347.861C493.93 350.572 493.434 353.433 493.464 356.314V356.37ZM562.141 341.224V327.439H571.609V336.97C572.354 335.48 573.319 334.104 574.474 332.885C575.762 331.522 577.236 330.338 578.857 329.367C580.678 328.28 582.646 327.441 584.703 326.872C586.944 326.246 589.266 325.94 591.6 325.965H593.645C594.344 326.057 595.032 326.227 595.69 326.474L595.047 336.289C593.302 335.788 591.49 335.541 589.67 335.55C584.503 335.09 579.451 337.232 576.286 341.224C573.266 345.963 571.818 351.486 572.135 357.051V385.412H562.141V341.224ZM606.327 334.757C609.381 331.712 613.123 329.399 617.259 328.006C621.387 326.579 625.735 325.852 630.116 325.85C637.098 325.209 644.039 327.407 649.289 331.92C653.594 337.135 655.684 343.752 655.132 350.413V380.421C655.132 382.236 655.541 383.825 655.775 385.299H646.19C645.831 383.85 645.635 382.366 645.605 380.875V376.621C643.607 379.629 640.904 382.138 637.715 383.938C634.154 385.893 630.114 386.873 626.026 386.775C623.102 386.79 620.19 386.41 617.375 385.641C614.851 384.966 612.474 383.852 610.361 382.349C608.339 380.839 606.699 378.898 605.568 376.677C604.309 374.508 603.607 372.076 603.522 369.586C603.268 365.465 604.65 361.407 607.381 358.242C609.992 355.486 613.264 353.401 616.908 352.172C620.865 350.809 624.993 349.969 629.181 349.676C633.585 349.335 637.617 349.166 641.281 349.166H645.138V347.407C645.39 343.818 643.948 340.312 641.223 337.876C638.097 335.56 634.218 334.412 630.291 334.643C627.051 334.638 623.832 335.154 620.765 336.174C617.703 337.183 614.895 338.806 612.523 340.939L606.327 334.757ZM635.202 357.446C630.001 357.235 624.816 358.125 620.005 360.057C616.374 361.409 614.026 364.849 614.16 368.623C613.873 371.691 615.328 374.67 617.96 376.395C620.814 377.993 624.075 378.779 627.37 378.662C629.977 378.719 632.569 378.236 634.968 377.245C637.036 376.366 638.889 375.069 640.403 373.444C641.896 371.789 643.028 369.859 643.735 367.771C644.514 365.597 644.947 363.322 645.021 361.02V357.277L635.202 357.446ZM673.66 341.224V327.439H683.13V336.97C683.875 335.48 684.84 334.104 685.993 332.885C687.281 331.522 688.755 330.338 690.376 329.367C692.199 328.28 694.165 327.441 696.222 326.872C698.463 326.246 700.787 325.94 703.119 325.965C706.595 325.891 710.052 326.489 713.288 327.724C715.993 328.787 718.412 330.436 720.361 332.544C722.291 334.717 723.709 337.271 724.512 340.033C725.437 343.167 725.89 346.415 725.856 349.676V385.527H715.86V350.527C716.052 346.495 714.881 342.51 712.529 339.181C709.984 336.238 706.129 334.674 702.184 334.983C699.311 334.907 696.457 335.45 693.826 336.572C691.501 337.59 689.488 339.171 687.98 341.167C686.412 343.301 685.281 345.708 684.65 348.257C683.886 351.226 683.513 354.276 683.539 357.333V385.697H673.66V341.224ZM794.299 375.26C792.193 378.802 789.119 381.706 785.415 383.656C781.096 385.995 776.214 387.169 771.269 387.058C767.254 387.09 763.275 386.317 759.58 384.788C755.82 383.284 752.434 381.022 749.645 378.153C746.917 375.343 744.774 372.05 743.332 368.453C740.24 360.617 740.24 351.952 743.332 344.116C744.768 340.534 746.911 337.258 749.645 334.474C752.457 331.684 755.842 329.501 759.58 328.063C763.673 326.502 768.04 325.733 772.438 325.793C776.489 325.79 780.487 326.683 784.129 328.404C787.906 330.078 791.275 332.513 794.006 335.55V291.588H804.001V385.356H794.006L794.299 375.26ZM794.299 356.54C794.331 353.642 793.837 350.762 792.838 348.031C790.943 342.939 786.966 338.836 781.848 336.685C776.231 334.447 769.931 334.447 764.314 336.685C759.196 338.836 755.22 342.939 753.326 348.031C751.366 353.544 751.366 359.535 753.326 365.049C755.215 370.142 759.192 374.249 764.314 376.395C769.931 378.632 776.231 378.632 781.848 376.395C786.972 374.249 790.949 370.142 792.838 365.049C793.863 362.246 794.359 359.286 794.299 356.314V356.54ZM859.118 291.588H869.113V385.356H859.118V291.588ZM942.522 374.805C939.505 378.836 935.484 382.055 930.834 384.165C926.125 386.027 921.071 386.934 915.987 386.832C911.631 386.896 907.309 386.065 903.305 384.393C899.699 382.879 896.455 380.658 893.778 377.869C891.182 375.047 889.196 371.748 887.933 368.168C886.511 364.349 885.799 360.315 885.829 356.255C885.771 352.031 886.545 347.833 888.108 343.889C889.533 340.272 891.701 336.971 894.479 334.189C897.241 331.49 900.543 329.365 904.181 327.95C908.085 326.44 912.255 325.69 916.455 325.737C920.453 325.669 924.425 326.363 928.146 327.78C931.533 329.015 934.605 330.951 937.146 333.452C939.755 336.201 941.746 339.446 942.99 342.983C944.411 347.113 945.103 351.448 945.037 355.803V358.922H896.7C896.869 361.396 897.503 363.818 898.57 366.07C899.612 368.174 901.016 370.093 902.721 371.742C904.391 373.429 906.374 374.796 908.564 375.771C910.943 376.773 913.512 377.275 916.104 377.245C919.897 377.365 923.663 376.608 927.094 375.032C930.232 373.418 932.981 371.175 935.16 368.453L942.522 374.805ZM933.931 351.094C933.944 346.645 932.161 342.37 928.964 339.181C925.414 336.052 920.717 334.438 915.929 334.7C905.882 334.048 897.158 341.352 896.349 351.094H933.931ZM960.059 341.224V327.439H969.527V336.97C970.272 335.48 971.237 334.104 972.39 332.885C973.678 331.522 975.154 330.338 976.775 329.367C978.596 328.28 980.562 327.441 982.618 326.872C984.86 326.246 987.184 325.94 989.516 325.965C992.992 325.891 996.449 326.489 999.685 327.724C1002.39 328.787 1004.81 330.436 1006.76 332.544C1008.69 334.717 1010.11 337.271 1010.91 340.033C1011.83 343.167 1012.29 346.415 1012.25 349.676V385.527H1002.26V350.527C1002.45 346.495 1001.28 342.51 998.926 339.181C996.383 336.238 992.526 334.674 988.581 334.983C985.708 334.907 982.854 335.45 980.223 336.572C977.898 337.59 975.885 339.171 974.377 341.167C972.809 343.301 971.678 345.708 971.046 348.257C970.283 351.226 969.91 354.276 969.936 357.333V385.697H960.059V341.224ZM1032.36 370.097C1034.16 372.34 1036.36 374.261 1038.85 375.771C1041.55 377.264 1044.63 377.989 1047.73 377.869C1049.3 377.861 1050.87 377.69 1052.41 377.358C1053.91 377.058 1055.35 376.523 1056.67 375.771C1057.89 375.073 1058.92 374.123 1059.71 372.99C1060.51 371.793 1060.92 370.389 1060.88 368.962C1060.94 367.595 1060.55 366.246 1059.77 365.105C1059.01 364.07 1058.03 363.201 1056.91 362.553C1055.63 361.805 1054.25 361.233 1052.82 360.851L1048.08 359.716C1045.28 359.149 1042.59 358.487 1040.02 357.731C1037.65 357.077 1035.38 356.102 1033.29 354.838C1031.39 353.667 1029.81 352.072 1028.68 350.185C1027.43 347.944 1026.82 345.416 1026.92 342.868C1026.88 340.27 1027.54 337.705 1028.85 335.437C1030.12 333.301 1031.88 331.477 1033.99 330.104C1036.18 328.67 1038.59 327.578 1041.13 326.872C1043.79 326.119 1046.54 325.737 1049.31 325.737C1053.35 325.726 1057.34 326.578 1061 328.233C1064.66 329.937 1067.64 332.77 1069.47 336.289L1061.17 341.62C1059.93 339.577 1058.21 337.846 1056.15 336.572C1053.86 335.234 1051.22 334.564 1048.55 334.643C1047.15 334.653 1045.76 334.824 1044.4 335.154C1043.06 335.446 1041.78 335.946 1040.6 336.628C1039.51 337.279 1038.57 338.15 1037.85 339.181C1037.12 340.216 1036.73 341.443 1036.74 342.698C1036.71 343.871 1037.15 345.009 1037.97 345.874C1038.92 346.832 1040.05 347.601 1041.3 348.144C1042.86 348.872 1044.48 349.46 1046.15 349.903C1048.08 350.417 1050.03 350.834 1052 351.151C1054.55 351.629 1057.07 352.272 1059.54 353.079C1061.79 353.803 1063.9 354.875 1065.79 356.255C1067.57 357.58 1069.02 359.288 1070 361.249C1071.09 363.539 1071.61 366.044 1071.52 368.566C1071.6 371.507 1070.9 374.419 1069.47 377.018C1068.15 379.301 1066.29 381.245 1064.04 382.69C1061.7 384.178 1059.1 385.252 1056.38 385.867C1053.54 386.436 1050.63 386.683 1047.73 386.604C1043.22 386.715 1038.72 385.942 1034.52 384.336C1030.41 382.479 1026.92 379.529 1024.47 375.827L1032.36 370.097ZM1138.97 374.805C1135.95 378.836 1131.93 382.055 1127.28 384.165C1122.57 386.027 1117.52 386.934 1112.43 386.832C1108.08 386.896 1103.75 386.065 1099.75 384.393C1096.14 382.879 1092.9 380.658 1090.22 377.869C1087.63 375.047 1085.64 371.748 1084.38 368.168C1082.96 364.349 1082.25 360.315 1082.27 356.255C1082.22 352.031 1082.99 347.833 1084.55 343.889C1085.98 340.272 1088.15 336.971 1090.92 334.189C1093.69 331.49 1096.99 329.365 1100.63 327.95C1104.53 326.44 1108.7 325.69 1112.9 325.737C1116.9 325.669 1120.87 326.363 1124.59 327.78C1127.98 329.015 1131.05 330.951 1133.59 333.452C1136.2 336.201 1138.19 339.446 1139.44 342.983C1140.86 347.113 1141.55 351.448 1141.48 355.803V358.922H1093.14C1093.31 361.396 1093.95 363.818 1095.02 366.07C1096.06 368.174 1097.46 370.093 1099.16 371.742C1100.83 373.429 1102.82 374.796 1105.01 375.771C1107.39 376.773 1109.96 377.275 1112.55 377.245C1116.34 377.365 1120.11 376.608 1123.54 375.032C1126.68 373.418 1129.42 371.175 1131.6 368.453L1138.97 374.805ZM1130.38 351.094C1130.39 346.645 1128.6 342.37 1125.41 339.181C1121.86 336.052 1117.16 334.438 1112.37 334.7C1102.33 334.048 1093.6 341.352 1092.79 351.094H1130.38ZM1157.91 370.097C1159.71 372.34 1161.91 374.261 1164.39 375.771C1167.09 377.264 1170.17 377.989 1173.28 377.869C1174.85 377.861 1176.42 377.69 1177.95 377.358C1179.45 377.058 1180.9 376.523 1182.22 375.771C1183.43 375.073 1184.47 374.123 1185.26 372.99C1186.06 371.793 1186.47 370.389 1186.43 368.962C1186.48 367.595 1186.1 366.246 1185.32 365.105C1184.56 364.07 1183.58 363.201 1182.45 362.553C1181.18 361.805 1179.8 361.233 1178.36 360.851L1173.63 359.716C1170.82 359.149 1168.13 358.487 1165.56 357.731C1163.19 357.077 1160.93 356.102 1158.84 354.838C1156.94 353.667 1155.36 352.072 1154.22 350.185C1152.97 347.944 1152.37 345.416 1152.47 342.868C1152.42 340.27 1153.09 337.705 1154.4 335.437C1155.67 333.301 1157.43 331.477 1159.54 330.104C1161.73 328.67 1164.14 327.578 1166.67 326.872C1169.33 326.119 1172.09 325.737 1174.86 325.737C1178.89 325.726 1182.89 326.578 1186.55 328.233C1190.21 329.937 1193.19 332.77 1195.02 336.289L1186.72 341.62C1185.48 339.577 1183.76 337.846 1181.69 336.572C1179.4 335.234 1176.77 334.564 1174.1 334.643C1172.7 334.653 1171.3 334.824 1169.95 335.154C1168.61 335.446 1167.32 335.946 1166.15 336.628C1165.05 337.279 1164.12 338.15 1163.4 339.181C1162.67 340.216 1162.28 341.443 1162.29 342.698C1162.26 343.871 1162.7 345.009 1163.52 345.874C1164.47 346.832 1165.6 347.601 1166.85 348.144C1168.41 348.872 1170.03 349.46 1171.7 349.903C1173.62 350.417 1175.58 350.834 1177.54 351.151C1180.1 351.629 1182.62 352.272 1185.08 353.079C1187.33 353.803 1189.44 354.875 1191.34 356.255C1193.12 357.58 1194.56 359.288 1195.55 361.249C1196.63 363.539 1197.15 366.044 1197.07 368.566C1197.15 371.507 1196.44 374.419 1195.02 377.018C1193.7 379.301 1191.83 381.245 1189.58 382.69C1187.24 384.178 1184.65 385.252 1181.93 385.867C1179.06 386.54 1176.11 386.883 1173.16 386.888C1168.65 386.998 1164.15 386.227 1159.95 384.619C1155.84 382.764 1152.35 379.812 1149.9 376.11L1157.91 370.097Z" fill="black"/>
</g>
<defs>
<clipPath id="clip0_5135_339">
<rect width="1253" height="388" fill="white"/>
</clipPath>
</defs>
</svg>
