<svg width="1492" height="372" viewBox="0 0 1492 372" fill="none" xmlns="http://www.w3.org/2000/svg">
<g clip-path="url(#clip0_5135_345)">
<path d="M1111.03 117.686H1094.42V226.108L1011.02 117.743H994.427V254.104H1011.04V144.355L1094.4 254.182H1111.03V117.686Z" fill="black"/>
<path d="M259.237 254.104H334.724V238.54H275.847V191.505H329.218V175.94H275.847V133.251H334.724V117.686H259.237V254.104Z" fill="black"/>
<path d="M665.421 173.419L655.875 169.623C647.57 166.358 637.336 160.757 637.336 150.071C637.336 138.132 648.997 130.729 659.581 130.729C669.649 130.729 676.007 135.057 680.957 143.56L694.211 135.417C690.906 129.067 685.945 123.777 679.881 120.139C673.817 116.499 666.887 114.654 659.86 114.805C639.728 114.805 620.633 128.09 620.633 150.071C620.633 169.053 634.426 177.935 649.609 184.637L658.878 188.622C670.352 193.5 681.847 199.839 681.847 214.493C681.847 228.787 671.594 241.068 657.283 241.068C642.972 241.068 631.33 230.21 631.496 215.196L614.701 218.802C617.538 240.706 634.314 256.974 655.875 256.974C679.734 256.974 698.512 239.264 698.512 214.474C698.382 191.677 684.237 181.01 665.421 173.419Z" fill="black"/>
<path d="M766.833 117.686H750.223V254.104H766.833V117.686Z" fill="black"/>
<path d="M880.619 114.796C862.17 114.845 844.487 122.351 831.417 135.682C818.346 149.011 810.945 167.086 810.823 185.976C810.823 226.5 842.097 257.06 880.619 257.06C919.141 257.06 950.415 226.5 950.415 185.976C950.293 167.086 942.89 149.011 929.82 135.682C916.749 122.351 899.068 114.845 880.619 114.796ZM880.619 241.078C873.594 241.035 866.644 239.576 860.169 236.784C853.694 233.993 847.818 229.921 842.879 224.805C837.941 219.689 834.035 213.625 831.385 206.964C828.734 200.3 827.392 193.169 827.434 185.976C827.434 155.927 849.345 130.796 880.619 130.796C911.893 130.796 933.805 155.852 933.805 185.976C933.869 200.492 928.304 214.443 918.332 224.764C908.361 235.084 894.796 240.93 880.619 241.02V241.078Z" fill="black"/>
<path d="M449.257 241.033C435.082 240.942 421.519 235.095 411.551 224.775C401.581 214.454 396.021 200.503 396.09 185.989C396.09 155.94 417.983 130.809 449.257 130.809C456.354 130.688 463.402 132.049 469.968 134.811C476.533 137.572 482.48 141.674 487.445 146.867L498.439 135.612C488.695 125.648 476.286 118.862 462.778 116.112C449.27 113.361 435.27 114.769 422.543 120.159C409.817 125.548 398.935 134.677 391.27 146.392C383.606 158.11 379.504 171.887 379.48 185.989C379.48 226.513 410.754 257.073 449.257 257.073C467.734 257.199 485.511 249.845 498.718 236.611L487.112 224.73C482.183 229.893 476.294 233.994 469.792 236.794C463.291 239.595 456.311 241.035 449.257 241.033Z" fill="black"/>
<path d="M562.796 117.686H546.185V254.104H562.796V117.686Z" fill="black"/>
<path d="M1254.95 0.370117C1224.43 0.388967 1194.4 8.30036 1167.67 23.3729C1140.93 38.4435 1118.34 60.1871 1102.01 86.5829H1120.36C1140.88 57.418 1169.91 35.665 1203.27 24.4568C1236.63 13.2466 1272.6 13.1561 1306.01 24.1985C1339.43 35.239 1368.56 56.845 1389.22 85.9062C1409.89 114.969 1421.02 149.993 1421.02 185.94C1421.02 221.889 1409.89 256.912 1389.22 285.975C1368.56 315.037 1339.43 336.643 1306.01 347.683C1272.6 358.725 1236.63 358.635 1203.27 347.425C1169.91 336.215 1140.88 314.464 1120.36 285.299H1102.02C1118.9 312.503 1142.4 334.735 1170.23 349.807C1198.05 364.878 1229.22 372.267 1260.68 371.247C1292.14 370.226 1322.8 360.831 1349.63 343.987C1376.46 327.142 1398.55 303.429 1413.71 275.186C1428.86 246.942 1436.57 215.141 1436.08 182.918C1435.58 150.696 1426.89 119.162 1410.86 91.4217C1394.84 63.6838 1372.03 40.6999 1344.69 24.7339C1317.35 8.76784 1286.42 0.370117 1254.95 0.370117Z" fill="black"/>
<path d="M1234.76 118.128L1225.56 133.617H1248.7V238.297H1234.33V253.843H1278.99V238.297H1264.6V118.128H1234.76Z" fill="black"/>
<path d="M26.1487 117.649H0.195312V254.067H16.8795V201.451H33.2859C58.5533 201.451 79.9276 192.531 79.9276 159.389C79.872 129.495 67.155 117.649 26.1487 117.649ZM28.9851 186.23H16.787V132.835H28.0951C47.5601 132.835 64.3186 135.112 64.3186 159.029C64.3186 183.591 45.9473 186.267 28.9851 186.267V186.23Z" fill="black"/>
<path d="M177.504 199.137C193.426 194.79 204.791 183.535 204.791 159.39C204.791 129.495 192.075 117.631 151.031 117.631H125.077V254.049H141.762V201.452H158.186C159.076 201.452 160.04 201.452 160.819 201.452L199.749 254.164H219.899L177.745 199.269L177.504 199.137ZM153.904 186.268H141.724V132.835H153.033C172.48 132.835 189.238 135.056 189.238 158.973C189.238 183.591 170.866 186.268 153.904 186.268Z" fill="black"/>
<path d="M1470.2 140.153C1474.09 140.153 1476 138.102 1476 135.027C1476 131.951 1474.15 130.015 1470.2 130.015H1465.7V140.153H1470.2ZM1470.5 142.905H1465.7V152.394H1462.4V127.244H1470.4C1476.3 127.244 1479.4 130.321 1479.4 135.027C1479.5 136.724 1479.02 138.407 1478.03 139.776C1477.05 141.144 1475.62 142.111 1474 142.505L1480.1 152.434H1476.3L1470.5 142.905ZM1488.39 140.038C1488.5 137.514 1488.1 134.995 1487.21 132.639C1486.32 130.283 1484.95 128.143 1483.21 126.358C1481.47 124.571 1479.38 123.178 1477.08 122.264C1474.77 121.352 1472.31 120.941 1469.85 121.058C1459.34 121.058 1451.76 128.649 1451.76 140.038C1451.76 151.427 1459.34 158.886 1469.85 158.886C1472.3 159.005 1474.75 158.598 1477.05 157.695C1479.34 156.79 1481.42 155.408 1483.17 153.636C1484.91 151.864 1486.27 149.74 1487.17 147.399C1488.07 145.058 1488.49 142.55 1488.39 140.038ZM1448.31 140.038C1448.22 135.614 1449.42 131.261 1451.76 127.538C1454.1 123.815 1457.47 120.892 1461.44 119.139C1465.41 117.386 1469.79 116.884 1474.04 117.697C1478.29 118.509 1482.21 120.601 1485.29 123.704C1488.37 126.807 1490.48 130.779 1491.35 135.116C1492.22 139.452 1491.8 143.953 1490.16 148.047C1488.52 152.141 1485.72 155.64 1482.13 158.098C1478.53 160.556 1474.3 161.862 1469.98 161.847C1467.15 161.893 1464.35 161.363 1461.73 160.286C1459.11 159.21 1456.72 157.61 1454.71 155.58C1452.7 153.55 1451.11 151.129 1450.02 148.462C1448.93 145.793 1448.38 142.929 1448.38 140.038" fill="black"/>
</g>
<defs>
<clipPath id="clip0_5135_345">
<rect width="1492" height="372" fill="white"/>
</clipPath>
</defs>
</svg>
