<svg width="1461" height="356" viewBox="0 0 1461 356" fill="none" xmlns="http://www.w3.org/2000/svg">
<path d="M35.6185 340.837C35.6185 336.524 32.0668 333.998 25.0551 333.998H11.4403V347.906H25.7873C31.8896 347.906 35.6185 345.365 35.6185 340.837ZM39.6189 320.466C39.6189 326.109 36.2979 328.999 32.866 330.611C38.1544 332.29 42.1141 335.288 42.1141 341.402C42.1141 349.237 35.5914 353.602 25.7194 353.602H5.08008V309.259H24.9735C33.8966 309.259 39.6189 313.599 39.6189 320.466ZM33.1235 321.459C33.1235 317.429 29.9639 314.956 24.2278 314.956H11.4403V328.475H23.7532C29.3266 328.475 33.1235 326.151 33.1235 321.459Z" fill="black"/>
<path d="M109.473 353.604L97.4718 337.263H86.1625V353.604H79.7073V309.259H99.3025C109.365 309.259 115.697 314.568 115.697 322.913C115.697 330.29 110.924 334.656 104.293 336.162L117.202 353.604H109.473ZM98.7872 315.118H86.1625V331.553H98.7736C104.971 331.553 109.147 328.394 109.147 323.235C109.147 318.034 105.311 315.118 98.7872 315.118Z" fill="black"/>
<path d="M196.353 353.608H189.464L184.581 342.4H161.814L156.864 353.608H150.248L170.289 308.928H176.297L196.353 353.608ZM173.192 316.508L164.24 336.717H182.155L173.192 316.508Z" fill="black"/>
<path d="M264.813 309.278H271.147V353.621H265.844L239.049 319.651V353.621H232.717V309.278H238.723L264.813 342.386V309.278Z" fill="black"/>
<path d="M327.503 353.604H311.394V309.259H327.503C341.566 309.259 351.288 318.828 351.288 331.378C351.288 343.928 341.566 353.604 327.503 353.604ZM327.503 315.118H317.848V347.746H327.503C337.877 347.746 344.549 340.797 344.549 331.499C344.549 322.187 337.877 315.118 327.503 315.118Z" fill="black"/>
<path d="M457.495 354.375C444.504 354.375 434.877 344.311 434.877 331.504C434.877 318.833 444.381 308.486 457.738 308.486C465.931 308.486 470.839 311.361 475.246 315.474L470.975 320.203C467.299 316.763 463.271 314.398 457.685 314.398C448.436 314.398 441.616 321.857 441.616 331.397C441.616 340.91 448.464 348.477 457.685 348.477C463.503 348.477 467.273 346.217 471.327 342.403L475.518 346.567C470.839 351.312 465.727 354.375 457.495 354.375Z" fill="black"/>
<path d="M531.99 354.375C518.309 354.375 508.952 343.934 508.952 331.504C508.952 319.087 518.458 308.486 532.126 308.486C545.823 308.486 555.18 318.954 555.18 331.397C555.18 343.8 545.687 354.375 531.99 354.375ZM531.99 314.398C522.445 314.398 515.678 321.977 515.678 331.397C515.678 340.79 522.565 348.477 532.126 348.477C541.687 348.477 548.439 340.91 548.439 331.504C548.439 322.098 541.551 314.398 531.99 314.398Z" fill="black"/>
<path d="M625.494 309.278H631.812V353.621H626.51L599.728 319.651V353.621H593.409V309.278H599.388L625.494 342.386V309.278Z" fill="black"/>
<path d="M690 353.604H683.478V315.173H668.846V309.259H704.605V315.173H690V353.604Z" fill="black"/>
<path d="M778.144 353.608H771.254L766.346 342.4H743.605L738.642 353.608H732.023L752.08 308.928H758.074L778.144 353.608ZM754.983 316.508L746.031 336.717H763.931L754.983 316.508Z" fill="black"/>
<path d="M832.474 354.375C819.469 354.375 809.854 344.311 809.854 331.504C809.854 318.833 819.36 308.486 832.717 308.486C840.894 308.486 845.816 311.361 850.197 315.474L845.952 320.203C842.293 316.763 838.25 314.398 832.662 314.398C823.401 314.398 816.608 321.857 816.608 331.397C816.608 340.91 823.443 348.477 832.662 348.477C838.466 348.477 842.249 346.217 846.304 342.403L850.495 346.567C845.816 351.312 840.719 354.375 832.474 354.375Z" fill="black"/>
<path d="M905.143 353.604H898.621V315.173H884.002V309.259H919.72V315.173H905.143V353.604Z" fill="black"/>
<path d="M1004.1 309.278H1010.55V347.762H1034.9V353.621H1004.1V309.278Z" fill="black"/>
<path d="M1104.62 315.011H1078.31V328.368H1101.74V334.119H1078.31V347.84H1104.91V353.604H1071.84V309.259H1104.62V315.011Z" fill="black"/>
<path d="M1174.91 309.278H1181.25V353.621H1175.95L1149.17 319.651V353.621H1142.82V309.278H1148.82L1174.91 342.386V309.278Z" fill="black"/>
<path d="M1238.15 328.449C1247.86 330.666 1252.61 334.159 1252.61 341.267C1252.61 349.29 1246.13 354.236 1236.99 354.236C1230.03 354.236 1223.87 351.912 1218.52 347.154L1222.45 342.532C1226.92 346.442 1231.32 348.538 1237.18 348.538C1242.63 348.538 1246.13 345.863 1246.13 341.927C1246.13 338.206 1244.1 336.229 1235.26 334.266C1225.36 332.061 1220.31 328.973 1220.31 321.165C1220.31 313.748 1226.6 308.615 1235.29 308.615C1241.83 308.615 1246.75 310.534 1251.29 314.138L1247.7 319.015C1243.6 315.842 1239.52 314.34 1235.18 314.34C1229.96 314.34 1226.76 317.066 1226.76 320.615C1226.76 324.459 1228.94 326.353 1238.15 328.449Z" fill="black"/>
<path d="M1323.31 315.011H1297.03V328.368H1320.44V334.119H1297.03V347.84H1323.63V353.604H1290.53V309.259H1323.31V315.011Z" fill="black"/>
<path d="M1378.17 328.449C1387.86 330.666 1392.62 334.159 1392.62 341.267C1392.62 349.29 1386.14 354.236 1377 354.236C1370.03 354.236 1363.89 351.912 1358.53 347.154L1362.47 342.532C1366.94 346.442 1371.33 348.538 1377.19 348.538C1382.64 348.538 1386.14 345.863 1386.14 341.927C1386.14 338.206 1384.12 336.229 1375.28 334.266C1365.35 332.061 1360.31 328.973 1360.31 321.165C1360.31 313.748 1366.59 308.615 1375.33 308.615C1381.83 308.615 1386.75 310.534 1391.31 314.138L1387.7 319.015C1383.62 315.842 1379.54 314.34 1375.19 314.34C1369.97 314.34 1366.78 317.066 1366.78 320.615C1366.78 324.459 1368.96 326.353 1378.17 328.449Z" fill="black"/>
<path d="M1448.43 22.9421C1448.43 12.9987 1440.89 5.04395 1430.29 5.04395C1419.76 5.04395 1412.32 12.944 1412.32 22.9006C1412.32 32.8177 1419.9 40.8271 1430.48 40.8271C1441.04 40.8271 1448.43 32.8855 1448.43 22.9421ZM1446.34 22.9421C1446.34 31.7979 1439.94 38.9194 1430.48 38.9194C1420.96 38.9194 1414.45 31.7564 1414.45 22.9006C1414.45 14.0731 1420.71 6.96477 1430.25 6.96477C1439.81 6.96477 1446.34 14.1278 1446.34 22.9421ZM1433.53 24.2069C1436.08 23.7225 1437.98 21.5057 1437.98 18.9251C1437.98 15.715 1435.97 13.4831 1431.94 13.4831H1423.52V31.9336H1426.25V24.4897H1430.76L1435.29 31.9336H1438.28L1433.53 24.2069ZM1435.13 18.993C1435.13 20.8479 1434.06 22.0166 1431.97 22.0166H1426.25V15.9562H1432.02C1434.03 15.9562 1435.13 17.1382 1435.13 18.993Z" fill="black"/>
<path d="M382.235 238.939C404.692 239.129 434.103 234.988 450.987 217.358L451.502 217.868V248.277C430.904 254.123 402.467 259.565 380.729 259.486C311.951 259.218 245.382 219.71 245.382 134.542C245.382 70.553 296.505 7.58429 382.343 7.58429C401.491 7.58429 429.033 12.9321 444.87 18.7511V43.4617L444.205 43.9876C428.205 29.9857 400.799 24.8925 377.583 24.8925C322.854 24.8925 279.31 66.1063 279.31 130.943C279.31 208.234 326.812 238.456 382.235 238.939Z" fill="black"/>
<path d="M1266.97 232.706V135.443H1372.15V116.672H1266.97V32.4858H1385.16V13.2172H1235.93V253.801H1392.54V232.706H1266.97Z" fill="black"/>
<path d="M670.551 13.2172V166.242C670.551 210.949 648.487 241.171 597.324 241.171C542.919 241.171 531.543 203.411 531.543 168.272V13.2172H499.416V169.897C499.416 222.975 536.694 259.499 597.446 259.499C658.183 259.499 692.871 217.924 692.871 165.611V13.2172H670.551Z" fill="black"/>
<path d="M929.154 13.2172L847.722 217.737L764.312 13.2172H728.784L829.579 254.892H853.173L952.736 13.2172H929.154Z" fill="black"/>
<path d="M203.809 253.828H240.111L129.634 11.4684H92.0303V13.3346C103.286 20.6296 104.126 30.7087 97.346 47.6663L5.08008 253.828H30.5603L61.3565 181.223H172.539L203.809 253.828ZM69.2756 162.533L116.507 51.1215L164.497 162.533H69.2756Z" fill="black"/>
<path d="M1158.35 13.2172V166.242C1158.35 210.949 1136.28 241.171 1085.12 241.171C1030.73 241.171 1019.33 203.411 1019.33 168.272V13.2172H987.199V169.897C987.199 222.975 1024.48 259.499 1085.22 259.499C1145.98 259.499 1180.67 217.924 1180.67 165.611V13.2172H1158.35Z" fill="black"/>
</svg>
