<svg width="1486" height="408" viewBox="0 0 1486 408" fill="none" xmlns="http://www.w3.org/2000/svg">
<g clip-path="url(#clip0_5135_328)">
<path d="M156.449 285.296C128.787 312.783 93.2042 311.152 36.7143 311.152H1.53906V28.2369H72.8212C102.056 28.2369 126.69 29.5187 146.2 49.0286C160.584 63.4715 168.213 81.6411 168.213 103.771C168.213 135.626 149.577 160.61 120.284 166.142C157.614 172.082 177.531 194.155 177.531 231.077C177.531 251.867 170.309 271.377 156.391 285.354M126.632 66.5573C108.346 48.2708 77.8295 50.3669 49.8175 50.3669H28.6193V156.942H56.573C81.2073 156.942 109.627 154.845 126.574 137.839C135.484 128.872 140.551 117.049 140.551 102.548C140.551 88.0464 135.484 75.4677 126.574 66.6157M135.018 196.31C115.101 176.451 79.4602 179.013 49.7593 179.013H28.561V288.849H59.543C95.9995 288.849 117.605 286.692 135.892 268.464C145.21 259.147 149.869 243.482 149.869 232.008C149.869 219.663 146.083 207.375 135.018 196.31Z" fill="black"/>
<path d="M243.398 55.8337C234.08 55.8337 226.452 48.2051 226.452 38.8291C226.452 29.453 234.08 21.9413 243.398 21.9413C252.717 21.9413 260.346 29.5699 260.346 38.8291C260.346 48.0882 252.717 55.8337 243.398 55.8337ZM230.644 107.607H256.152V311.145H230.644V107.549V107.607Z" fill="black"/>
<path d="M396.076 316.269C340.517 316.269 304.061 274.746 304.061 209.404C304.061 144.062 339.644 102.422 398.113 102.422C453.205 102.422 489.312 143.655 489.312 211.035C489.312 274.688 453.263 316.269 396.076 316.269ZM396.483 124.552C355.833 124.552 330.325 158.04 330.325 208.59C330.325 259.138 358.745 293.849 396.949 293.849C438.82 293.849 462.99 261.119 462.99 210.22C462.99 159.321 434.162 124.552 396.483 124.552Z" fill="black"/>
<path d="M648.881 31.6617C646.319 29.9143 633.624 23.1584 618.713 23.1584C606.834 23.1584 597.516 26.5948 590.702 33.3507C578.823 45.2884 578.823 63.5184 578.823 74.9321V107.603H644.165V128.334H578.823V311.199H553.373V128.334H517.266V107.603H553.373V74.9321C553.373 58.3346 555.119 34.1669 572.474 16.8116C582.666 6.61936 598.331 0.679688 616.093 0.679688C640.728 0.679688 656.393 11.7447 658.956 13.8993L648.822 31.7201L648.881 31.6617Z" fill="black"/>
<path d="M699.393 55.8337C690.075 55.8337 682.388 48.2051 682.388 38.8291C682.388 29.453 690.017 21.9413 699.393 21.9413C708.769 21.9413 716.339 29.5699 716.339 38.8291C716.339 48.0882 708.71 55.8337 699.393 55.8337ZM686.58 107.607H712.088V311.145H686.58V107.549V107.607Z" fill="black"/>
<path d="M902.982 311.144V192.399C902.982 166.95 903.39 148.722 891.103 136.434C883.882 129.154 871.535 124.961 859.305 124.961C829.254 124.961 797.806 144.004 796.934 144.878V311.144H771.484V107.548H795.652V122.398C799.088 120.302 828.323 102.422 862.624 102.422C877.067 102.422 896.168 105.859 909.738 119.429C925.405 135.21 928.373 150.876 928.373 188.556V311.144H902.982Z" fill="black"/>
<path d="M997.622 55.8337C988.305 55.8337 980.676 48.2051 980.676 38.8291C980.676 29.453 988.305 21.9413 997.622 21.9413C1006.94 21.9413 1014.57 29.5699 1014.57 38.8291C1014.57 48.0882 1006.94 55.8337 997.622 55.8337ZM984.927 107.607H1010.32V311.145H984.927V107.549V107.607Z" fill="black"/>
<path d="M1130.38 315.814C1111.75 315.814 1098.12 311.154 1088.33 301.488C1076.51 289.49 1076.51 273.475 1076.51 248.842V128.292H1040.87V107.617H1076.51V49.9035H1102.02V107.617H1167.3V128.292H1102.02V243.716C1102.02 271.786 1099.86 292.868 1133.76 292.868C1149.48 292.868 1161.83 286.928 1163.87 286.521L1170.68 306.087C1167.3 307.776 1153.27 315.814 1130.44 315.814" fill="black"/>
<path d="M1308.55 325.536C1295.86 359.954 1286.07 375.62 1272.91 388.723C1260.62 401.07 1241.46 407.417 1222.88 407.417C1202.44 407.417 1188.88 401.07 1186.37 400.195L1193.18 379.464C1196.16 380.337 1205.88 384.531 1222.07 384.531C1235.23 384.531 1247.11 380.746 1255.15 372.649C1267.9 359.954 1274.66 343.88 1285.67 316.218L1201.75 107.613H1229.7L1299.76 283.547L1362.94 107.613H1389.27L1308.67 325.536H1308.55Z" fill="black"/>
<path d="M1446.82 137.422C1425.44 137.422 1408.26 120.359 1408.26 98.9286C1408.26 77.4961 1425.44 60.433 1446.82 60.433C1468.19 60.433 1485.43 77.5545 1485.43 98.9286C1485.43 120.301 1468.19 137.422 1446.82 137.422ZM1446.82 68.4707C1429.64 68.4707 1416.12 81.8071 1416.12 98.9286C1416.12 116.05 1429.64 129.328 1446.82 129.328C1464 129.328 1477.56 116.109 1477.56 98.9286C1477.56 81.7487 1464.05 68.4707 1446.82 68.4707ZM1457.36 119.602L1452.11 108.77C1449.15 102.655 1448.56 102.422 1442.62 102.422H1440.7V119.602H1433.3V77.3811H1443.67C1449.26 77.3811 1453.86 77.5545 1457.53 80.874C1459.98 83.1455 1461.26 86.3481 1461.26 89.8429C1461.26 94.3858 1458.81 99.1605 1452.58 99.8598C1455.73 99.8598 1457.53 103.355 1458.41 105.334L1465.1 119.66H1457.36V119.602ZM1444.02 84.0767H1440.7V95.841C1445.59 95.841 1454.04 96.5403 1454.04 89.4942C1454.04 84.1351 1448.1 84.1351 1444.02 84.1351" fill="black"/>
</g>
<defs>
<clipPath id="clip0_5135_328">
<rect width="1485" height="408" fill="white" transform="translate(0.693359)"/>
</clipPath>
</defs>
</svg>
